%TF.GenerationSoftware,KiCad,Pcbnew,7.0.5*%
%TF.CreationDate,2023-09-04T17:01:56+02:00*%
%TF.ProjectId,mABoard,6d41426f-6172-4642-9e6b-696361645f70,rev?*%
%TF.SameCoordinates,Original*%
%TF.FileFunction,Soldermask,Top*%
%TF.FilePolarity,Negative*%
%FSLAX46Y46*%
G04 Gerber Fmt 4.6, Leading zero omitted, Abs format (unit mm)*
G04 Created by KiCad (PCBNEW 7.0.5) date 2023-09-04 17:01:56*
%MOMM*%
%LPD*%
G01*
G04 APERTURE LIST*
G04 Aperture macros list*
%AMRoundRect*
0 Rectangle with rounded corners*
0 $1 Rounding radius*
0 $2 $3 $4 $5 $6 $7 $8 $9 X,Y pos of 4 corners*
0 Add a 4 corners polygon primitive as box body*
4,1,4,$2,$3,$4,$5,$6,$7,$8,$9,$2,$3,0*
0 Add four circle primitives for the rounded corners*
1,1,$1+$1,$2,$3*
1,1,$1+$1,$4,$5*
1,1,$1+$1,$6,$7*
1,1,$1+$1,$8,$9*
0 Add four rect primitives between the rounded corners*
20,1,$1+$1,$2,$3,$4,$5,0*
20,1,$1+$1,$4,$5,$6,$7,0*
20,1,$1+$1,$6,$7,$8,$9,0*
20,1,$1+$1,$8,$9,$2,$3,0*%
%AMFreePoly0*
4,1,9,3.862500,-0.866500,0.737500,-0.866500,0.737500,-0.450000,-0.737500,-0.450000,-0.737500,0.450000,0.737500,0.450000,0.737500,0.866500,3.862500,0.866500,3.862500,-0.866500,3.862500,-0.866500,$1*%
G04 Aperture macros list end*
%ADD10R,0.900000X1.300000*%
%ADD11FreePoly0,270.000000*%
%ADD12RoundRect,0.150000X-0.587500X-0.150000X0.587500X-0.150000X0.587500X0.150000X-0.587500X0.150000X0*%
%ADD13RoundRect,0.100000X-0.712500X-0.100000X0.712500X-0.100000X0.712500X0.100000X-0.712500X0.100000X0*%
%ADD14R,1.200000X1.200000*%
%ADD15R,1.500000X1.600000*%
%ADD16RoundRect,0.250000X-0.450000X0.350000X-0.450000X-0.350000X0.450000X-0.350000X0.450000X0.350000X0*%
%ADD17RoundRect,0.250000X-0.350000X-0.450000X0.350000X-0.450000X0.350000X0.450000X-0.350000X0.450000X0*%
%ADD18RoundRect,0.250000X0.350000X0.450000X-0.350000X0.450000X-0.350000X-0.450000X0.350000X-0.450000X0*%
%ADD19RoundRect,0.250000X-0.625000X0.400000X-0.625000X-0.400000X0.625000X-0.400000X0.625000X0.400000X0*%
%ADD20RoundRect,0.250000X0.450000X-0.350000X0.450000X0.350000X-0.450000X0.350000X-0.450000X-0.350000X0*%
%ADD21R,2.000000X1.500000*%
%ADD22R,2.000000X3.800000*%
%ADD23O,1.600000X2.500000*%
%ADD24O,3.500000X7.000000*%
%ADD25R,1.000000X3.000000*%
%ADD26C,0.800000*%
%ADD27C,6.400000*%
%ADD28RoundRect,0.250000X-0.475000X0.337500X-0.475000X-0.337500X0.475000X-0.337500X0.475000X0.337500X0*%
%ADD29RoundRect,0.237500X0.237500X-0.287500X0.237500X0.287500X-0.237500X0.287500X-0.237500X-0.287500X0*%
%ADD30RoundRect,0.250000X-0.300000X0.300000X-0.300000X-0.300000X0.300000X-0.300000X0.300000X0.300000X0*%
%ADD31RoundRect,0.250000X-0.800000X0.450000X-0.800000X-0.450000X0.800000X-0.450000X0.800000X0.450000X0*%
%ADD32RoundRect,0.250000X0.337500X0.475000X-0.337500X0.475000X-0.337500X-0.475000X0.337500X-0.475000X0*%
%ADD33RoundRect,0.250000X-0.337500X-0.475000X0.337500X-0.475000X0.337500X0.475000X-0.337500X0.475000X0*%
G04 APERTURE END LIST*
D10*
%TO.C,Q1*%
X86060000Y-77180000D03*
D11*
X84560000Y-77267500D03*
D10*
X83060000Y-77180000D03*
%TD*%
D12*
%TO.C,U3*%
X100205000Y-75390000D03*
X100205000Y-77290000D03*
X102080000Y-76340000D03*
%TD*%
D13*
%TO.C,U2*%
X90347500Y-81285000D03*
X90347500Y-81935000D03*
X90347500Y-82585000D03*
X90347500Y-83235000D03*
X94572500Y-83235000D03*
X94572500Y-82585000D03*
X94572500Y-81935000D03*
X94572500Y-81285000D03*
%TD*%
%TO.C,U1*%
X89987500Y-72145000D03*
X89987500Y-72795000D03*
X89987500Y-73445000D03*
X89987500Y-74095000D03*
X94212500Y-74095000D03*
X94212500Y-73445000D03*
X94212500Y-72795000D03*
X94212500Y-72145000D03*
%TD*%
D14*
%TO.C,RV3*%
X92720000Y-94140000D03*
D15*
X95970000Y-95140000D03*
D14*
X92720000Y-96140000D03*
%TD*%
%TO.C,RV2*%
X99000000Y-94230000D03*
D15*
X102250000Y-95230000D03*
D14*
X99000000Y-96230000D03*
%TD*%
%TO.C,RV1*%
X105180000Y-94220000D03*
D15*
X108430000Y-95220000D03*
D14*
X105180000Y-96220000D03*
%TD*%
D16*
%TO.C,R13*%
X90140000Y-100070000D03*
X90140000Y-102070000D03*
%TD*%
%TO.C,R12*%
X104080000Y-102630000D03*
X104080000Y-104630000D03*
%TD*%
D17*
%TO.C,R11*%
X101440000Y-73340000D03*
X103440000Y-73340000D03*
%TD*%
D16*
%TO.C,R10*%
X90180000Y-95840000D03*
X90180000Y-97840000D03*
%TD*%
D17*
%TO.C,R9*%
X83680000Y-92370000D03*
X85680000Y-92370000D03*
%TD*%
D18*
%TO.C,R8*%
X99060000Y-98740000D03*
X97060000Y-98740000D03*
%TD*%
D17*
%TO.C,R7*%
X83680000Y-90030000D03*
X85680000Y-90030000D03*
%TD*%
D16*
%TO.C,R6*%
X80360000Y-78450000D03*
X80360000Y-80450000D03*
%TD*%
D19*
%TO.C,R5*%
X84550000Y-71320000D03*
X84550000Y-74420000D03*
%TD*%
D20*
%TO.C,R4*%
X78230000Y-71770000D03*
X78230000Y-69770000D03*
%TD*%
D16*
%TO.C,R3*%
X106330000Y-98520000D03*
X106330000Y-100520000D03*
%TD*%
D20*
%TO.C,R2*%
X104100000Y-100530000D03*
X104100000Y-98530000D03*
%TD*%
D16*
%TO.C,R1*%
X87520000Y-72190000D03*
X87520000Y-74190000D03*
%TD*%
D21*
%TO.C,Q2*%
X76290000Y-80060000D03*
D22*
X69990000Y-77760000D03*
D21*
X76290000Y-77760000D03*
X76290000Y-75460000D03*
%TD*%
D23*
%TO.C,J2*%
X83930000Y-144960000D03*
D24*
X78850000Y-150040000D03*
X89010000Y-150040000D03*
D23*
X86470000Y-144960000D03*
%TD*%
D25*
%TO.C,J1*%
X108230000Y-82355000D03*
X108230000Y-87395000D03*
X110770000Y-82355000D03*
X110770000Y-87395000D03*
%TD*%
D26*
%TO.C,H5*%
X102250000Y-132050000D03*
X103947056Y-136147056D03*
X103947056Y-132752944D03*
X104650000Y-134450000D03*
D27*
X102250000Y-134450000D03*
D26*
X102250000Y-136850000D03*
X100552944Y-132752944D03*
X100552944Y-136147056D03*
X99850000Y-134450000D03*
%TD*%
%TO.C,H4*%
X114240000Y-132050000D03*
X115937056Y-136147056D03*
X115937056Y-132752944D03*
X116640000Y-134450000D03*
D27*
X114240000Y-134450000D03*
D26*
X114240000Y-136850000D03*
X112542944Y-132752944D03*
X112542944Y-136147056D03*
X111840000Y-134450000D03*
%TD*%
%TO.C,H3*%
X70970000Y-57900000D03*
X71672944Y-59597056D03*
X71672944Y-56202944D03*
X73370000Y-60300000D03*
D27*
X73370000Y-57900000D03*
D26*
X75770000Y-57900000D03*
X75067056Y-56202944D03*
X75067056Y-59597056D03*
X73370000Y-55500000D03*
%TD*%
%TO.C,H2*%
X89260000Y-57900000D03*
X89962944Y-59597056D03*
X89962944Y-56202944D03*
X91660000Y-60300000D03*
D27*
X91660000Y-57900000D03*
D26*
X94060000Y-57900000D03*
X93357056Y-56202944D03*
X93357056Y-59597056D03*
X91660000Y-55500000D03*
%TD*%
%TO.C,H1*%
X109950000Y-55500000D03*
X111647056Y-59597056D03*
X111647056Y-56202944D03*
X112350000Y-57900000D03*
D27*
X109950000Y-57900000D03*
D26*
X109950000Y-60300000D03*
X108252944Y-56202944D03*
X108252944Y-59597056D03*
X107550000Y-57900000D03*
%TD*%
D28*
%TO.C,FB2*%
X81170000Y-63195000D03*
X81170000Y-65270000D03*
%TD*%
%TO.C,FB1*%
X83570000Y-63222500D03*
X83570000Y-65297500D03*
%TD*%
D29*
%TO.C,D4*%
X67300000Y-134582500D03*
X67300000Y-132832500D03*
%TD*%
%TO.C,D3*%
X64730000Y-134582500D03*
X64730000Y-132832500D03*
%TD*%
D30*
%TO.C,D2*%
X78140000Y-83432500D03*
X78140000Y-86232500D03*
%TD*%
D31*
%TO.C,D1*%
X81170000Y-68252500D03*
X81170000Y-72652500D03*
%TD*%
D32*
%TO.C,C9*%
X95147500Y-79250000D03*
X93072500Y-79250000D03*
%TD*%
D33*
%TO.C,C8*%
X89512500Y-85320000D03*
X91587500Y-85320000D03*
%TD*%
D28*
%TO.C,C7*%
X104430000Y-75332500D03*
X104430000Y-77407500D03*
%TD*%
D33*
%TO.C,C6*%
X98332500Y-81340000D03*
X100407500Y-81340000D03*
%TD*%
D28*
%TO.C,C5*%
X93620000Y-98342500D03*
X93620000Y-100417500D03*
%TD*%
%TO.C,C4*%
X101760000Y-98442500D03*
X101760000Y-100517500D03*
%TD*%
%TO.C,C3*%
X108650000Y-98482500D03*
X108650000Y-100557500D03*
%TD*%
D32*
%TO.C,C2*%
X94407500Y-76110000D03*
X92332500Y-76110000D03*
%TD*%
%TO.C,C1*%
X94167500Y-70230000D03*
X92092500Y-70230000D03*
%TD*%
M02*
