M48
; DRILL file {KiCad 7.0.5} date Mon Sep  4 17:02:03 2023
; FORMAT={-:-/ absolute / inch / decimal}
; #@! TF.CreationDate,2023-09-04T17:02:03+02:00
; #@! TF.GenerationSoftware,Kicad,Pcbnew,7.0.5
; #@! TF.FileFunction,Plated,1,2,PTH
FMAT,2
INCH
; #@! TA.AperFunction,Plated,PTH,ViaDrill
T1C0.0157
; #@! TA.AperFunction,Plated,PTH,ComponentDrill
T2C0.0197
; #@! TA.AperFunction,Plated,PTH,ComponentDrill
T3C0.0350
; #@! TA.AperFunction,Plated,PTH,ComponentDrill
T4C0.0791
; #@! TA.AperFunction,Plated,PTH,ComponentDrill
T5C0.1260
%
G90
G05
T1
X2.2283Y-1.9003
X2.2283Y-2.0004
X2.2283Y-2.1005
X2.2283Y-2.2007
X2.2283Y-2.3008
X2.2283Y-2.4009
X2.2283Y-2.501
X2.2283Y-2.6011
X2.2283Y-2.7012
X2.2283Y-2.8013
X2.2283Y-2.9014
X2.2283Y-3.0015
X2.2283Y-3.1017
X2.2283Y-3.2018
X2.2283Y-3.3019
X2.2283Y-3.402
X2.2283Y-3.5021
X2.2283Y-3.6022
X2.2283Y-3.7023
X2.2283Y-3.8024
X2.2283Y-3.9025
X2.2283Y-4.0026
X2.2283Y-4.1028
X2.2283Y-4.2029
X2.2283Y-4.303
X2.2283Y-4.4031
X2.2283Y-4.5032
X2.2283Y-4.6033
X2.2283Y-4.7034
X2.2283Y-4.8035
X2.2283Y-4.9036
X2.2283Y-5.0038
X2.2283Y-5.1039
X2.2283Y-5.204
X2.2283Y-5.3041
X2.2283Y-5.4042
X2.2283Y-5.5043
X2.2283Y-5.6044
X2.2283Y-5.7045
X2.2283Y-5.8046
X2.2283Y-5.9047
X2.2283Y-6.0049
X2.2474Y-1.8032
X2.2526Y-6.1005
X2.3164Y-1.7334
X2.3231Y-6.1687
X2.4118Y-1.7075
X2.4198Y-6.1894
X2.5119Y-1.7074
X2.5199Y-6.1893
X2.612Y-1.7074
X2.62Y-6.1893
X2.6512Y-5.1343
X2.7121Y-1.7074
X2.7201Y-6.1893
X2.8123Y-1.7073
X2.8202Y-6.1892
X2.9124Y-1.7073
X2.9203Y-6.1892
X3.0125Y-1.7073
X3.0205Y-6.1892
X3.0772Y-2.9713
X3.0854Y-2.6701
X3.0969Y-3.165
X3.1079Y-3.0138
X3.1126Y-1.7073
X3.1206Y-6.1891
X3.2127Y-1.7072
X3.2207Y-6.1891
X3.261Y-3.7937
X3.272Y-4.002
X3.2799Y-2.6811
X3.3128Y-1.7072
X3.3208Y-6.1891
X3.3413Y-3.7937
X3.3528Y-5.039
X3.3807Y-2.8543
X3.3858Y-2.9835
X3.3874Y-2.9114
X3.4035Y-5.1433
X3.4129Y-1.7072
X3.4209Y-6.189
X3.4776Y-3.0349
X3.5071Y-2.9626
X3.511Y-2.802
X3.513Y-1.7071
X3.521Y-6.189
X3.5594Y-3.1465
X3.6131Y-1.7071
X3.6211Y-6.189
X3.6724Y-3.3276
X3.7043Y-2.6992
X3.7133Y-1.7071
X3.7212Y-6.189
X3.772Y-3.0067
X3.7917Y-3.226
X3.8047Y-2.9173
X3.8066Y-3.2959
X3.8087Y-3.1209
X3.8134Y-1.707
X3.8213Y-6.1889
X3.8272Y-3.7236
X3.8437Y-2.8858
X3.9135Y-1.707
X3.9214Y-6.1889
X3.9291Y-2.9102
X4.0136Y-1.707
X4.0197Y-4.1102
X4.0216Y-6.1889
X4.0335Y-4.0528
X4.1137Y-1.7069
X4.1217Y-6.1888
X4.1783Y-3.0075
X4.189Y-4.0803
X4.2138Y-1.7069
X4.2218Y-6.1888
X4.2335Y-4.0709
X4.3139Y-1.7069
X4.3219Y-6.1888
X4.3543Y-3.5516
X4.3551Y-3.7551
X4.414Y-1.7068
X4.422Y-6.1887
X4.5141Y-1.7068
X4.5221Y-6.1887
X4.6142Y-1.7068
X4.6222Y-6.1887
X4.7144Y-1.7067
X4.7223Y-6.1886
X4.8145Y-1.7067
X4.8224Y-6.1886
X4.9145Y-1.7091
X4.9221Y-6.1831
X5.0016Y-1.756
X5.0063Y-6.1323
X5.0499Y-1.842
X5.0526Y-6.046
X5.0559Y-1.9417
X5.0559Y-2.0418
X5.0559Y-2.1419
X5.0559Y-2.242
X5.0559Y-2.3421
X5.0559Y-2.4422
X5.0559Y-2.5423
X5.0559Y-2.6424
X5.0559Y-2.7426
X5.0559Y-2.8427
X5.0559Y-2.9428
X5.0559Y-3.0429
X5.0559Y-3.143
X5.0559Y-3.2431
X5.0559Y-3.3432
X5.0559Y-3.4433
X5.0559Y-3.5434
X5.0559Y-3.6436
X5.0559Y-3.7437
X5.0559Y-3.8438
X5.0559Y-3.9439
X5.0559Y-4.044
X5.0559Y-4.1441
X5.0559Y-4.2442
X5.0559Y-4.3443
X5.0559Y-4.4444
X5.0559Y-4.5445
X5.0559Y-4.6447
X5.0559Y-4.7448
X5.0559Y-4.8449
X5.0559Y-4.945
X5.0559Y-5.0451
X5.0559Y-5.1452
X5.0559Y-5.2453
X5.0559Y-5.3454
X5.0559Y-5.4455
X5.0559Y-5.5456
X5.0559Y-5.6458
X5.0559Y-5.7459
X5.0559Y-5.846
X5.0559Y-5.9461
T2
X2.7941Y-2.2795
X2.8218Y-2.2127
X2.8218Y-2.3463
X2.8886Y-2.185
X2.8886Y-2.374
X2.9554Y-2.2127
X2.9554Y-2.3463
X2.9831Y-2.2795
X3.5142Y-2.2795
X3.5418Y-2.2127
X3.5418Y-2.3463
X3.6087Y-2.185
X3.6087Y-2.374
X3.6755Y-2.2127
X3.6755Y-2.3463
X3.7031Y-2.2795
X3.9311Y-5.2933
X3.9588Y-5.2265
X3.9588Y-5.3601
X4.0256Y-5.1988
X4.0256Y-5.3878
X4.0924Y-5.2265
X4.0924Y-5.3601
X4.1201Y-5.2933
X4.2343Y-2.2795
X4.2619Y-2.2127
X4.2619Y-2.3463
X4.3287Y-2.185
X4.3287Y-2.374
X4.3956Y-2.2127
X4.3956Y-2.3463
X4.4031Y-5.2933
X4.4232Y-2.2795
X4.4308Y-5.2265
X4.4308Y-5.3601
X4.4976Y-5.1988
X4.4976Y-5.3878
X4.5645Y-5.2265
X4.5645Y-5.3601
X4.5921Y-5.2933
T3
X3.3043Y-5.7071
X3.4043Y-5.7071
T4
X3.1043Y-5.9071
X3.5043Y-5.9071
T5
X2.8886Y-2.2795
X3.6087Y-2.2795
X4.0256Y-5.2933
X4.3287Y-2.2795
X4.4976Y-5.2933
T0
M30
