%TF.GenerationSoftware,KiCad,Pcbnew,7.0.5*%
%TF.CreationDate,2023-09-04T17:01:56+02:00*%
%TF.ProjectId,mABoard,6d41426f-6172-4642-9e6b-696361645f70,rev?*%
%TF.SameCoordinates,Original*%
%TF.FileFunction,Copper,L2,Bot*%
%TF.FilePolarity,Positive*%
%FSLAX46Y46*%
G04 Gerber Fmt 4.6, Leading zero omitted, Abs format (unit mm)*
G04 Created by KiCad (PCBNEW 7.0.5) date 2023-09-04 17:01:56*
%MOMM*%
%LPD*%
G01*
G04 APERTURE LIST*
%TA.AperFunction,ComponentPad*%
%ADD10O,1.600000X2.500000*%
%TD*%
%TA.AperFunction,ComponentPad*%
%ADD11O,3.500000X7.000000*%
%TD*%
%TA.AperFunction,ComponentPad*%
%ADD12C,0.800000*%
%TD*%
%TA.AperFunction,ComponentPad*%
%ADD13C,6.400000*%
%TD*%
%TA.AperFunction,ViaPad*%
%ADD14C,0.800000*%
%TD*%
%TA.AperFunction,Conductor*%
%ADD15C,0.250000*%
%TD*%
%TA.AperFunction,Conductor*%
%ADD16C,0.200000*%
%TD*%
G04 APERTURE END LIST*
D10*
%TO.P,J2,1,In*%
%TO.N,IOUT*%
X83930000Y-144960000D03*
D11*
%TO.P,J2,2,Ext*%
%TO.N,GND*%
X78850000Y-150040000D03*
X89010000Y-150040000D03*
D10*
X86470000Y-144960000D03*
%TD*%
D12*
%TO.P,H5,1,1*%
%TO.N,VOUT*%
X102250000Y-132050000D03*
X103947056Y-136147056D03*
X103947056Y-132752944D03*
X104650000Y-134450000D03*
D13*
X102250000Y-134450000D03*
D12*
X102250000Y-136850000D03*
X100552944Y-132752944D03*
X100552944Y-136147056D03*
X99850000Y-134450000D03*
%TD*%
%TO.P,H4,1,1*%
%TO.N,GND*%
X114240000Y-132050000D03*
X115937056Y-136147056D03*
X115937056Y-132752944D03*
X116640000Y-134450000D03*
D13*
X114240000Y-134450000D03*
D12*
X114240000Y-136850000D03*
X112542944Y-132752944D03*
X112542944Y-136147056D03*
X111840000Y-134450000D03*
%TD*%
%TO.P,H3,1,1*%
%TO.N,Net-(FB2-Pad1)*%
X70970000Y-57900000D03*
X71672944Y-59597056D03*
X71672944Y-56202944D03*
X73370000Y-60300000D03*
D13*
X73370000Y-57900000D03*
D12*
X75770000Y-57900000D03*
X75067056Y-56202944D03*
X75067056Y-59597056D03*
X73370000Y-55500000D03*
%TD*%
%TO.P,H2,1,1*%
%TO.N,Net-(FB1-Pad1)*%
X89260000Y-57900000D03*
X89962944Y-59597056D03*
X89962944Y-56202944D03*
X91660000Y-60300000D03*
D13*
X91660000Y-57900000D03*
D12*
X94060000Y-57900000D03*
X93357056Y-56202944D03*
X93357056Y-59597056D03*
X91660000Y-55500000D03*
%TD*%
%TO.P,H1,1,1*%
%TO.N,-5V*%
X109950000Y-55500000D03*
X111647056Y-59597056D03*
X111647056Y-56202944D03*
X112350000Y-57900000D03*
D13*
X109950000Y-57900000D03*
D12*
X109950000Y-60300000D03*
X108252944Y-56202944D03*
X108252944Y-59597056D03*
X107550000Y-57900000D03*
%TD*%
D14*
%TO.N,Net-(U2B-+)*%
X106130000Y-76390000D03*
X96686630Y-83715391D03*
%TO.N,GND*%
X122287521Y-43350556D03*
X119744715Y-43351362D03*
X117201909Y-43352168D03*
X114659103Y-43352975D03*
X112116297Y-43353781D03*
X109573492Y-43354587D03*
X107030686Y-43355394D03*
X104487880Y-43356200D03*
X101945074Y-43357006D03*
X99402268Y-43357813D03*
X96859462Y-43358619D03*
X94316656Y-43359425D03*
X91773850Y-43360232D03*
X89231045Y-43361038D03*
X86688239Y-43361844D03*
X84145433Y-43362651D03*
X81602627Y-43363457D03*
X79059821Y-43364263D03*
X76517015Y-43365070D03*
X73974209Y-43365876D03*
X71431403Y-43366682D03*
X68888598Y-43367489D03*
X66345792Y-43368295D03*
X63802986Y-43369101D03*
X61260180Y-43369908D03*
X58835403Y-44027854D03*
X57084781Y-45802133D03*
X56600000Y-48268339D03*
X56600000Y-50811145D03*
X56600000Y-53353951D03*
X56600000Y-55896757D03*
X56600000Y-58439563D03*
X56600000Y-60982369D03*
X56600000Y-63525175D03*
X56600000Y-66067981D03*
X56600000Y-68610787D03*
X56600000Y-71153593D03*
X56600000Y-73696399D03*
X56600000Y-76239205D03*
X56600000Y-78782011D03*
X56600000Y-81324817D03*
X56600000Y-83867623D03*
X56600000Y-86410429D03*
X56600000Y-88953235D03*
X56600000Y-91496041D03*
X56600000Y-94038847D03*
X56600000Y-96581653D03*
X56600000Y-99124459D03*
X56600000Y-101667265D03*
X56600000Y-104210071D03*
X56600000Y-106752877D03*
X56600000Y-109295683D03*
X56600000Y-111838489D03*
X56600000Y-114381295D03*
X56600000Y-116924101D03*
X56600000Y-119466907D03*
X56600000Y-122009713D03*
X56600000Y-124552519D03*
X56600000Y-127095325D03*
X56600000Y-129638131D03*
X56600000Y-132180937D03*
X56600000Y-134723743D03*
X56600000Y-137266549D03*
X56600000Y-139809355D03*
X56600000Y-142352161D03*
X56600000Y-144894967D03*
X56600000Y-147437773D03*
X56600000Y-149980579D03*
X56600000Y-152523385D03*
X57215167Y-154951889D03*
X59006520Y-156684244D03*
X61462729Y-157209919D03*
X64005535Y-157209108D03*
X66548341Y-157208298D03*
X69091147Y-157207487D03*
X71633953Y-157206676D03*
X74176759Y-157205865D03*
X76719564Y-157205054D03*
X79262370Y-157204243D03*
X81805176Y-157203433D03*
X84347982Y-157202622D03*
X86890788Y-157201811D03*
X89433594Y-157201000D03*
X91976400Y-157200189D03*
X94519205Y-157199378D03*
X97062011Y-157198567D03*
X99604817Y-157197757D03*
X102147623Y-157196946D03*
X104690429Y-157196135D03*
X107233235Y-157195324D03*
X109776041Y-157194513D03*
X112318847Y-157193702D03*
X114861652Y-157192891D03*
X117404458Y-157192081D03*
X119947264Y-157191270D03*
X122490070Y-157190459D03*
X125020087Y-157051060D03*
X127159690Y-155759861D03*
X128336222Y-153567386D03*
X128420000Y-151030722D03*
X128420000Y-148487916D03*
X128420000Y-145945110D03*
X128420000Y-143402304D03*
X128420000Y-140859498D03*
X128420000Y-138316692D03*
X128420000Y-135773886D03*
X128420000Y-133231080D03*
X128420000Y-130688274D03*
X128420000Y-128145468D03*
X128420000Y-125602662D03*
X128420000Y-123059856D03*
X128420000Y-120517050D03*
X128420000Y-117974244D03*
X128420000Y-115431438D03*
X128420000Y-112888632D03*
X128420000Y-110345826D03*
X128420000Y-107803020D03*
X128420000Y-105260214D03*
X128420000Y-102717408D03*
X128420000Y-100174602D03*
X128420000Y-97631796D03*
X128420000Y-95088990D03*
X128420000Y-92546184D03*
X128420000Y-90003378D03*
X128420000Y-87460572D03*
X128420000Y-84917766D03*
X128420000Y-82374960D03*
X128420000Y-79832154D03*
X128420000Y-77289348D03*
X128420000Y-74746542D03*
X128420000Y-72203736D03*
X128420000Y-69660930D03*
X128420000Y-67118124D03*
X128420000Y-64575318D03*
X128420000Y-62032512D03*
X128420000Y-59489706D03*
X128420000Y-56946900D03*
X128420000Y-54404094D03*
X128420000Y-51861288D03*
X128420000Y-49318482D03*
X128266571Y-46787509D03*
X127041465Y-44601457D03*
X124828087Y-43411697D03*
%TO.N,-5V*%
X88332299Y-77087701D03*
X107530000Y-103400000D03*
%TO.N,+10V*%
X78370000Y-67820000D03*
X82830000Y-96360000D03*
X84870000Y-96360000D03*
X102450000Y-102940000D03*
%TO.N,-5V*%
X86450000Y-130640000D03*
X106400000Y-103640000D03*
%TO.N,Net-(D3-A)*%
X102100000Y-104400000D03*
X85160000Y-127990000D03*
%TO.N,Net-(D4-A)*%
X67340000Y-130410000D03*
X83110000Y-101650000D03*
%TO.N,IOUT*%
X97630000Y-73300000D03*
%TO.N,+10V*%
X99800000Y-73920000D03*
X96740000Y-79270000D03*
%TO.N,Net-(U2A-+)*%
X110620000Y-95380000D03*
X93280000Y-84520000D03*
%TO.N,Net-(J1-Pin_4)*%
X110600000Y-90210000D03*
X97210000Y-94580000D03*
%TO.N,Net-(Q1-B)*%
X96310000Y-81940000D03*
%TO.N,Net-(U1-Ref)*%
X90410000Y-79920000D03*
X96640000Y-74100000D03*
%TO.N,-5V*%
X95810000Y-76370000D03*
%TO.N,+10V*%
X94090000Y-68560000D03*
X83310000Y-68100000D03*
%TO.N,V-*%
X89180000Y-71170000D03*
X86040000Y-73950000D03*
%TO.N,V+*%
X85870000Y-72500000D03*
X89080000Y-75250000D03*
%TO.N,Net-(Q1-B)*%
X86000000Y-75780000D03*
X78940000Y-76550000D03*
%TO.N,VOUT*%
X78660000Y-80390000D03*
X78160000Y-75470000D03*
%TD*%
D15*
%TO.N,Net-(U2B-+)*%
X104012021Y-76390000D02*
X106130000Y-76390000D01*
X96686630Y-83715391D02*
X104012021Y-76390000D01*
%TO.N,-5V*%
X88332299Y-77087701D02*
X95092299Y-77087701D01*
X95092299Y-77087701D02*
X95810000Y-76370000D01*
X112530000Y-98400000D02*
X112530000Y-60480000D01*
X112530000Y-60480000D02*
X109950000Y-57900000D01*
X107530000Y-103400000D02*
X112530000Y-98400000D01*
%TO.N,+10V*%
X77435000Y-68755000D02*
X78370000Y-67820000D01*
X77435000Y-90965000D02*
X77435000Y-68755000D01*
X82830000Y-96360000D02*
X77435000Y-90965000D01*
X95870000Y-96360000D02*
X84870000Y-96360000D01*
X102450000Y-102940000D02*
X95870000Y-96360000D01*
%TO.N,-5V*%
X106400000Y-110690000D02*
X106400000Y-103640000D01*
X86450000Y-130640000D02*
X106400000Y-110690000D01*
%TO.N,Net-(D3-A)*%
X85160000Y-120110000D02*
X85160000Y-127990000D01*
X100870000Y-104400000D02*
X85160000Y-120110000D01*
X102100000Y-104400000D02*
X100870000Y-104400000D01*
%TO.N,Net-(D4-A)*%
X82930000Y-101650000D02*
X69320000Y-115260000D01*
X69320000Y-115260000D02*
X67340000Y-117240000D01*
X83110000Y-101650000D02*
X82930000Y-101650000D01*
X67340000Y-117240000D02*
X67340000Y-130410000D01*
%TO.N,IOUT*%
X83930000Y-91790000D02*
X83930000Y-144960000D01*
X92670000Y-83050000D02*
X83930000Y-91790000D01*
X96400000Y-83050000D02*
X92670000Y-83050000D01*
X97035000Y-82415000D02*
X96400000Y-83050000D01*
X97035000Y-81115000D02*
X97035000Y-82415000D01*
X96960000Y-81040000D02*
X97035000Y-81115000D01*
X96960000Y-81010000D02*
X96960000Y-81040000D01*
X95450000Y-79030000D02*
X95450000Y-79500000D01*
X97630000Y-76850000D02*
X95450000Y-79030000D01*
X97630000Y-73300000D02*
X97630000Y-76850000D01*
X95450000Y-79500000D02*
X96960000Y-81010000D01*
%TO.N,+10V*%
X99800000Y-76210000D02*
X96740000Y-79270000D01*
X99800000Y-73920000D02*
X99800000Y-76210000D01*
%TO.N,Net-(U2A-+)*%
X110660000Y-95380000D02*
X110620000Y-95380000D01*
X112080000Y-93970000D02*
X112070000Y-93970000D01*
X106380000Y-84520000D02*
X112080000Y-90220000D01*
X93280000Y-84520000D02*
X106380000Y-84520000D01*
X112080000Y-90220000D02*
X112080000Y-93970000D01*
X112070000Y-93970000D02*
X110660000Y-95380000D01*
%TO.N,Net-(J1-Pin_4)*%
X109700000Y-91110000D02*
X110600000Y-90210000D01*
X109400000Y-91110000D02*
X109700000Y-91110000D01*
X98490000Y-92380000D02*
X99760000Y-91110000D01*
X99760000Y-91110000D02*
X109400000Y-91110000D01*
X97210000Y-93660000D02*
X98490000Y-92380000D01*
X97210000Y-94580000D02*
X97210000Y-93660000D01*
%TO.N,Net-(Q1-B)*%
X91130000Y-81940000D02*
X96310000Y-81940000D01*
X89110000Y-79920000D02*
X91130000Y-81940000D01*
X86000000Y-75780000D02*
X89110000Y-78890000D01*
X89110000Y-78890000D02*
X89110000Y-79920000D01*
%TO.N,Net-(U1-Ref)*%
X93285305Y-79920000D02*
X90410000Y-79920000D01*
X96640000Y-74100000D02*
X96640000Y-76565305D01*
X96640000Y-76565305D02*
X93285305Y-79920000D01*
%TO.N,-5V*%
X95810000Y-72040000D02*
X95810000Y-76370000D01*
X109950000Y-57900000D02*
X95810000Y-72040000D01*
%TO.N,+10V*%
X94090000Y-68560000D02*
X93630000Y-68100000D01*
X93630000Y-68100000D02*
X83310000Y-68100000D01*
D16*
%TO.N,V-*%
X85170000Y-73080000D02*
X86040000Y-73950000D01*
X85170000Y-72210050D02*
X85170000Y-73080000D01*
X86210050Y-71170000D02*
X85170000Y-72210050D01*
X89180000Y-71170000D02*
X86210050Y-71170000D01*
%TO.N,V+*%
X88620000Y-75250000D02*
X85870000Y-72500000D01*
X89080000Y-75250000D02*
X88620000Y-75250000D01*
D15*
%TO.N,Net-(Q1-B)*%
X85230000Y-76550000D02*
X86000000Y-75780000D01*
X78940000Y-76550000D02*
X85230000Y-76550000D01*
%TO.N,VOUT*%
X78160000Y-79890000D02*
X78660000Y-80390000D01*
X78160000Y-75470000D02*
X78160000Y-79890000D01*
%TD*%
%TA.AperFunction,Conductor*%
%TO.N,GND*%
G36*
X116096420Y-135952867D02*
G01*
X116034601Y-135911561D01*
X115961680Y-135897056D01*
X115912432Y-135897056D01*
X115839511Y-135911561D01*
X115756816Y-135966816D01*
X115701561Y-136049511D01*
X115682158Y-136147056D01*
X115701561Y-136244601D01*
X115742867Y-136306420D01*
X115184180Y-135747733D01*
X115374870Y-135584870D01*
X115537733Y-135394180D01*
X116096420Y-135952867D01*
G37*
%TD.AperFunction*%
%TA.AperFunction,Conductor*%
G36*
X113105130Y-135584870D02*
G01*
X113295819Y-135747733D01*
X112737135Y-136306416D01*
X112778439Y-136244601D01*
X112797842Y-136147056D01*
X112778439Y-136049511D01*
X112723184Y-135966816D01*
X112640489Y-135911561D01*
X112567568Y-135897056D01*
X112518320Y-135897056D01*
X112445399Y-135911561D01*
X112383577Y-135952868D01*
X112942266Y-135394180D01*
X113105130Y-135584870D01*
G37*
%TD.AperFunction*%
%TA.AperFunction,Conductor*%
G36*
X113295819Y-133152266D02*
G01*
X113105130Y-133315130D01*
X112942266Y-133505819D01*
X112383581Y-132947133D01*
X112445399Y-132988439D01*
X112518320Y-133002944D01*
X112567568Y-133002944D01*
X112640489Y-132988439D01*
X112723184Y-132933184D01*
X112778439Y-132850489D01*
X112797842Y-132752944D01*
X112778439Y-132655399D01*
X112737133Y-132593581D01*
X113295819Y-133152266D01*
G37*
%TD.AperFunction*%
%TA.AperFunction,Conductor*%
G36*
X115701561Y-132655399D02*
G01*
X115682158Y-132752944D01*
X115701561Y-132850489D01*
X115756816Y-132933184D01*
X115839511Y-132988439D01*
X115912432Y-133002944D01*
X115961680Y-133002944D01*
X116034601Y-132988439D01*
X116096415Y-132947135D01*
X115537732Y-133505818D01*
X115374870Y-133315130D01*
X115184180Y-133152266D01*
X115742867Y-132593578D01*
X115701561Y-132655399D01*
G37*
%TD.AperFunction*%
%TA.AperFunction,Conductor*%
G36*
X124001279Y-42790552D02*
G01*
X124217340Y-42799489D01*
X124415936Y-42808160D01*
X124420863Y-42808574D01*
X124636814Y-42835492D01*
X124834704Y-42861545D01*
X124837265Y-42861883D01*
X124841894Y-42862671D01*
X125054230Y-42907193D01*
X125252525Y-42951155D01*
X125256784Y-42952259D01*
X125464529Y-43014108D01*
X125503425Y-43026372D01*
X125506763Y-43027530D01*
X125986766Y-43209721D01*
X126063198Y-43238732D01*
X126068428Y-43240997D01*
X126250350Y-43329933D01*
X126251660Y-43330595D01*
X126432023Y-43424486D01*
X126435107Y-43426207D01*
X126543221Y-43490628D01*
X126620611Y-43536742D01*
X126622127Y-43537676D01*
X126708578Y-43592752D01*
X126793663Y-43646958D01*
X126796377Y-43648789D01*
X126891730Y-43716870D01*
X126972053Y-43774219D01*
X126973769Y-43775490D01*
X127135117Y-43899297D01*
X127137426Y-43901159D01*
X127302150Y-44040673D01*
X127303956Y-44042264D01*
X127453905Y-44179667D01*
X127455827Y-44181506D01*
X127608491Y-44334170D01*
X127610328Y-44336089D01*
X127747725Y-44486032D01*
X127749325Y-44487848D01*
X127888841Y-44652574D01*
X127890718Y-44654902D01*
X127932039Y-44708753D01*
X127934525Y-44712236D01*
X128374055Y-45375133D01*
X128377378Y-45380770D01*
X128459397Y-45538326D01*
X128460102Y-45539724D01*
X128546870Y-45717209D01*
X128549817Y-45724324D01*
X128836435Y-46559613D01*
X128841682Y-46580845D01*
X128987997Y-47523769D01*
X128988672Y-47530576D01*
X128990526Y-47573040D01*
X128999447Y-47788718D01*
X128999500Y-47791280D01*
X128999500Y-152788719D01*
X128999447Y-152791281D01*
X128990519Y-153007129D01*
X128981839Y-153205918D01*
X128981422Y-153210884D01*
X128954515Y-153426745D01*
X128928116Y-153627262D01*
X128927327Y-153631894D01*
X128882825Y-153844137D01*
X128844391Y-154017505D01*
X128835643Y-154053540D01*
X128834815Y-154056606D01*
X128775904Y-154254483D01*
X128714683Y-154448654D01*
X128713311Y-154452549D01*
X128634771Y-154653828D01*
X128634293Y-154655017D01*
X128571007Y-154807804D01*
X128568391Y-154813332D01*
X128226332Y-155452591D01*
X128223955Y-155456655D01*
X128143036Y-155583670D01*
X128141205Y-155586384D01*
X128022071Y-155753241D01*
X128007829Y-155769863D01*
X126889679Y-156862792D01*
X126875058Y-156875033D01*
X126796395Y-156931198D01*
X126793680Y-156933030D01*
X126661763Y-157017070D01*
X126642688Y-157027011D01*
X125135311Y-157652881D01*
X125114600Y-157659421D01*
X125054111Y-157672831D01*
X124980595Y-157688245D01*
X124973822Y-157689279D01*
X123938151Y-157789213D01*
X123932193Y-157789500D01*
X61001280Y-157789500D01*
X60998719Y-157789447D01*
X60991843Y-157789162D01*
X60782759Y-157780514D01*
X60584082Y-157771839D01*
X60579116Y-157771422D01*
X60515524Y-157763495D01*
X60508880Y-157762297D01*
X59218455Y-157456235D01*
X59210216Y-157453664D01*
X59174313Y-157439655D01*
X59136143Y-157424761D01*
X59135030Y-157424314D01*
X59115753Y-157416329D01*
X59071899Y-157398163D01*
X59066524Y-157395628D01*
X58259375Y-156966604D01*
X58255160Y-156964146D01*
X58206333Y-156933039D01*
X58203619Y-156931208D01*
X58124941Y-156875033D01*
X58027940Y-156805775D01*
X58026242Y-156804518D01*
X57912761Y-156717441D01*
X57899394Y-156705559D01*
X56998762Y-155780364D01*
X56994004Y-155774865D01*
X56985486Y-155763763D01*
X56984218Y-155762051D01*
X56903497Y-155648994D01*
X56899020Y-155641711D01*
X56317913Y-154531536D01*
X56315082Y-154525316D01*
X56314863Y-154524757D01*
X56286676Y-154452517D01*
X56285319Y-154448665D01*
X56243867Y-154317198D01*
X56242386Y-154311600D01*
X56070720Y-153513350D01*
X56069653Y-153506583D01*
X56003123Y-152850795D01*
X56002863Y-152847137D01*
X56000550Y-152791231D01*
X56000500Y-152788769D01*
X56000500Y-151865236D01*
X76600000Y-151865236D01*
X76615084Y-152090564D01*
X76615086Y-152090573D01*
X76675083Y-152385758D01*
X76675087Y-152385773D01*
X76773901Y-152670343D01*
X76773903Y-152670346D01*
X76909759Y-152939198D01*
X77080254Y-153187564D01*
X77282314Y-153410971D01*
X77512361Y-153605464D01*
X77766271Y-153767554D01*
X77766273Y-153767555D01*
X78039514Y-153894351D01*
X78039528Y-153894356D01*
X78327234Y-153983605D01*
X78600000Y-154029614D01*
X78600000Y-151014625D01*
X78747801Y-151045000D01*
X78900967Y-151045000D01*
X79053348Y-151029504D01*
X79100000Y-151014867D01*
X79100000Y-154026207D01*
X79225076Y-154013624D01*
X79225079Y-154013623D01*
X79518107Y-153943791D01*
X79518116Y-153943789D01*
X79799216Y-153835525D01*
X79799231Y-153835518D01*
X80063395Y-153690751D01*
X80063401Y-153690747D01*
X80305911Y-153512064D01*
X80522451Y-153302644D01*
X80522457Y-153302637D01*
X80709145Y-153066231D01*
X80862657Y-152807051D01*
X80862666Y-152807033D01*
X80980260Y-152529716D01*
X80980265Y-152529699D01*
X81059848Y-152239173D01*
X81100000Y-151940616D01*
X81100000Y-151865236D01*
X86760000Y-151865236D01*
X86775084Y-152090564D01*
X86775086Y-152090573D01*
X86835083Y-152385758D01*
X86835087Y-152385773D01*
X86933901Y-152670343D01*
X86933903Y-152670346D01*
X87069759Y-152939198D01*
X87240254Y-153187564D01*
X87442314Y-153410971D01*
X87672361Y-153605464D01*
X87926271Y-153767554D01*
X87926273Y-153767555D01*
X88199514Y-153894351D01*
X88199528Y-153894356D01*
X88487234Y-153983605D01*
X88760000Y-154029614D01*
X88760000Y-151014625D01*
X88907801Y-151045000D01*
X89060967Y-151045000D01*
X89213348Y-151029504D01*
X89260000Y-151014867D01*
X89260000Y-154026207D01*
X89385076Y-154013624D01*
X89385079Y-154013623D01*
X89678107Y-153943791D01*
X89678116Y-153943789D01*
X89959216Y-153835525D01*
X89959231Y-153835518D01*
X90223395Y-153690751D01*
X90223401Y-153690747D01*
X90465911Y-153512064D01*
X90682451Y-153302644D01*
X90682457Y-153302637D01*
X90869145Y-153066231D01*
X91022657Y-152807051D01*
X91022666Y-152807033D01*
X91140260Y-152529716D01*
X91140265Y-152529699D01*
X91219848Y-152239173D01*
X91260000Y-151940616D01*
X91260000Y-150290000D01*
X89983411Y-150290000D01*
X90008534Y-150192970D01*
X90018886Y-149988835D01*
X89988426Y-149790000D01*
X91260000Y-149790000D01*
X91260000Y-148214763D01*
X91244915Y-147989435D01*
X91244913Y-147989426D01*
X91184916Y-147694241D01*
X91184912Y-147694226D01*
X91086098Y-147409656D01*
X91086096Y-147409653D01*
X90950240Y-147140801D01*
X90779745Y-146892435D01*
X90577685Y-146669028D01*
X90347638Y-146474535D01*
X90093728Y-146312445D01*
X90093726Y-146312444D01*
X89820485Y-146185648D01*
X89820471Y-146185643D01*
X89532765Y-146096394D01*
X89260000Y-146050384D01*
X89260000Y-149065374D01*
X89112199Y-149035000D01*
X88959033Y-149035000D01*
X88806652Y-149050496D01*
X88760000Y-149065132D01*
X88760000Y-146053792D01*
X88634922Y-146066375D01*
X88634920Y-146066376D01*
X88341892Y-146136208D01*
X88341883Y-146136210D01*
X88060783Y-146244474D01*
X88060768Y-146244481D01*
X87796604Y-146389248D01*
X87796598Y-146389252D01*
X87554088Y-146567935D01*
X87337548Y-146777355D01*
X87337542Y-146777362D01*
X87150854Y-147013768D01*
X86997342Y-147272948D01*
X86997333Y-147272966D01*
X86879739Y-147550283D01*
X86879734Y-147550300D01*
X86800151Y-147840826D01*
X86760000Y-148139383D01*
X86760000Y-149790000D01*
X88036589Y-149790000D01*
X88011466Y-149887030D01*
X88001114Y-150091165D01*
X88031574Y-150290000D01*
X86760000Y-150290000D01*
X86760000Y-151865236D01*
X81100000Y-151865236D01*
X81100000Y-150290000D01*
X79823411Y-150290000D01*
X79848534Y-150192970D01*
X79858886Y-149988835D01*
X79828426Y-149790000D01*
X81100000Y-149790000D01*
X81100000Y-148214763D01*
X81084915Y-147989435D01*
X81084913Y-147989426D01*
X81024916Y-147694241D01*
X81024912Y-147694226D01*
X80926098Y-147409656D01*
X80926096Y-147409653D01*
X80790240Y-147140801D01*
X80619745Y-146892435D01*
X80417685Y-146669028D01*
X80187638Y-146474535D01*
X79933728Y-146312445D01*
X79933726Y-146312444D01*
X79660485Y-146185648D01*
X79660471Y-146185643D01*
X79372765Y-146096394D01*
X79100000Y-146050384D01*
X79100000Y-149065374D01*
X78952199Y-149035000D01*
X78799033Y-149035000D01*
X78646652Y-149050496D01*
X78600000Y-149065132D01*
X78600000Y-146053792D01*
X78474922Y-146066375D01*
X78474920Y-146066376D01*
X78181892Y-146136208D01*
X78181883Y-146136210D01*
X77900783Y-146244474D01*
X77900768Y-146244481D01*
X77636604Y-146389248D01*
X77636598Y-146389252D01*
X77394088Y-146567935D01*
X77177548Y-146777355D01*
X77177542Y-146777362D01*
X76990854Y-147013768D01*
X76837342Y-147272948D01*
X76837333Y-147272966D01*
X76719739Y-147550283D01*
X76719734Y-147550300D01*
X76640151Y-147840826D01*
X76600000Y-148139383D01*
X76600000Y-149790000D01*
X77876589Y-149790000D01*
X77851466Y-149887030D01*
X77841114Y-150091165D01*
X77871574Y-150290000D01*
X76600000Y-150290000D01*
X76600000Y-151865236D01*
X56000500Y-151865236D01*
X56000500Y-130410000D01*
X66434540Y-130410000D01*
X66454326Y-130598256D01*
X66454327Y-130598259D01*
X66512818Y-130778277D01*
X66512821Y-130778284D01*
X66607467Y-130942216D01*
X66666949Y-131008277D01*
X66734129Y-131082888D01*
X66887265Y-131194148D01*
X66887270Y-131194151D01*
X67060192Y-131271142D01*
X67060197Y-131271144D01*
X67245354Y-131310500D01*
X67245355Y-131310500D01*
X67434644Y-131310500D01*
X67434646Y-131310500D01*
X67619803Y-131271144D01*
X67792730Y-131194151D01*
X67945871Y-131082888D01*
X68072533Y-130942216D01*
X68167179Y-130778284D01*
X68225674Y-130598256D01*
X68245460Y-130410000D01*
X68225674Y-130221744D01*
X68167179Y-130041716D01*
X68072533Y-129877784D01*
X68072528Y-129877778D01*
X67997350Y-129794284D01*
X67967120Y-129731292D01*
X67965500Y-129711312D01*
X67965500Y-117550452D01*
X67985185Y-117483413D01*
X68001819Y-117462771D01*
X69795484Y-115669107D01*
X69795499Y-115669089D01*
X82884235Y-102580353D01*
X82945556Y-102546870D01*
X82997693Y-102546746D01*
X83015354Y-102550500D01*
X83015357Y-102550500D01*
X83180500Y-102550500D01*
X83247539Y-102570185D01*
X83293294Y-102622989D01*
X83304500Y-102674500D01*
X83304500Y-143295811D01*
X83284815Y-143362850D01*
X83251623Y-143397386D01*
X83090859Y-143509953D01*
X82929954Y-143670858D01*
X82799432Y-143857265D01*
X82799431Y-143857267D01*
X82703261Y-144063502D01*
X82703258Y-144063511D01*
X82644366Y-144283302D01*
X82644364Y-144283312D01*
X82629500Y-144453214D01*
X82629500Y-145466785D01*
X82644364Y-145636687D01*
X82644366Y-145636697D01*
X82703258Y-145856488D01*
X82703261Y-145856497D01*
X82799431Y-146062732D01*
X82799432Y-146062734D01*
X82929954Y-146249141D01*
X83090858Y-146410045D01*
X83090861Y-146410047D01*
X83277266Y-146540568D01*
X83483504Y-146636739D01*
X83703308Y-146695635D01*
X83865230Y-146709801D01*
X83929998Y-146715468D01*
X83930000Y-146715468D01*
X83930002Y-146715468D01*
X83986673Y-146710509D01*
X84156692Y-146695635D01*
X84376496Y-146636739D01*
X84582734Y-146540568D01*
X84769139Y-146410047D01*
X84930047Y-146249139D01*
X85060568Y-146062734D01*
X85087895Y-146004129D01*
X85134064Y-145951695D01*
X85201257Y-145932542D01*
X85268139Y-145952757D01*
X85312657Y-146004133D01*
X85339865Y-146062482D01*
X85470342Y-146248820D01*
X85631179Y-146409657D01*
X85817517Y-146540134D01*
X86023673Y-146636265D01*
X86023682Y-146636269D01*
X86219999Y-146688872D01*
X86220000Y-146688871D01*
X86220000Y-145328137D01*
X86274741Y-145365459D01*
X86402927Y-145405000D01*
X86503346Y-145405000D01*
X86602647Y-145390033D01*
X86720000Y-145333518D01*
X86720000Y-146688872D01*
X86916317Y-146636269D01*
X86916326Y-146636265D01*
X87122482Y-146540134D01*
X87308820Y-146409657D01*
X87469657Y-146248820D01*
X87600134Y-146062482D01*
X87696265Y-145856326D01*
X87696269Y-145856317D01*
X87755139Y-145636610D01*
X87755141Y-145636599D01*
X87769999Y-145466766D01*
X87770000Y-145466763D01*
X87770000Y-145210000D01*
X86839503Y-145210000D01*
X86888917Y-145124413D01*
X86918768Y-144993630D01*
X86908743Y-144859860D01*
X86859734Y-144734987D01*
X86839807Y-144710000D01*
X87770000Y-144710000D01*
X87770000Y-144453236D01*
X87769999Y-144453233D01*
X87755141Y-144283400D01*
X87755139Y-144283389D01*
X87696269Y-144063682D01*
X87696265Y-144063673D01*
X87600134Y-143857517D01*
X87469657Y-143671179D01*
X87308820Y-143510342D01*
X87122482Y-143379865D01*
X86916328Y-143283734D01*
X86719999Y-143231127D01*
X86719999Y-144591862D01*
X86665259Y-144554541D01*
X86537073Y-144515000D01*
X86436654Y-144515000D01*
X86337353Y-144529967D01*
X86220000Y-144586481D01*
X86220000Y-143231127D01*
X86023671Y-143283734D01*
X85817517Y-143379865D01*
X85631179Y-143510342D01*
X85470342Y-143671179D01*
X85339867Y-143857515D01*
X85312657Y-143915867D01*
X85266484Y-143968306D01*
X85199290Y-143987457D01*
X85132409Y-143967241D01*
X85087893Y-143915865D01*
X85060570Y-143857271D01*
X85060567Y-143857265D01*
X84930045Y-143670858D01*
X84769140Y-143509953D01*
X84608377Y-143397386D01*
X84564752Y-143342809D01*
X84555500Y-143295811D01*
X84555500Y-134450000D01*
X98544422Y-134450000D01*
X98564722Y-134837339D01*
X98625397Y-135220427D01*
X98625397Y-135220429D01*
X98725788Y-135595094D01*
X98864787Y-135957197D01*
X99040877Y-136302793D01*
X99252122Y-136628082D01*
X99352838Y-136752455D01*
X99496219Y-136929516D01*
X99770484Y-137203781D01*
X99770488Y-137203784D01*
X100071917Y-137447877D01*
X100397206Y-137659122D01*
X100397211Y-137659125D01*
X100742806Y-137835214D01*
X101104913Y-137974214D01*
X101479567Y-138074602D01*
X101862662Y-138135278D01*
X102228576Y-138154455D01*
X102249999Y-138155578D01*
X102250000Y-138155578D01*
X102250001Y-138155578D01*
X102270301Y-138154514D01*
X102637338Y-138135278D01*
X103020433Y-138074602D01*
X103395087Y-137974214D01*
X103757194Y-137835214D01*
X104102789Y-137659125D01*
X104428084Y-137447876D01*
X104729516Y-137203781D01*
X105003781Y-136929516D01*
X105247876Y-136628084D01*
X105459125Y-136302789D01*
X105635214Y-135957194D01*
X105774214Y-135595087D01*
X105874602Y-135220433D01*
X105935278Y-134837338D01*
X105955578Y-134450000D01*
X110534922Y-134450000D01*
X110555219Y-134837287D01*
X110615886Y-135220323D01*
X110615887Y-135220330D01*
X110716262Y-135594936D01*
X110855244Y-135956994D01*
X111031310Y-136302543D01*
X111242531Y-136627793D01*
X111451095Y-136885350D01*
X111451096Y-136885350D01*
X112348756Y-135987689D01*
X112307449Y-136049511D01*
X112288046Y-136147056D01*
X112307449Y-136244601D01*
X112362704Y-136327296D01*
X112445399Y-136382551D01*
X112518320Y-136397056D01*
X112567568Y-136397056D01*
X112640489Y-136382551D01*
X112702304Y-136341247D01*
X111804648Y-137238903D01*
X111804649Y-137238904D01*
X112062206Y-137447468D01*
X112387456Y-137658689D01*
X112733005Y-137834755D01*
X113095063Y-137973737D01*
X113469669Y-138074112D01*
X113469676Y-138074113D01*
X113852712Y-138134780D01*
X114239999Y-138155078D01*
X114240001Y-138155078D01*
X114627287Y-138134780D01*
X115010323Y-138074113D01*
X115010330Y-138074112D01*
X115384936Y-137973737D01*
X115746994Y-137834755D01*
X116092543Y-137658689D01*
X116417783Y-137447476D01*
X116417785Y-137447475D01*
X116675349Y-137238902D01*
X115777691Y-136341244D01*
X115839511Y-136382551D01*
X115912432Y-136397056D01*
X115961680Y-136397056D01*
X116034601Y-136382551D01*
X116117296Y-136327296D01*
X116172551Y-136244601D01*
X116191954Y-136147056D01*
X116172551Y-136049511D01*
X116131244Y-135987691D01*
X117028902Y-136885349D01*
X117237475Y-136627785D01*
X117237476Y-136627783D01*
X117448689Y-136302543D01*
X117624755Y-135956994D01*
X117763737Y-135594936D01*
X117864112Y-135220330D01*
X117864113Y-135220323D01*
X117924780Y-134837287D01*
X117945078Y-134450000D01*
X117945078Y-134449999D01*
X117924780Y-134062712D01*
X117864113Y-133679676D01*
X117864112Y-133679669D01*
X117763737Y-133305063D01*
X117624755Y-132943005D01*
X117448689Y-132597456D01*
X117237468Y-132272206D01*
X117028904Y-132014649D01*
X117028903Y-132014648D01*
X116131247Y-132912303D01*
X116172551Y-132850489D01*
X116191954Y-132752944D01*
X116172551Y-132655399D01*
X116117296Y-132572704D01*
X116034601Y-132517449D01*
X115961680Y-132502944D01*
X115912432Y-132502944D01*
X115839511Y-132517449D01*
X115777690Y-132558755D01*
X116675350Y-131661096D01*
X116675350Y-131661095D01*
X116417793Y-131452531D01*
X116092543Y-131241310D01*
X115746994Y-131065244D01*
X115384936Y-130926262D01*
X115010330Y-130825887D01*
X115010323Y-130825886D01*
X114627287Y-130765219D01*
X114240001Y-130744922D01*
X114239999Y-130744922D01*
X113852712Y-130765219D01*
X113469676Y-130825886D01*
X113469669Y-130825887D01*
X113095063Y-130926262D01*
X112733005Y-131065244D01*
X112387456Y-131241310D01*
X112062206Y-131452531D01*
X111804648Y-131661095D01*
X111804648Y-131661096D01*
X112702306Y-132558754D01*
X112640489Y-132517449D01*
X112567568Y-132502944D01*
X112518320Y-132502944D01*
X112445399Y-132517449D01*
X112362704Y-132572704D01*
X112307449Y-132655399D01*
X112288046Y-132752944D01*
X112307449Y-132850489D01*
X112348754Y-132912306D01*
X111451096Y-132014648D01*
X111451095Y-132014648D01*
X111242531Y-132272206D01*
X111031310Y-132597456D01*
X110855244Y-132943005D01*
X110716262Y-133305063D01*
X110615887Y-133679669D01*
X110615886Y-133679676D01*
X110555219Y-134062712D01*
X110534922Y-134449999D01*
X110534922Y-134450000D01*
X105955578Y-134450000D01*
X105935278Y-134062662D01*
X105874602Y-133679567D01*
X105774214Y-133304913D01*
X105635214Y-132942806D01*
X105459125Y-132597211D01*
X105407327Y-132517449D01*
X105247877Y-132271917D01*
X105003784Y-131970488D01*
X105003781Y-131970484D01*
X104729516Y-131696219D01*
X104488619Y-131501144D01*
X104428082Y-131452122D01*
X104102793Y-131240877D01*
X103757197Y-131064787D01*
X103395094Y-130925788D01*
X103395087Y-130925786D01*
X103020433Y-130825398D01*
X103020429Y-130825397D01*
X103020428Y-130825397D01*
X102637339Y-130764722D01*
X102250001Y-130744422D01*
X102249999Y-130744422D01*
X101862660Y-130764722D01*
X101479572Y-130825397D01*
X101479570Y-130825397D01*
X101104905Y-130925788D01*
X100742802Y-131064787D01*
X100397206Y-131240877D01*
X100071917Y-131452122D01*
X99770488Y-131696215D01*
X99770480Y-131696222D01*
X99496222Y-131970480D01*
X99496215Y-131970488D01*
X99252122Y-132271917D01*
X99040877Y-132597206D01*
X98864787Y-132942802D01*
X98725788Y-133304905D01*
X98625397Y-133679570D01*
X98625397Y-133679572D01*
X98564722Y-134062660D01*
X98544422Y-134449999D01*
X98544422Y-134450000D01*
X84555500Y-134450000D01*
X84555500Y-128897521D01*
X84575185Y-128830482D01*
X84627989Y-128784727D01*
X84697147Y-128774783D01*
X84729929Y-128784239D01*
X84880197Y-128851144D01*
X85065354Y-128890500D01*
X85065355Y-128890500D01*
X85254644Y-128890500D01*
X85254646Y-128890500D01*
X85439803Y-128851144D01*
X85612730Y-128774151D01*
X85765871Y-128662888D01*
X85892533Y-128522216D01*
X85987179Y-128358284D01*
X86045674Y-128178256D01*
X86065460Y-127990000D01*
X86045674Y-127801744D01*
X85987179Y-127621716D01*
X85892533Y-127457784D01*
X85817350Y-127374284D01*
X85787120Y-127311292D01*
X85785500Y-127291312D01*
X85785500Y-120420452D01*
X85805185Y-120353413D01*
X85821819Y-120332771D01*
X101092772Y-105061819D01*
X101154095Y-105028334D01*
X101180453Y-105025500D01*
X101396252Y-105025500D01*
X101463291Y-105045185D01*
X101488400Y-105066526D01*
X101494126Y-105072885D01*
X101494130Y-105072889D01*
X101647265Y-105184148D01*
X101647270Y-105184151D01*
X101820192Y-105261142D01*
X101820197Y-105261144D01*
X102005354Y-105300500D01*
X102005355Y-105300500D01*
X102194644Y-105300500D01*
X102194646Y-105300500D01*
X102379803Y-105261144D01*
X102552730Y-105184151D01*
X102705871Y-105072888D01*
X102832533Y-104932216D01*
X102927179Y-104768284D01*
X102985674Y-104588256D01*
X103005460Y-104400000D01*
X102985674Y-104211744D01*
X102927179Y-104031716D01*
X102849775Y-103897649D01*
X102833303Y-103829750D01*
X102856156Y-103763723D01*
X102898222Y-103729329D01*
X102897107Y-103727397D01*
X102902724Y-103724153D01*
X102902730Y-103724151D01*
X103055871Y-103612888D01*
X103182533Y-103472216D01*
X103277179Y-103308284D01*
X103335674Y-103128256D01*
X103355460Y-102940000D01*
X103335674Y-102751744D01*
X103277179Y-102571716D01*
X103182533Y-102407784D01*
X103055871Y-102267112D01*
X103055870Y-102267111D01*
X102902734Y-102155851D01*
X102902729Y-102155848D01*
X102729807Y-102078857D01*
X102729802Y-102078855D01*
X102584001Y-102047865D01*
X102544646Y-102039500D01*
X102544645Y-102039500D01*
X102485453Y-102039500D01*
X102418414Y-102019815D01*
X102397772Y-102003181D01*
X96370803Y-95976212D01*
X96360980Y-95963950D01*
X96360759Y-95964134D01*
X96355786Y-95958122D01*
X96306066Y-95911432D01*
X96304666Y-95910075D01*
X96284476Y-95889884D01*
X96278986Y-95885625D01*
X96274561Y-95881847D01*
X96240582Y-95849938D01*
X96240580Y-95849936D01*
X96240577Y-95849935D01*
X96223029Y-95840288D01*
X96206763Y-95829604D01*
X96190933Y-95817325D01*
X96148168Y-95798818D01*
X96142922Y-95796248D01*
X96102093Y-95773803D01*
X96102092Y-95773802D01*
X96082693Y-95768822D01*
X96064281Y-95762518D01*
X96045898Y-95754562D01*
X96045892Y-95754560D01*
X95999874Y-95747272D01*
X95994152Y-95746087D01*
X95949021Y-95734500D01*
X95949019Y-95734500D01*
X95928984Y-95734500D01*
X95909586Y-95732973D01*
X95902162Y-95731797D01*
X95889805Y-95729840D01*
X95889804Y-95729840D01*
X95843416Y-95734225D01*
X95837578Y-95734500D01*
X85573748Y-95734500D01*
X85506709Y-95714815D01*
X85481600Y-95693474D01*
X85475873Y-95687114D01*
X85475869Y-95687110D01*
X85322734Y-95575851D01*
X85322729Y-95575848D01*
X85149807Y-95498857D01*
X85149802Y-95498855D01*
X85004000Y-95467865D01*
X84964646Y-95459500D01*
X84775354Y-95459500D01*
X84705278Y-95474394D01*
X84635613Y-95469078D01*
X84579880Y-95426940D01*
X84555775Y-95361360D01*
X84555500Y-95353104D01*
X84555500Y-92100451D01*
X84575185Y-92033412D01*
X84591814Y-92012775D01*
X92163138Y-84441450D01*
X92224459Y-84407967D01*
X92294151Y-84412951D01*
X92350084Y-84454823D01*
X92374138Y-84516172D01*
X92374540Y-84519998D01*
X92374540Y-84520000D01*
X92394326Y-84708256D01*
X92394327Y-84708259D01*
X92452818Y-84888277D01*
X92452821Y-84888284D01*
X92547467Y-85052216D01*
X92649185Y-85165185D01*
X92674129Y-85192888D01*
X92827265Y-85304148D01*
X92827270Y-85304151D01*
X93000192Y-85381142D01*
X93000197Y-85381144D01*
X93185354Y-85420500D01*
X93185355Y-85420500D01*
X93374644Y-85420500D01*
X93374646Y-85420500D01*
X93559803Y-85381144D01*
X93732730Y-85304151D01*
X93885871Y-85192888D01*
X93888788Y-85189647D01*
X93891600Y-85186526D01*
X93951087Y-85149879D01*
X93983748Y-85145500D01*
X106069548Y-85145500D01*
X106136587Y-85165185D01*
X106157229Y-85181819D01*
X110195436Y-89220026D01*
X110228921Y-89281349D01*
X110223937Y-89351041D01*
X110182065Y-89406974D01*
X110158195Y-89420985D01*
X110147266Y-89425851D01*
X110147265Y-89425851D01*
X109994129Y-89537111D01*
X109867466Y-89677785D01*
X109772821Y-89841715D01*
X109772818Y-89841722D01*
X109714327Y-90021740D01*
X109714326Y-90021744D01*
X109696679Y-90189650D01*
X109670094Y-90254264D01*
X109661039Y-90264369D01*
X109477228Y-90448181D01*
X109415905Y-90481666D01*
X109389547Y-90484500D01*
X99842737Y-90484500D01*
X99827120Y-90482776D01*
X99827093Y-90483062D01*
X99819331Y-90482327D01*
X99751171Y-90484469D01*
X99749224Y-90484500D01*
X99720650Y-90484500D01*
X99719929Y-90484590D01*
X99713757Y-90485369D01*
X99707945Y-90485826D01*
X99661373Y-90487290D01*
X99661372Y-90487290D01*
X99642129Y-90492881D01*
X99623079Y-90496825D01*
X99603211Y-90499334D01*
X99603209Y-90499335D01*
X99559884Y-90516488D01*
X99554357Y-90518380D01*
X99509610Y-90531381D01*
X99509609Y-90531382D01*
X99492367Y-90541579D01*
X99474899Y-90550137D01*
X99456269Y-90557513D01*
X99456267Y-90557514D01*
X99418576Y-90584898D01*
X99413694Y-90588105D01*
X99373579Y-90611830D01*
X99359408Y-90626000D01*
X99344623Y-90638628D01*
X99328412Y-90650407D01*
X99298709Y-90686310D01*
X99294777Y-90690631D01*
X98103579Y-91881830D01*
X96826208Y-93159199D01*
X96813951Y-93169020D01*
X96814134Y-93169241D01*
X96808122Y-93174214D01*
X96761432Y-93223932D01*
X96760079Y-93225329D01*
X96739889Y-93245519D01*
X96739877Y-93245532D01*
X96735621Y-93251017D01*
X96731837Y-93255447D01*
X96699937Y-93289418D01*
X96699936Y-93289420D01*
X96690284Y-93306976D01*
X96679610Y-93323226D01*
X96667329Y-93339061D01*
X96667324Y-93339068D01*
X96648815Y-93381838D01*
X96646245Y-93387084D01*
X96623803Y-93427906D01*
X96618822Y-93447307D01*
X96612521Y-93465710D01*
X96604562Y-93484102D01*
X96604561Y-93484105D01*
X96597271Y-93530127D01*
X96596087Y-93535846D01*
X96584501Y-93580972D01*
X96584500Y-93580982D01*
X96584500Y-93601016D01*
X96582973Y-93620415D01*
X96579840Y-93640194D01*
X96579840Y-93640195D01*
X96584225Y-93686583D01*
X96584500Y-93692421D01*
X96584500Y-93881312D01*
X96564815Y-93948351D01*
X96552650Y-93964284D01*
X96477466Y-94047784D01*
X96382821Y-94211715D01*
X96382818Y-94211722D01*
X96324327Y-94391740D01*
X96324326Y-94391744D01*
X96304540Y-94580000D01*
X96324326Y-94768256D01*
X96324327Y-94768259D01*
X96382818Y-94948277D01*
X96382821Y-94948284D01*
X96477467Y-95112216D01*
X96549071Y-95191740D01*
X96604129Y-95252888D01*
X96757265Y-95364148D01*
X96757270Y-95364151D01*
X96930192Y-95441142D01*
X96930197Y-95441144D01*
X97115354Y-95480500D01*
X97115355Y-95480500D01*
X97304644Y-95480500D01*
X97304646Y-95480500D01*
X97489803Y-95441144D01*
X97662730Y-95364151D01*
X97815871Y-95252888D01*
X97942533Y-95112216D01*
X98037179Y-94948284D01*
X98095674Y-94768256D01*
X98115460Y-94580000D01*
X98095674Y-94391744D01*
X98037179Y-94211716D01*
X97942533Y-94047784D01*
X97909583Y-94011189D01*
X97879354Y-93948200D01*
X97887978Y-93878864D01*
X97914049Y-93840540D01*
X98960120Y-92794471D01*
X98960120Y-92794470D01*
X98965484Y-92789107D01*
X98965499Y-92789089D01*
X99982771Y-91771819D01*
X100044095Y-91738334D01*
X100070453Y-91735500D01*
X109320981Y-91735500D01*
X109617257Y-91735500D01*
X109632877Y-91737224D01*
X109632904Y-91736939D01*
X109640666Y-91737673D01*
X109640666Y-91737672D01*
X109640667Y-91737673D01*
X109643999Y-91737568D01*
X109708847Y-91735531D01*
X109710794Y-91735500D01*
X109739347Y-91735500D01*
X109739350Y-91735500D01*
X109746228Y-91734630D01*
X109752041Y-91734172D01*
X109798627Y-91732709D01*
X109817869Y-91727117D01*
X109836912Y-91723174D01*
X109856792Y-91720664D01*
X109900122Y-91703507D01*
X109905646Y-91701617D01*
X109909396Y-91700527D01*
X109950390Y-91688618D01*
X109967629Y-91678422D01*
X109985103Y-91669862D01*
X110003727Y-91662488D01*
X110003727Y-91662487D01*
X110003732Y-91662486D01*
X110041449Y-91635082D01*
X110046305Y-91631892D01*
X110086420Y-91608170D01*
X110100589Y-91593999D01*
X110115379Y-91581368D01*
X110131587Y-91569594D01*
X110161299Y-91533676D01*
X110165212Y-91529376D01*
X110547773Y-91146817D01*
X110609095Y-91113334D01*
X110635453Y-91110500D01*
X110694644Y-91110500D01*
X110694646Y-91110500D01*
X110879803Y-91071144D01*
X111052730Y-90994151D01*
X111205871Y-90882888D01*
X111238351Y-90846815D01*
X111297836Y-90810167D01*
X111367693Y-90811497D01*
X111425742Y-90850384D01*
X111453552Y-90914480D01*
X111454500Y-90929788D01*
X111454500Y-93649547D01*
X111434815Y-93716586D01*
X111418181Y-93737228D01*
X110712228Y-94443181D01*
X110650905Y-94476666D01*
X110624547Y-94479500D01*
X110525354Y-94479500D01*
X110492897Y-94486398D01*
X110340197Y-94518855D01*
X110340192Y-94518857D01*
X110167270Y-94595848D01*
X110167265Y-94595851D01*
X110014129Y-94707111D01*
X109887466Y-94847785D01*
X109792821Y-95011715D01*
X109792818Y-95011722D01*
X109760166Y-95112216D01*
X109734326Y-95191744D01*
X109714540Y-95380000D01*
X109734326Y-95568256D01*
X109734327Y-95568259D01*
X109792818Y-95748277D01*
X109792821Y-95748284D01*
X109887467Y-95912216D01*
X110014128Y-96052887D01*
X110014129Y-96052888D01*
X110167265Y-96164148D01*
X110167270Y-96164151D01*
X110340192Y-96241142D01*
X110340197Y-96241144D01*
X110525354Y-96280500D01*
X110525355Y-96280500D01*
X110714644Y-96280500D01*
X110714646Y-96280500D01*
X110899803Y-96241144D01*
X111072730Y-96164151D01*
X111225871Y-96052888D01*
X111352533Y-95912216D01*
X111447179Y-95748284D01*
X111505674Y-95568256D01*
X111518623Y-95445044D01*
X111545207Y-95380431D01*
X111554245Y-95370344D01*
X111692821Y-95231768D01*
X111754142Y-95198286D01*
X111823834Y-95203270D01*
X111879767Y-95245142D01*
X111904184Y-95310606D01*
X111904500Y-95319452D01*
X111904500Y-98089547D01*
X111884815Y-98156586D01*
X111868181Y-98177228D01*
X107582228Y-102463181D01*
X107520905Y-102496666D01*
X107494547Y-102499500D01*
X107435354Y-102499500D01*
X107402897Y-102506398D01*
X107250197Y-102538855D01*
X107250192Y-102538857D01*
X107077270Y-102615848D01*
X107077265Y-102615851D01*
X106924135Y-102727106D01*
X106924132Y-102727108D01*
X106881235Y-102774750D01*
X106821748Y-102811397D01*
X106751891Y-102810066D01*
X106738652Y-102805056D01*
X106679807Y-102778857D01*
X106679802Y-102778855D01*
X106534001Y-102747865D01*
X106494646Y-102739500D01*
X106305354Y-102739500D01*
X106272897Y-102746398D01*
X106120197Y-102778855D01*
X106120192Y-102778857D01*
X105947270Y-102855848D01*
X105947265Y-102855851D01*
X105794129Y-102967111D01*
X105667466Y-103107785D01*
X105572821Y-103271715D01*
X105572818Y-103271722D01*
X105514327Y-103451740D01*
X105514326Y-103451744D01*
X105494540Y-103640000D01*
X105514326Y-103828256D01*
X105514327Y-103828259D01*
X105572818Y-104008277D01*
X105572821Y-104008284D01*
X105667467Y-104172216D01*
X105718872Y-104229307D01*
X105742649Y-104255714D01*
X105772879Y-104318705D01*
X105774499Y-104338686D01*
X105774499Y-110379547D01*
X105754814Y-110446586D01*
X105738180Y-110467228D01*
X86502228Y-129703181D01*
X86440905Y-129736666D01*
X86414547Y-129739500D01*
X86355354Y-129739500D01*
X86322897Y-129746398D01*
X86170197Y-129778855D01*
X86170192Y-129778857D01*
X85997270Y-129855848D01*
X85997265Y-129855851D01*
X85844129Y-129967111D01*
X85717466Y-130107785D01*
X85622821Y-130271715D01*
X85622818Y-130271722D01*
X85564327Y-130451740D01*
X85564326Y-130451744D01*
X85544540Y-130640000D01*
X85564326Y-130828256D01*
X85564327Y-130828259D01*
X85622818Y-131008277D01*
X85622821Y-131008284D01*
X85717467Y-131172216D01*
X85841979Y-131310500D01*
X85844129Y-131312888D01*
X85997265Y-131424148D01*
X85997270Y-131424151D01*
X86170192Y-131501142D01*
X86170197Y-131501144D01*
X86355354Y-131540500D01*
X86355355Y-131540500D01*
X86544644Y-131540500D01*
X86544646Y-131540500D01*
X86729803Y-131501144D01*
X86902730Y-131424151D01*
X87055871Y-131312888D01*
X87182533Y-131172216D01*
X87277179Y-131008284D01*
X87335674Y-130828256D01*
X87353321Y-130660345D01*
X87379905Y-130595732D01*
X87388952Y-130585636D01*
X106783786Y-111190802D01*
X106796048Y-111180980D01*
X106795865Y-111180759D01*
X106801873Y-111175788D01*
X106801877Y-111175786D01*
X106848649Y-111125977D01*
X106849891Y-111124697D01*
X106870120Y-111104470D01*
X106874373Y-111098986D01*
X106878150Y-111094563D01*
X106910062Y-111060582D01*
X106919714Y-111043023D01*
X106930389Y-111026772D01*
X106942674Y-111010936D01*
X106961186Y-110968152D01*
X106963742Y-110962935D01*
X106986197Y-110922092D01*
X106991180Y-110902680D01*
X106997477Y-110884291D01*
X107005438Y-110865895D01*
X107012729Y-110819853D01*
X107013908Y-110814162D01*
X107025500Y-110769019D01*
X107025500Y-110748982D01*
X107027027Y-110729582D01*
X107030160Y-110709804D01*
X107025775Y-110663415D01*
X107025500Y-110657577D01*
X107025500Y-104352045D01*
X107045185Y-104285006D01*
X107097989Y-104239251D01*
X107167147Y-104229307D01*
X107199934Y-104238765D01*
X107250197Y-104261144D01*
X107435354Y-104300500D01*
X107435355Y-104300500D01*
X107624644Y-104300500D01*
X107624646Y-104300500D01*
X107809803Y-104261144D01*
X107982730Y-104184151D01*
X108135871Y-104072888D01*
X108262533Y-103932216D01*
X108357179Y-103768284D01*
X108415674Y-103588256D01*
X108433321Y-103420345D01*
X108459905Y-103355732D01*
X108468952Y-103345636D01*
X112913788Y-98900801D01*
X112926042Y-98890986D01*
X112925859Y-98890764D01*
X112931868Y-98885791D01*
X112931877Y-98885786D01*
X112978607Y-98836022D01*
X112979846Y-98834743D01*
X113000120Y-98814471D01*
X113004379Y-98808978D01*
X113008152Y-98804561D01*
X113040062Y-98770582D01*
X113049715Y-98753020D01*
X113060389Y-98736770D01*
X113072673Y-98720936D01*
X113091180Y-98678167D01*
X113093749Y-98672924D01*
X113116196Y-98632093D01*
X113116197Y-98632092D01*
X113121177Y-98612691D01*
X113127478Y-98594288D01*
X113135438Y-98575896D01*
X113142730Y-98529849D01*
X113143911Y-98524152D01*
X113155500Y-98479019D01*
X113155500Y-98458982D01*
X113157027Y-98439582D01*
X113160160Y-98419804D01*
X113155775Y-98373415D01*
X113155500Y-98367577D01*
X113155500Y-60562742D01*
X113157224Y-60547122D01*
X113156939Y-60547096D01*
X113157673Y-60539333D01*
X113155531Y-60471152D01*
X113155500Y-60469205D01*
X113155500Y-60440654D01*
X113155500Y-60440650D01*
X113154631Y-60433772D01*
X113154172Y-60427943D01*
X113152709Y-60381372D01*
X113147122Y-60362144D01*
X113143174Y-60343084D01*
X113140663Y-60323204D01*
X113123512Y-60279887D01*
X113121619Y-60274358D01*
X113108618Y-60229609D01*
X113108616Y-60229606D01*
X113098423Y-60212371D01*
X113089861Y-60194894D01*
X113082487Y-60176269D01*
X113077346Y-60169194D01*
X113055085Y-60138555D01*
X113051888Y-60133686D01*
X113024239Y-60086932D01*
X113007058Y-60019208D01*
X113026976Y-59956279D01*
X113159125Y-59752789D01*
X113335214Y-59407194D01*
X113474214Y-59045087D01*
X113574602Y-58670433D01*
X113635278Y-58287338D01*
X113655578Y-57900000D01*
X113635278Y-57512662D01*
X113574602Y-57129567D01*
X113474214Y-56754913D01*
X113335214Y-56392806D01*
X113159125Y-56047211D01*
X112947876Y-55721916D01*
X112703781Y-55420484D01*
X112429516Y-55146219D01*
X112128084Y-54902124D01*
X112128082Y-54902122D01*
X111802793Y-54690877D01*
X111457197Y-54514787D01*
X111095094Y-54375788D01*
X111095087Y-54375786D01*
X110720433Y-54275398D01*
X110720429Y-54275397D01*
X110720428Y-54275397D01*
X110337339Y-54214722D01*
X109950001Y-54194422D01*
X109949999Y-54194422D01*
X109562660Y-54214722D01*
X109179572Y-54275397D01*
X109179570Y-54275397D01*
X108804905Y-54375788D01*
X108442802Y-54514787D01*
X108097206Y-54690877D01*
X107771917Y-54902122D01*
X107470488Y-55146215D01*
X107470480Y-55146222D01*
X107196222Y-55420480D01*
X107196215Y-55420488D01*
X106952122Y-55721917D01*
X106740877Y-56047206D01*
X106564787Y-56392802D01*
X106425788Y-56754905D01*
X106325397Y-57129570D01*
X106325397Y-57129572D01*
X106264722Y-57512660D01*
X106244422Y-57899999D01*
X106244422Y-57900000D01*
X106264722Y-58287339D01*
X106325397Y-58670427D01*
X106325397Y-58670429D01*
X106425788Y-59045094D01*
X106564787Y-59407197D01*
X106740877Y-59752793D01*
X106871922Y-59954584D01*
X106891926Y-60021529D01*
X106872560Y-60088661D01*
X106855608Y-60109800D01*
X95426208Y-71539199D01*
X95413951Y-71549020D01*
X95414134Y-71549241D01*
X95408122Y-71554214D01*
X95361432Y-71603932D01*
X95360079Y-71605329D01*
X95339889Y-71625519D01*
X95339877Y-71625532D01*
X95335621Y-71631017D01*
X95331837Y-71635447D01*
X95299937Y-71669418D01*
X95299936Y-71669420D01*
X95290284Y-71686976D01*
X95279610Y-71703226D01*
X95267329Y-71719061D01*
X95267324Y-71719068D01*
X95248815Y-71761838D01*
X95246245Y-71767084D01*
X95223803Y-71807906D01*
X95218822Y-71827307D01*
X95212521Y-71845710D01*
X95204562Y-71864102D01*
X95204561Y-71864105D01*
X95197271Y-71910127D01*
X95196087Y-71915846D01*
X95184501Y-71960972D01*
X95184500Y-71960982D01*
X95184500Y-71981016D01*
X95182973Y-72000415D01*
X95179840Y-72020194D01*
X95179840Y-72020195D01*
X95184225Y-72066583D01*
X95184500Y-72072421D01*
X95184500Y-75671312D01*
X95164815Y-75738351D01*
X95152650Y-75754284D01*
X95077466Y-75837784D01*
X94982821Y-76001715D01*
X94982818Y-76001722D01*
X94925680Y-76177577D01*
X94924326Y-76181744D01*
X94913051Y-76289019D01*
X94906679Y-76349649D01*
X94880094Y-76414263D01*
X94871068Y-76424339D01*
X94869555Y-76425853D01*
X94808243Y-76459358D01*
X94781845Y-76462201D01*
X89036047Y-76462201D01*
X88969008Y-76442516D01*
X88943899Y-76421175D01*
X88938172Y-76414815D01*
X88938171Y-76414814D01*
X88938170Y-76414813D01*
X88876373Y-76369915D01*
X88833708Y-76314585D01*
X88827729Y-76244971D01*
X88860335Y-76183176D01*
X88921174Y-76148819D01*
X88975036Y-76148307D01*
X88985354Y-76150500D01*
X88985359Y-76150500D01*
X89174644Y-76150500D01*
X89174646Y-76150500D01*
X89359803Y-76111144D01*
X89532730Y-76034151D01*
X89685871Y-75922888D01*
X89812533Y-75782216D01*
X89907179Y-75618284D01*
X89965674Y-75438256D01*
X89985460Y-75250000D01*
X89965674Y-75061744D01*
X89907179Y-74881716D01*
X89812533Y-74717784D01*
X89685871Y-74577112D01*
X89685870Y-74577111D01*
X89532734Y-74465851D01*
X89532729Y-74465848D01*
X89359807Y-74388857D01*
X89359802Y-74388855D01*
X89214000Y-74357865D01*
X89174646Y-74349500D01*
X88985354Y-74349500D01*
X88952897Y-74356398D01*
X88800197Y-74388855D01*
X88800192Y-74388857D01*
X88745125Y-74413374D01*
X88675875Y-74422658D01*
X88612598Y-74393028D01*
X88607010Y-74387775D01*
X86811779Y-72592544D01*
X86778294Y-72531221D01*
X86775460Y-72504863D01*
X86775460Y-72500002D01*
X86775460Y-72500000D01*
X86755674Y-72311744D01*
X86697179Y-72131716D01*
X86602533Y-71967784D01*
X86602529Y-71967779D01*
X86602249Y-71967393D01*
X86602154Y-71967127D01*
X86599284Y-71962156D01*
X86600192Y-71961631D01*
X86578764Y-71901589D01*
X86594584Y-71833534D01*
X86644686Y-71784835D01*
X86702561Y-71770500D01*
X88453742Y-71770500D01*
X88520781Y-71790185D01*
X88545891Y-71811527D01*
X88574128Y-71842887D01*
X88574135Y-71842893D01*
X88727265Y-71954148D01*
X88727270Y-71954151D01*
X88900192Y-72031142D01*
X88900197Y-72031144D01*
X89085354Y-72070500D01*
X89085355Y-72070500D01*
X89274644Y-72070500D01*
X89274646Y-72070500D01*
X89459803Y-72031144D01*
X89632730Y-71954151D01*
X89785871Y-71842888D01*
X89912533Y-71702216D01*
X90007179Y-71538284D01*
X90065674Y-71358256D01*
X90085460Y-71170000D01*
X90065674Y-70981744D01*
X90007179Y-70801716D01*
X89912533Y-70637784D01*
X89785871Y-70497112D01*
X89785863Y-70497106D01*
X89632734Y-70385851D01*
X89632729Y-70385848D01*
X89459807Y-70308857D01*
X89459802Y-70308855D01*
X89314000Y-70277865D01*
X89274646Y-70269500D01*
X89085354Y-70269500D01*
X89052897Y-70276398D01*
X88900197Y-70308855D01*
X88900192Y-70308857D01*
X88727270Y-70385848D01*
X88727265Y-70385851D01*
X88574135Y-70497106D01*
X88574128Y-70497112D01*
X88545891Y-70528473D01*
X88486405Y-70565121D01*
X88453742Y-70569500D01*
X86253478Y-70569500D01*
X86245379Y-70568969D01*
X86210050Y-70564318D01*
X86170689Y-70569500D01*
X86053289Y-70584955D01*
X86053287Y-70584956D01*
X85907207Y-70645464D01*
X85781769Y-70741716D01*
X85760069Y-70769994D01*
X85754718Y-70776096D01*
X84776096Y-71754718D01*
X84769993Y-71760070D01*
X84741720Y-71781765D01*
X84704870Y-71829790D01*
X84704869Y-71829789D01*
X84645464Y-71907208D01*
X84645461Y-71907213D01*
X84584957Y-72053284D01*
X84584955Y-72053289D01*
X84564318Y-72210048D01*
X84564318Y-72210049D01*
X84568969Y-72245376D01*
X84569500Y-72253478D01*
X84569500Y-73036571D01*
X84568969Y-73044669D01*
X84564318Y-73080000D01*
X84575620Y-73165849D01*
X84584956Y-73236762D01*
X84645464Y-73382841D01*
X84741718Y-73508282D01*
X84769995Y-73529980D01*
X84776085Y-73535320D01*
X84972505Y-73731740D01*
X85098221Y-73857456D01*
X85131706Y-73918779D01*
X85134540Y-73945137D01*
X85134540Y-73949997D01*
X85134540Y-73950000D01*
X85154326Y-74138256D01*
X85154327Y-74138259D01*
X85212818Y-74318277D01*
X85212821Y-74318284D01*
X85307467Y-74482216D01*
X85421495Y-74608857D01*
X85434129Y-74622888D01*
X85564742Y-74717784D01*
X85587270Y-74734151D01*
X85606734Y-74742817D01*
X85659969Y-74788066D01*
X85680290Y-74854915D01*
X85661245Y-74922139D01*
X85608879Y-74968394D01*
X85606733Y-74969374D01*
X85547267Y-74995850D01*
X85547265Y-74995851D01*
X85394129Y-75107111D01*
X85267466Y-75247785D01*
X85172821Y-75411715D01*
X85172818Y-75411722D01*
X85117868Y-75580842D01*
X85114326Y-75591744D01*
X85097243Y-75754284D01*
X85096679Y-75759649D01*
X85070094Y-75824263D01*
X85061040Y-75834367D01*
X85007228Y-75888180D01*
X84945905Y-75921666D01*
X84919546Y-75924500D01*
X79643748Y-75924500D01*
X79576709Y-75904815D01*
X79551600Y-75883474D01*
X79545873Y-75877114D01*
X79545869Y-75877110D01*
X79392734Y-75765851D01*
X79392729Y-75765848D01*
X79219807Y-75688857D01*
X79219802Y-75688855D01*
X79155543Y-75675197D01*
X79094061Y-75642005D01*
X79060285Y-75580842D01*
X79058003Y-75540945D01*
X79065460Y-75470000D01*
X79045674Y-75281744D01*
X78987179Y-75101716D01*
X78892533Y-74937784D01*
X78765871Y-74797112D01*
X78765870Y-74797111D01*
X78612734Y-74685851D01*
X78612729Y-74685848D01*
X78439807Y-74608857D01*
X78439802Y-74608855D01*
X78262112Y-74571087D01*
X78254646Y-74569500D01*
X78184500Y-74569500D01*
X78117461Y-74549815D01*
X78071706Y-74497011D01*
X78060500Y-74445500D01*
X78060500Y-69065451D01*
X78080185Y-68998412D01*
X78096814Y-68977775D01*
X78317771Y-68756819D01*
X78379094Y-68723334D01*
X78405452Y-68720500D01*
X78464644Y-68720500D01*
X78464646Y-68720500D01*
X78649803Y-68681144D01*
X78822730Y-68604151D01*
X78975871Y-68492888D01*
X79102533Y-68352216D01*
X79197179Y-68188284D01*
X79225864Y-68100000D01*
X82404540Y-68100000D01*
X82424326Y-68288256D01*
X82424327Y-68288259D01*
X82482818Y-68468277D01*
X82482821Y-68468284D01*
X82577467Y-68632216D01*
X82670189Y-68735194D01*
X82704129Y-68772888D01*
X82857265Y-68884148D01*
X82857270Y-68884151D01*
X83030192Y-68961142D01*
X83030197Y-68961144D01*
X83215354Y-69000500D01*
X83215355Y-69000500D01*
X83404644Y-69000500D01*
X83404646Y-69000500D01*
X83589803Y-68961144D01*
X83762730Y-68884151D01*
X83915871Y-68772888D01*
X83918788Y-68769647D01*
X83921600Y-68766526D01*
X83981087Y-68729879D01*
X84013748Y-68725500D01*
X93106841Y-68725500D01*
X93173880Y-68745185D01*
X93219635Y-68797989D01*
X93224772Y-68811182D01*
X93262818Y-68928278D01*
X93262821Y-68928284D01*
X93357467Y-69092216D01*
X93484128Y-69232887D01*
X93484129Y-69232888D01*
X93637265Y-69344148D01*
X93637270Y-69344151D01*
X93810192Y-69421142D01*
X93810197Y-69421144D01*
X93995354Y-69460500D01*
X93995355Y-69460500D01*
X94184644Y-69460500D01*
X94184646Y-69460500D01*
X94369803Y-69421144D01*
X94542730Y-69344151D01*
X94695871Y-69232888D01*
X94822533Y-69092216D01*
X94917179Y-68928284D01*
X94975674Y-68748256D01*
X94995460Y-68560000D01*
X94975674Y-68371744D01*
X94917179Y-68191716D01*
X94822533Y-68027784D01*
X94695871Y-67887112D01*
X94695870Y-67887111D01*
X94542734Y-67775851D01*
X94542729Y-67775848D01*
X94369807Y-67698857D01*
X94369802Y-67698855D01*
X94224001Y-67667865D01*
X94184646Y-67659500D01*
X94184645Y-67659500D01*
X94124924Y-67659500D01*
X94057885Y-67639815D01*
X94047676Y-67632105D01*
X94047550Y-67632269D01*
X94038986Y-67625625D01*
X94034561Y-67621847D01*
X94000582Y-67589938D01*
X94000580Y-67589936D01*
X94000577Y-67589935D01*
X93983029Y-67580288D01*
X93966763Y-67569604D01*
X93950933Y-67557325D01*
X93908168Y-67538818D01*
X93902922Y-67536248D01*
X93862093Y-67513803D01*
X93862092Y-67513802D01*
X93842693Y-67508822D01*
X93824281Y-67502518D01*
X93805898Y-67494562D01*
X93805892Y-67494560D01*
X93759874Y-67487272D01*
X93754152Y-67486087D01*
X93709021Y-67474500D01*
X93709019Y-67474500D01*
X93688984Y-67474500D01*
X93669586Y-67472973D01*
X93662162Y-67471797D01*
X93649805Y-67469840D01*
X93649804Y-67469840D01*
X93603416Y-67474225D01*
X93597578Y-67474500D01*
X84013748Y-67474500D01*
X83946709Y-67454815D01*
X83921600Y-67433474D01*
X83915873Y-67427114D01*
X83915869Y-67427110D01*
X83762734Y-67315851D01*
X83762729Y-67315848D01*
X83589807Y-67238857D01*
X83589802Y-67238855D01*
X83444001Y-67207865D01*
X83404646Y-67199500D01*
X83215354Y-67199500D01*
X83182897Y-67206398D01*
X83030197Y-67238855D01*
X83030192Y-67238857D01*
X82857270Y-67315848D01*
X82857265Y-67315851D01*
X82704129Y-67427111D01*
X82577466Y-67567785D01*
X82482821Y-67731715D01*
X82482818Y-67731722D01*
X82432329Y-67887112D01*
X82424326Y-67911744D01*
X82404540Y-68100000D01*
X79225864Y-68100000D01*
X79255674Y-68008256D01*
X79275460Y-67820000D01*
X79255674Y-67631744D01*
X79197179Y-67451716D01*
X79102533Y-67287784D01*
X78975871Y-67147112D01*
X78975870Y-67147111D01*
X78822734Y-67035851D01*
X78822729Y-67035848D01*
X78649807Y-66958857D01*
X78649802Y-66958855D01*
X78504001Y-66927865D01*
X78464646Y-66919500D01*
X78275354Y-66919500D01*
X78242897Y-66926398D01*
X78090197Y-66958855D01*
X78090192Y-66958857D01*
X77917270Y-67035848D01*
X77917265Y-67035851D01*
X77764129Y-67147111D01*
X77637466Y-67287785D01*
X77542821Y-67451715D01*
X77542818Y-67451722D01*
X77484327Y-67631740D01*
X77484326Y-67631744D01*
X77469180Y-67775849D01*
X77466679Y-67799649D01*
X77440094Y-67864263D01*
X77431039Y-67874368D01*
X77051208Y-68254199D01*
X77038951Y-68264020D01*
X77039134Y-68264241D01*
X77033122Y-68269214D01*
X76986432Y-68318932D01*
X76985079Y-68320329D01*
X76964889Y-68340519D01*
X76964877Y-68340532D01*
X76960621Y-68346017D01*
X76956837Y-68350447D01*
X76924937Y-68384418D01*
X76924936Y-68384420D01*
X76915284Y-68401976D01*
X76904610Y-68418226D01*
X76892329Y-68434061D01*
X76892324Y-68434068D01*
X76873815Y-68476838D01*
X76871245Y-68482084D01*
X76848803Y-68522906D01*
X76843822Y-68542307D01*
X76837521Y-68560710D01*
X76829562Y-68579102D01*
X76829561Y-68579105D01*
X76822271Y-68625127D01*
X76821087Y-68630846D01*
X76809501Y-68675972D01*
X76809500Y-68675982D01*
X76809500Y-68696016D01*
X76807973Y-68715415D01*
X76804840Y-68735194D01*
X76804840Y-68735195D01*
X76809225Y-68781583D01*
X76809500Y-68787421D01*
X76809500Y-90882255D01*
X76807775Y-90897872D01*
X76808061Y-90897899D01*
X76807326Y-90905666D01*
X76809469Y-90973846D01*
X76809500Y-90975793D01*
X76809500Y-91004343D01*
X76809501Y-91004360D01*
X76810368Y-91011231D01*
X76810826Y-91017050D01*
X76812290Y-91063624D01*
X76812291Y-91063627D01*
X76817880Y-91082867D01*
X76821824Y-91101911D01*
X76822910Y-91110500D01*
X76824336Y-91121791D01*
X76841490Y-91165119D01*
X76843382Y-91170647D01*
X76856381Y-91215388D01*
X76866580Y-91232634D01*
X76875138Y-91250103D01*
X76882514Y-91268732D01*
X76909898Y-91306423D01*
X76913106Y-91311307D01*
X76936827Y-91351416D01*
X76936833Y-91351424D01*
X76950990Y-91365580D01*
X76963628Y-91380376D01*
X76975405Y-91396586D01*
X76975406Y-91396587D01*
X77011309Y-91426288D01*
X77015620Y-91430210D01*
X80697623Y-95112214D01*
X81891038Y-96305629D01*
X81924523Y-96366952D01*
X81926678Y-96380348D01*
X81934968Y-96459227D01*
X81944326Y-96548256D01*
X81944327Y-96548259D01*
X82002818Y-96728277D01*
X82002821Y-96728284D01*
X82097467Y-96892216D01*
X82199185Y-97005185D01*
X82224129Y-97032888D01*
X82377265Y-97144148D01*
X82377270Y-97144151D01*
X82550192Y-97221142D01*
X82550197Y-97221144D01*
X82735354Y-97260500D01*
X82735355Y-97260500D01*
X82924644Y-97260500D01*
X82924646Y-97260500D01*
X83109803Y-97221144D01*
X83130062Y-97212123D01*
X83199311Y-97202837D01*
X83262589Y-97232464D01*
X83299803Y-97291598D01*
X83304500Y-97325402D01*
X83304500Y-100625500D01*
X83284815Y-100692539D01*
X83232011Y-100738294D01*
X83180500Y-100749500D01*
X83015354Y-100749500D01*
X82982897Y-100756398D01*
X82830197Y-100788855D01*
X82830192Y-100788857D01*
X82657270Y-100865848D01*
X82657265Y-100865851D01*
X82504129Y-100977111D01*
X82377466Y-101117785D01*
X82282821Y-101281715D01*
X82282818Y-101281722D01*
X82229030Y-101447265D01*
X82198780Y-101496628D01*
X68849880Y-114845529D01*
X68849876Y-114845533D01*
X66956208Y-116739199D01*
X66943951Y-116749020D01*
X66944134Y-116749241D01*
X66938122Y-116754214D01*
X66891432Y-116803932D01*
X66890079Y-116805329D01*
X66869889Y-116825519D01*
X66869877Y-116825532D01*
X66865621Y-116831017D01*
X66861837Y-116835447D01*
X66829937Y-116869418D01*
X66829936Y-116869420D01*
X66820284Y-116886976D01*
X66809610Y-116903226D01*
X66797329Y-116919061D01*
X66797324Y-116919068D01*
X66778815Y-116961838D01*
X66776245Y-116967084D01*
X66753803Y-117007906D01*
X66748822Y-117027307D01*
X66742521Y-117045710D01*
X66734562Y-117064102D01*
X66734561Y-117064105D01*
X66727271Y-117110127D01*
X66726087Y-117115846D01*
X66714501Y-117160972D01*
X66714500Y-117160982D01*
X66714500Y-117181016D01*
X66712973Y-117200415D01*
X66709840Y-117220194D01*
X66709839Y-117220197D01*
X66714224Y-117266585D01*
X66714499Y-117272421D01*
X66714499Y-129711312D01*
X66694814Y-129778351D01*
X66682649Y-129794284D01*
X66607470Y-129877778D01*
X66607465Y-129877785D01*
X66512821Y-130041715D01*
X66512818Y-130041722D01*
X66454327Y-130221740D01*
X66454326Y-130221744D01*
X66434540Y-130410000D01*
X56000500Y-130410000D01*
X56000500Y-57900000D01*
X69664422Y-57900000D01*
X69684722Y-58287339D01*
X69745397Y-58670427D01*
X69745397Y-58670429D01*
X69845788Y-59045094D01*
X69984787Y-59407197D01*
X70160877Y-59752793D01*
X70372122Y-60078082D01*
X70494827Y-60229610D01*
X70616219Y-60379516D01*
X70890484Y-60653781D01*
X70890488Y-60653784D01*
X71191917Y-60897877D01*
X71517206Y-61109122D01*
X71517211Y-61109125D01*
X71862806Y-61285214D01*
X72224913Y-61424214D01*
X72599567Y-61524602D01*
X72982662Y-61585278D01*
X73348576Y-61604455D01*
X73369999Y-61605578D01*
X73370000Y-61605578D01*
X73370001Y-61605578D01*
X73390301Y-61604514D01*
X73757338Y-61585278D01*
X74140433Y-61524602D01*
X74515087Y-61424214D01*
X74877194Y-61285214D01*
X75222789Y-61109125D01*
X75548084Y-60897876D01*
X75849516Y-60653781D01*
X76123781Y-60379516D01*
X76367876Y-60078084D01*
X76579125Y-59752789D01*
X76755214Y-59407194D01*
X76894214Y-59045087D01*
X76994602Y-58670433D01*
X77055278Y-58287338D01*
X77075578Y-57900000D01*
X87954422Y-57900000D01*
X87974722Y-58287339D01*
X88035397Y-58670427D01*
X88035397Y-58670429D01*
X88135788Y-59045094D01*
X88274787Y-59407197D01*
X88450877Y-59752793D01*
X88662122Y-60078082D01*
X88784827Y-60229610D01*
X88906219Y-60379516D01*
X89180484Y-60653781D01*
X89180488Y-60653784D01*
X89481917Y-60897877D01*
X89807206Y-61109122D01*
X89807211Y-61109125D01*
X90152806Y-61285214D01*
X90514913Y-61424214D01*
X90889567Y-61524602D01*
X91272662Y-61585278D01*
X91638576Y-61604455D01*
X91659999Y-61605578D01*
X91660000Y-61605578D01*
X91660001Y-61605578D01*
X91680300Y-61604514D01*
X92047338Y-61585278D01*
X92430433Y-61524602D01*
X92805087Y-61424214D01*
X93167194Y-61285214D01*
X93512789Y-61109125D01*
X93838084Y-60897876D01*
X94139516Y-60653781D01*
X94413781Y-60379516D01*
X94657876Y-60078084D01*
X94869125Y-59752789D01*
X95045214Y-59407194D01*
X95184214Y-59045087D01*
X95284602Y-58670433D01*
X95345278Y-58287338D01*
X95365578Y-57900000D01*
X95345278Y-57512662D01*
X95284602Y-57129567D01*
X95184214Y-56754913D01*
X95045214Y-56392806D01*
X94869125Y-56047211D01*
X94657876Y-55721916D01*
X94413781Y-55420484D01*
X94139516Y-55146219D01*
X93838084Y-54902124D01*
X93838082Y-54902122D01*
X93512793Y-54690877D01*
X93167197Y-54514787D01*
X92805094Y-54375788D01*
X92805087Y-54375786D01*
X92430433Y-54275398D01*
X92430429Y-54275397D01*
X92430428Y-54275397D01*
X92047339Y-54214722D01*
X91660001Y-54194422D01*
X91659999Y-54194422D01*
X91272660Y-54214722D01*
X90889572Y-54275397D01*
X90889570Y-54275397D01*
X90514905Y-54375788D01*
X90152802Y-54514787D01*
X89807206Y-54690877D01*
X89481917Y-54902122D01*
X89180488Y-55146215D01*
X89180480Y-55146222D01*
X88906222Y-55420480D01*
X88906215Y-55420488D01*
X88662122Y-55721917D01*
X88450877Y-56047206D01*
X88274787Y-56392802D01*
X88135788Y-56754905D01*
X88035397Y-57129570D01*
X88035397Y-57129572D01*
X87974722Y-57512660D01*
X87954422Y-57899999D01*
X87954422Y-57900000D01*
X77075578Y-57900000D01*
X77055278Y-57512662D01*
X76994602Y-57129567D01*
X76894214Y-56754913D01*
X76755214Y-56392806D01*
X76579125Y-56047211D01*
X76367876Y-55721916D01*
X76123781Y-55420484D01*
X75849516Y-55146219D01*
X75548084Y-54902124D01*
X75548082Y-54902122D01*
X75222793Y-54690877D01*
X74877197Y-54514787D01*
X74515094Y-54375788D01*
X74515087Y-54375786D01*
X74140433Y-54275398D01*
X74140429Y-54275397D01*
X74140428Y-54275397D01*
X73757339Y-54214722D01*
X73370001Y-54194422D01*
X73369999Y-54194422D01*
X72982660Y-54214722D01*
X72599572Y-54275397D01*
X72599570Y-54275397D01*
X72224905Y-54375788D01*
X71862802Y-54514787D01*
X71517206Y-54690877D01*
X71191917Y-54902122D01*
X70890488Y-55146215D01*
X70890480Y-55146222D01*
X70616222Y-55420480D01*
X70616215Y-55420488D01*
X70372122Y-55721917D01*
X70160877Y-56047206D01*
X69984787Y-56392802D01*
X69845788Y-56754905D01*
X69745397Y-57129570D01*
X69745397Y-57129572D01*
X69684722Y-57512660D01*
X69664422Y-57899999D01*
X69664422Y-57900000D01*
X56000500Y-57900000D01*
X56000500Y-47886531D01*
X56000510Y-47885497D01*
X56003750Y-47730000D01*
X56004517Y-47693107D01*
X56004550Y-47692074D01*
X56009500Y-47572392D01*
X56017525Y-47388608D01*
X56018344Y-47380914D01*
X56162080Y-46535406D01*
X56163782Y-46528100D01*
X56224115Y-46325445D01*
X56228026Y-46313042D01*
X56229759Y-46308248D01*
X56557307Y-45506799D01*
X56559701Y-45501635D01*
X56572828Y-45476417D01*
X56634502Y-45357944D01*
X56636180Y-45354935D01*
X56746806Y-45169282D01*
X56747673Y-45167874D01*
X56788575Y-45103672D01*
X56792070Y-45098736D01*
X57388363Y-44337948D01*
X57393293Y-44332385D01*
X57544208Y-44181470D01*
X57546077Y-44179682D01*
X57582983Y-44145863D01*
X57639921Y-44093690D01*
X57655913Y-44081278D01*
X58126301Y-43774219D01*
X58941464Y-43242099D01*
X58981576Y-43225062D01*
X60842925Y-42799080D01*
X60865438Y-42796065D01*
X60998720Y-42790552D01*
X61001279Y-42790500D01*
X123998720Y-42790500D01*
X124001279Y-42790552D01*
G37*
%TD.AperFunction*%
%TD*%
M02*
