%TF.GenerationSoftware,KiCad,Pcbnew,7.0.5*%
%TF.CreationDate,2023-09-04T17:01:56+02:00*%
%TF.ProjectId,mABoard,6d41426f-6172-4642-9e6b-696361645f70,rev?*%
%TF.SameCoordinates,Original*%
%TF.FileFunction,Legend,Top*%
%TF.FilePolarity,Positive*%
%FSLAX46Y46*%
G04 Gerber Fmt 4.6, Leading zero omitted, Abs format (unit mm)*
G04 Created by KiCad (PCBNEW 7.0.5) date 2023-09-04 17:01:56*
%MOMM*%
%LPD*%
G01*
G04 APERTURE LIST*
%ADD10C,0.300000*%
%ADD11C,0.150000*%
%ADD12C,0.120000*%
G04 APERTURE END LIST*
D10*
X95054510Y-147605828D02*
X95054510Y-146105828D01*
X95054510Y-146105828D02*
X95554510Y-147177257D01*
X95554510Y-147177257D02*
X96054510Y-146105828D01*
X96054510Y-146105828D02*
X96054510Y-147605828D01*
X97340225Y-147534400D02*
X97197368Y-147605828D01*
X97197368Y-147605828D02*
X96911654Y-147605828D01*
X96911654Y-147605828D02*
X96768796Y-147534400D01*
X96768796Y-147534400D02*
X96697368Y-147391542D01*
X96697368Y-147391542D02*
X96697368Y-146820114D01*
X96697368Y-146820114D02*
X96768796Y-146677257D01*
X96768796Y-146677257D02*
X96911654Y-146605828D01*
X96911654Y-146605828D02*
X97197368Y-146605828D01*
X97197368Y-146605828D02*
X97340225Y-146677257D01*
X97340225Y-146677257D02*
X97411654Y-146820114D01*
X97411654Y-146820114D02*
X97411654Y-146962971D01*
X97411654Y-146962971D02*
X96697368Y-147105828D01*
X98697368Y-147605828D02*
X98697368Y-146820114D01*
X98697368Y-146820114D02*
X98625939Y-146677257D01*
X98625939Y-146677257D02*
X98483082Y-146605828D01*
X98483082Y-146605828D02*
X98197368Y-146605828D01*
X98197368Y-146605828D02*
X98054510Y-146677257D01*
X98697368Y-147534400D02*
X98554510Y-147605828D01*
X98554510Y-147605828D02*
X98197368Y-147605828D01*
X98197368Y-147605828D02*
X98054510Y-147534400D01*
X98054510Y-147534400D02*
X97983082Y-147391542D01*
X97983082Y-147391542D02*
X97983082Y-147248685D01*
X97983082Y-147248685D02*
X98054510Y-147105828D01*
X98054510Y-147105828D02*
X98197368Y-147034400D01*
X98197368Y-147034400D02*
X98554510Y-147034400D01*
X98554510Y-147034400D02*
X98697368Y-146962971D01*
X99340225Y-147534400D02*
X99483082Y-147605828D01*
X99483082Y-147605828D02*
X99768796Y-147605828D01*
X99768796Y-147605828D02*
X99911653Y-147534400D01*
X99911653Y-147534400D02*
X99983082Y-147391542D01*
X99983082Y-147391542D02*
X99983082Y-147320114D01*
X99983082Y-147320114D02*
X99911653Y-147177257D01*
X99911653Y-147177257D02*
X99768796Y-147105828D01*
X99768796Y-147105828D02*
X99554511Y-147105828D01*
X99554511Y-147105828D02*
X99411653Y-147034400D01*
X99411653Y-147034400D02*
X99340225Y-146891542D01*
X99340225Y-146891542D02*
X99340225Y-146820114D01*
X99340225Y-146820114D02*
X99411653Y-146677257D01*
X99411653Y-146677257D02*
X99554511Y-146605828D01*
X99554511Y-146605828D02*
X99768796Y-146605828D01*
X99768796Y-146605828D02*
X99911653Y-146677257D01*
X101268797Y-146605828D02*
X101268797Y-147605828D01*
X100625939Y-146605828D02*
X100625939Y-147391542D01*
X100625939Y-147391542D02*
X100697368Y-147534400D01*
X100697368Y-147534400D02*
X100840225Y-147605828D01*
X100840225Y-147605828D02*
X101054511Y-147605828D01*
X101054511Y-147605828D02*
X101197368Y-147534400D01*
X101197368Y-147534400D02*
X101268797Y-147462971D01*
X101983082Y-147605828D02*
X101983082Y-146605828D01*
X101983082Y-146891542D02*
X102054511Y-146748685D01*
X102054511Y-146748685D02*
X102125940Y-146677257D01*
X102125940Y-146677257D02*
X102268797Y-146605828D01*
X102268797Y-146605828D02*
X102411654Y-146605828D01*
X103483082Y-147534400D02*
X103340225Y-147605828D01*
X103340225Y-147605828D02*
X103054511Y-147605828D01*
X103054511Y-147605828D02*
X102911653Y-147534400D01*
X102911653Y-147534400D02*
X102840225Y-147391542D01*
X102840225Y-147391542D02*
X102840225Y-146820114D01*
X102840225Y-146820114D02*
X102911653Y-146677257D01*
X102911653Y-146677257D02*
X103054511Y-146605828D01*
X103054511Y-146605828D02*
X103340225Y-146605828D01*
X103340225Y-146605828D02*
X103483082Y-146677257D01*
X103483082Y-146677257D02*
X103554511Y-146820114D01*
X103554511Y-146820114D02*
X103554511Y-146962971D01*
X103554511Y-146962971D02*
X102840225Y-147105828D01*
X104197367Y-147605828D02*
X104197367Y-146605828D01*
X104197367Y-146748685D02*
X104268796Y-146677257D01*
X104268796Y-146677257D02*
X104411653Y-146605828D01*
X104411653Y-146605828D02*
X104625939Y-146605828D01*
X104625939Y-146605828D02*
X104768796Y-146677257D01*
X104768796Y-146677257D02*
X104840225Y-146820114D01*
X104840225Y-146820114D02*
X104840225Y-147605828D01*
X104840225Y-146820114D02*
X104911653Y-146677257D01*
X104911653Y-146677257D02*
X105054510Y-146605828D01*
X105054510Y-146605828D02*
X105268796Y-146605828D01*
X105268796Y-146605828D02*
X105411653Y-146677257D01*
X105411653Y-146677257D02*
X105483082Y-146820114D01*
X105483082Y-146820114D02*
X105483082Y-147605828D01*
X106768796Y-147534400D02*
X106625939Y-147605828D01*
X106625939Y-147605828D02*
X106340225Y-147605828D01*
X106340225Y-147605828D02*
X106197367Y-147534400D01*
X106197367Y-147534400D02*
X106125939Y-147391542D01*
X106125939Y-147391542D02*
X106125939Y-146820114D01*
X106125939Y-146820114D02*
X106197367Y-146677257D01*
X106197367Y-146677257D02*
X106340225Y-146605828D01*
X106340225Y-146605828D02*
X106625939Y-146605828D01*
X106625939Y-146605828D02*
X106768796Y-146677257D01*
X106768796Y-146677257D02*
X106840225Y-146820114D01*
X106840225Y-146820114D02*
X106840225Y-146962971D01*
X106840225Y-146962971D02*
X106125939Y-147105828D01*
X107483081Y-146605828D02*
X107483081Y-147605828D01*
X107483081Y-146748685D02*
X107554510Y-146677257D01*
X107554510Y-146677257D02*
X107697367Y-146605828D01*
X107697367Y-146605828D02*
X107911653Y-146605828D01*
X107911653Y-146605828D02*
X108054510Y-146677257D01*
X108054510Y-146677257D02*
X108125939Y-146820114D01*
X108125939Y-146820114D02*
X108125939Y-147605828D01*
X108625939Y-146605828D02*
X109197367Y-146605828D01*
X108840224Y-146105828D02*
X108840224Y-147391542D01*
X108840224Y-147391542D02*
X108911653Y-147534400D01*
X108911653Y-147534400D02*
X109054510Y-147605828D01*
X109054510Y-147605828D02*
X109197367Y-147605828D01*
X110840224Y-147605828D02*
X110840224Y-146605828D01*
X110840224Y-146748685D02*
X110911653Y-146677257D01*
X110911653Y-146677257D02*
X111054510Y-146605828D01*
X111054510Y-146605828D02*
X111268796Y-146605828D01*
X111268796Y-146605828D02*
X111411653Y-146677257D01*
X111411653Y-146677257D02*
X111483082Y-146820114D01*
X111483082Y-146820114D02*
X111483082Y-147605828D01*
X111483082Y-146820114D02*
X111554510Y-146677257D01*
X111554510Y-146677257D02*
X111697367Y-146605828D01*
X111697367Y-146605828D02*
X111911653Y-146605828D01*
X111911653Y-146605828D02*
X112054510Y-146677257D01*
X112054510Y-146677257D02*
X112125939Y-146820114D01*
X112125939Y-146820114D02*
X112125939Y-147605828D01*
X112768796Y-147177257D02*
X113483082Y-147177257D01*
X112625939Y-147605828D02*
X113125939Y-146105828D01*
X113125939Y-146105828D02*
X113625939Y-147605828D01*
X115268795Y-147605828D02*
X115268795Y-146105828D01*
X115268795Y-146677257D02*
X115411653Y-146605828D01*
X115411653Y-146605828D02*
X115697367Y-146605828D01*
X115697367Y-146605828D02*
X115840224Y-146677257D01*
X115840224Y-146677257D02*
X115911653Y-146748685D01*
X115911653Y-146748685D02*
X115983081Y-146891542D01*
X115983081Y-146891542D02*
X115983081Y-147320114D01*
X115983081Y-147320114D02*
X115911653Y-147462971D01*
X115911653Y-147462971D02*
X115840224Y-147534400D01*
X115840224Y-147534400D02*
X115697367Y-147605828D01*
X115697367Y-147605828D02*
X115411653Y-147605828D01*
X115411653Y-147605828D02*
X115268795Y-147534400D01*
X116840224Y-147605828D02*
X116697367Y-147534400D01*
X116697367Y-147534400D02*
X116625938Y-147462971D01*
X116625938Y-147462971D02*
X116554510Y-147320114D01*
X116554510Y-147320114D02*
X116554510Y-146891542D01*
X116554510Y-146891542D02*
X116625938Y-146748685D01*
X116625938Y-146748685D02*
X116697367Y-146677257D01*
X116697367Y-146677257D02*
X116840224Y-146605828D01*
X116840224Y-146605828D02*
X117054510Y-146605828D01*
X117054510Y-146605828D02*
X117197367Y-146677257D01*
X117197367Y-146677257D02*
X117268796Y-146748685D01*
X117268796Y-146748685D02*
X117340224Y-146891542D01*
X117340224Y-146891542D02*
X117340224Y-147320114D01*
X117340224Y-147320114D02*
X117268796Y-147462971D01*
X117268796Y-147462971D02*
X117197367Y-147534400D01*
X117197367Y-147534400D02*
X117054510Y-147605828D01*
X117054510Y-147605828D02*
X116840224Y-147605828D01*
X118625939Y-147605828D02*
X118625939Y-146820114D01*
X118625939Y-146820114D02*
X118554510Y-146677257D01*
X118554510Y-146677257D02*
X118411653Y-146605828D01*
X118411653Y-146605828D02*
X118125939Y-146605828D01*
X118125939Y-146605828D02*
X117983081Y-146677257D01*
X118625939Y-147534400D02*
X118483081Y-147605828D01*
X118483081Y-147605828D02*
X118125939Y-147605828D01*
X118125939Y-147605828D02*
X117983081Y-147534400D01*
X117983081Y-147534400D02*
X117911653Y-147391542D01*
X117911653Y-147391542D02*
X117911653Y-147248685D01*
X117911653Y-147248685D02*
X117983081Y-147105828D01*
X117983081Y-147105828D02*
X118125939Y-147034400D01*
X118125939Y-147034400D02*
X118483081Y-147034400D01*
X118483081Y-147034400D02*
X118625939Y-146962971D01*
X119340224Y-147605828D02*
X119340224Y-146605828D01*
X119340224Y-146891542D02*
X119411653Y-146748685D01*
X119411653Y-146748685D02*
X119483082Y-146677257D01*
X119483082Y-146677257D02*
X119625939Y-146605828D01*
X119625939Y-146605828D02*
X119768796Y-146605828D01*
X120911653Y-147605828D02*
X120911653Y-146105828D01*
X120911653Y-147534400D02*
X120768795Y-147605828D01*
X120768795Y-147605828D02*
X120483081Y-147605828D01*
X120483081Y-147605828D02*
X120340224Y-147534400D01*
X120340224Y-147534400D02*
X120268795Y-147462971D01*
X120268795Y-147462971D02*
X120197367Y-147320114D01*
X120197367Y-147320114D02*
X120197367Y-146891542D01*
X120197367Y-146891542D02*
X120268795Y-146748685D01*
X120268795Y-146748685D02*
X120340224Y-146677257D01*
X120340224Y-146677257D02*
X120483081Y-146605828D01*
X120483081Y-146605828D02*
X120768795Y-146605828D01*
X120768795Y-146605828D02*
X120911653Y-146677257D01*
X95554510Y-149235114D02*
X95768796Y-149306542D01*
X95768796Y-149306542D02*
X95840225Y-149377971D01*
X95840225Y-149377971D02*
X95911653Y-149520828D01*
X95911653Y-149520828D02*
X95911653Y-149735114D01*
X95911653Y-149735114D02*
X95840225Y-149877971D01*
X95840225Y-149877971D02*
X95768796Y-149949400D01*
X95768796Y-149949400D02*
X95625939Y-150020828D01*
X95625939Y-150020828D02*
X95054510Y-150020828D01*
X95054510Y-150020828D02*
X95054510Y-148520828D01*
X95054510Y-148520828D02*
X95554510Y-148520828D01*
X95554510Y-148520828D02*
X95697368Y-148592257D01*
X95697368Y-148592257D02*
X95768796Y-148663685D01*
X95768796Y-148663685D02*
X95840225Y-148806542D01*
X95840225Y-148806542D02*
X95840225Y-148949400D01*
X95840225Y-148949400D02*
X95768796Y-149092257D01*
X95768796Y-149092257D02*
X95697368Y-149163685D01*
X95697368Y-149163685D02*
X95554510Y-149235114D01*
X95554510Y-149235114D02*
X95054510Y-149235114D01*
X96554510Y-149877971D02*
X96625939Y-149949400D01*
X96625939Y-149949400D02*
X96554510Y-150020828D01*
X96554510Y-150020828D02*
X96483082Y-149949400D01*
X96483082Y-149949400D02*
X96554510Y-149877971D01*
X96554510Y-149877971D02*
X96554510Y-150020828D01*
X96554510Y-149092257D02*
X96625939Y-149163685D01*
X96625939Y-149163685D02*
X96554510Y-149235114D01*
X96554510Y-149235114D02*
X96483082Y-149163685D01*
X96483082Y-149163685D02*
X96554510Y-149092257D01*
X96554510Y-149092257D02*
X96554510Y-149235114D01*
X99197368Y-150020828D02*
X98340225Y-150020828D01*
X98768796Y-150020828D02*
X98768796Y-148520828D01*
X98768796Y-148520828D02*
X98625939Y-148735114D01*
X98625939Y-148735114D02*
X98483082Y-148877971D01*
X98483082Y-148877971D02*
X98340225Y-148949400D01*
X99768796Y-148663685D02*
X99840224Y-148592257D01*
X99840224Y-148592257D02*
X99983082Y-148520828D01*
X99983082Y-148520828D02*
X100340224Y-148520828D01*
X100340224Y-148520828D02*
X100483082Y-148592257D01*
X100483082Y-148592257D02*
X100554510Y-148663685D01*
X100554510Y-148663685D02*
X100625939Y-148806542D01*
X100625939Y-148806542D02*
X100625939Y-148949400D01*
X100625939Y-148949400D02*
X100554510Y-149163685D01*
X100554510Y-149163685D02*
X99697367Y-150020828D01*
X99697367Y-150020828D02*
X100625939Y-150020828D01*
X101554510Y-148520828D02*
X101697367Y-148520828D01*
X101697367Y-148520828D02*
X101840224Y-148592257D01*
X101840224Y-148592257D02*
X101911653Y-148663685D01*
X101911653Y-148663685D02*
X101983081Y-148806542D01*
X101983081Y-148806542D02*
X102054510Y-149092257D01*
X102054510Y-149092257D02*
X102054510Y-149449400D01*
X102054510Y-149449400D02*
X101983081Y-149735114D01*
X101983081Y-149735114D02*
X101911653Y-149877971D01*
X101911653Y-149877971D02*
X101840224Y-149949400D01*
X101840224Y-149949400D02*
X101697367Y-150020828D01*
X101697367Y-150020828D02*
X101554510Y-150020828D01*
X101554510Y-150020828D02*
X101411653Y-149949400D01*
X101411653Y-149949400D02*
X101340224Y-149877971D01*
X101340224Y-149877971D02*
X101268795Y-149735114D01*
X101268795Y-149735114D02*
X101197367Y-149449400D01*
X101197367Y-149449400D02*
X101197367Y-149092257D01*
X101197367Y-149092257D02*
X101268795Y-148806542D01*
X101268795Y-148806542D02*
X101340224Y-148663685D01*
X101340224Y-148663685D02*
X101411653Y-148592257D01*
X101411653Y-148592257D02*
X101554510Y-148520828D01*
X102697366Y-150020828D02*
X102697366Y-148520828D01*
X102840224Y-149449400D02*
X103268795Y-150020828D01*
X103268795Y-149020828D02*
X102697366Y-149592257D01*
X103911652Y-150020828D02*
X103911652Y-148520828D01*
X103911652Y-149235114D02*
X104768795Y-149235114D01*
X104768795Y-150020828D02*
X104768795Y-148520828D01*
X105340224Y-149020828D02*
X106125939Y-149020828D01*
X106125939Y-149020828D02*
X105340224Y-150020828D01*
X105340224Y-150020828D02*
X106125939Y-150020828D01*
X95840225Y-151007257D02*
X95697368Y-150935828D01*
X95697368Y-150935828D02*
X95483082Y-150935828D01*
X95483082Y-150935828D02*
X95268796Y-151007257D01*
X95268796Y-151007257D02*
X95125939Y-151150114D01*
X95125939Y-151150114D02*
X95054510Y-151292971D01*
X95054510Y-151292971D02*
X94983082Y-151578685D01*
X94983082Y-151578685D02*
X94983082Y-151792971D01*
X94983082Y-151792971D02*
X95054510Y-152078685D01*
X95054510Y-152078685D02*
X95125939Y-152221542D01*
X95125939Y-152221542D02*
X95268796Y-152364400D01*
X95268796Y-152364400D02*
X95483082Y-152435828D01*
X95483082Y-152435828D02*
X95625939Y-152435828D01*
X95625939Y-152435828D02*
X95840225Y-152364400D01*
X95840225Y-152364400D02*
X95911653Y-152292971D01*
X95911653Y-152292971D02*
X95911653Y-151792971D01*
X95911653Y-151792971D02*
X95625939Y-151792971D01*
X96554510Y-152292971D02*
X96625939Y-152364400D01*
X96625939Y-152364400D02*
X96554510Y-152435828D01*
X96554510Y-152435828D02*
X96483082Y-152364400D01*
X96483082Y-152364400D02*
X96554510Y-152292971D01*
X96554510Y-152292971D02*
X96554510Y-152435828D01*
X96554510Y-151507257D02*
X96625939Y-151578685D01*
X96625939Y-151578685D02*
X96554510Y-151650114D01*
X96554510Y-151650114D02*
X96483082Y-151578685D01*
X96483082Y-151578685D02*
X96554510Y-151507257D01*
X96554510Y-151507257D02*
X96554510Y-151650114D01*
X99197368Y-152435828D02*
X98340225Y-152435828D01*
X98768796Y-152435828D02*
X98768796Y-150935828D01*
X98768796Y-150935828D02*
X98625939Y-151150114D01*
X98625939Y-151150114D02*
X98483082Y-151292971D01*
X98483082Y-151292971D02*
X98340225Y-151364400D01*
X99840224Y-152435828D02*
X99840224Y-151435828D01*
X99840224Y-151578685D02*
X99911653Y-151507257D01*
X99911653Y-151507257D02*
X100054510Y-151435828D01*
X100054510Y-151435828D02*
X100268796Y-151435828D01*
X100268796Y-151435828D02*
X100411653Y-151507257D01*
X100411653Y-151507257D02*
X100483082Y-151650114D01*
X100483082Y-151650114D02*
X100483082Y-152435828D01*
X100483082Y-151650114D02*
X100554510Y-151507257D01*
X100554510Y-151507257D02*
X100697367Y-151435828D01*
X100697367Y-151435828D02*
X100911653Y-151435828D01*
X100911653Y-151435828D02*
X101054510Y-151507257D01*
X101054510Y-151507257D02*
X101125939Y-151650114D01*
X101125939Y-151650114D02*
X101125939Y-152435828D01*
X101625939Y-150935828D02*
X102125939Y-152435828D01*
X102125939Y-152435828D02*
X102625939Y-150935828D01*
X104197367Y-150864400D02*
X102911653Y-152792971D01*
X105483082Y-152435828D02*
X104625939Y-152435828D01*
X105054510Y-152435828D02*
X105054510Y-150935828D01*
X105054510Y-150935828D02*
X104911653Y-151150114D01*
X104911653Y-151150114D02*
X104768796Y-151292971D01*
X104768796Y-151292971D02*
X104625939Y-151364400D01*
X106411653Y-150935828D02*
X106554510Y-150935828D01*
X106554510Y-150935828D02*
X106697367Y-151007257D01*
X106697367Y-151007257D02*
X106768796Y-151078685D01*
X106768796Y-151078685D02*
X106840224Y-151221542D01*
X106840224Y-151221542D02*
X106911653Y-151507257D01*
X106911653Y-151507257D02*
X106911653Y-151864400D01*
X106911653Y-151864400D02*
X106840224Y-152150114D01*
X106840224Y-152150114D02*
X106768796Y-152292971D01*
X106768796Y-152292971D02*
X106697367Y-152364400D01*
X106697367Y-152364400D02*
X106554510Y-152435828D01*
X106554510Y-152435828D02*
X106411653Y-152435828D01*
X106411653Y-152435828D02*
X106268796Y-152364400D01*
X106268796Y-152364400D02*
X106197367Y-152292971D01*
X106197367Y-152292971D02*
X106125938Y-152150114D01*
X106125938Y-152150114D02*
X106054510Y-151864400D01*
X106054510Y-151864400D02*
X106054510Y-151507257D01*
X106054510Y-151507257D02*
X106125938Y-151221542D01*
X106125938Y-151221542D02*
X106197367Y-151078685D01*
X106197367Y-151078685D02*
X106268796Y-151007257D01*
X106268796Y-151007257D02*
X106411653Y-150935828D01*
X107840224Y-150935828D02*
X107983081Y-150935828D01*
X107983081Y-150935828D02*
X108125938Y-151007257D01*
X108125938Y-151007257D02*
X108197367Y-151078685D01*
X108197367Y-151078685D02*
X108268795Y-151221542D01*
X108268795Y-151221542D02*
X108340224Y-151507257D01*
X108340224Y-151507257D02*
X108340224Y-151864400D01*
X108340224Y-151864400D02*
X108268795Y-152150114D01*
X108268795Y-152150114D02*
X108197367Y-152292971D01*
X108197367Y-152292971D02*
X108125938Y-152364400D01*
X108125938Y-152364400D02*
X107983081Y-152435828D01*
X107983081Y-152435828D02*
X107840224Y-152435828D01*
X107840224Y-152435828D02*
X107697367Y-152364400D01*
X107697367Y-152364400D02*
X107625938Y-152292971D01*
X107625938Y-152292971D02*
X107554509Y-152150114D01*
X107554509Y-152150114D02*
X107483081Y-151864400D01*
X107483081Y-151864400D02*
X107483081Y-151507257D01*
X107483081Y-151507257D02*
X107554509Y-151221542D01*
X107554509Y-151221542D02*
X107625938Y-151078685D01*
X107625938Y-151078685D02*
X107697367Y-151007257D01*
X107697367Y-151007257D02*
X107840224Y-150935828D01*
X109625938Y-151435828D02*
X109625938Y-152435828D01*
X108983080Y-151435828D02*
X108983080Y-152221542D01*
X108983080Y-152221542D02*
X109054509Y-152364400D01*
X109054509Y-152364400D02*
X109197366Y-152435828D01*
X109197366Y-152435828D02*
X109411652Y-152435828D01*
X109411652Y-152435828D02*
X109554509Y-152364400D01*
X109554509Y-152364400D02*
X109625938Y-152292971D01*
X110268795Y-152007257D02*
X110983081Y-152007257D01*
X110125938Y-152435828D02*
X110625938Y-150935828D01*
X110625938Y-150935828D02*
X111125938Y-152435828D01*
X95054510Y-154850828D02*
X95054510Y-153350828D01*
X95768796Y-154850828D02*
X95768796Y-153850828D01*
X95768796Y-153993685D02*
X95840225Y-153922257D01*
X95840225Y-153922257D02*
X95983082Y-153850828D01*
X95983082Y-153850828D02*
X96197368Y-153850828D01*
X96197368Y-153850828D02*
X96340225Y-153922257D01*
X96340225Y-153922257D02*
X96411654Y-154065114D01*
X96411654Y-154065114D02*
X96411654Y-154850828D01*
X96411654Y-154065114D02*
X96483082Y-153922257D01*
X96483082Y-153922257D02*
X96625939Y-153850828D01*
X96625939Y-153850828D02*
X96840225Y-153850828D01*
X96840225Y-153850828D02*
X96983082Y-153922257D01*
X96983082Y-153922257D02*
X97054511Y-154065114D01*
X97054511Y-154065114D02*
X97054511Y-154850828D01*
X98411654Y-154850828D02*
X98411654Y-154065114D01*
X98411654Y-154065114D02*
X98340225Y-153922257D01*
X98340225Y-153922257D02*
X98197368Y-153850828D01*
X98197368Y-153850828D02*
X97911654Y-153850828D01*
X97911654Y-153850828D02*
X97768796Y-153922257D01*
X98411654Y-154779400D02*
X98268796Y-154850828D01*
X98268796Y-154850828D02*
X97911654Y-154850828D01*
X97911654Y-154850828D02*
X97768796Y-154779400D01*
X97768796Y-154779400D02*
X97697368Y-154636542D01*
X97697368Y-154636542D02*
X97697368Y-154493685D01*
X97697368Y-154493685D02*
X97768796Y-154350828D01*
X97768796Y-154350828D02*
X97911654Y-154279400D01*
X97911654Y-154279400D02*
X98268796Y-154279400D01*
X98268796Y-154279400D02*
X98411654Y-154207971D01*
X98983082Y-154850828D02*
X99768797Y-153850828D01*
X98983082Y-153850828D02*
X99768797Y-154850828D01*
X100340225Y-154707971D02*
X100411654Y-154779400D01*
X100411654Y-154779400D02*
X100340225Y-154850828D01*
X100340225Y-154850828D02*
X100268797Y-154779400D01*
X100268797Y-154779400D02*
X100340225Y-154707971D01*
X100340225Y-154707971D02*
X100340225Y-154850828D01*
X100340225Y-153922257D02*
X100411654Y-153993685D01*
X100411654Y-153993685D02*
X100340225Y-154065114D01*
X100340225Y-154065114D02*
X100268797Y-153993685D01*
X100268797Y-153993685D02*
X100340225Y-153922257D01*
X100340225Y-153922257D02*
X100340225Y-154065114D01*
X102054511Y-153350828D02*
X102983083Y-153350828D01*
X102983083Y-153350828D02*
X102483083Y-153922257D01*
X102483083Y-153922257D02*
X102697368Y-153922257D01*
X102697368Y-153922257D02*
X102840226Y-153993685D01*
X102840226Y-153993685D02*
X102911654Y-154065114D01*
X102911654Y-154065114D02*
X102983083Y-154207971D01*
X102983083Y-154207971D02*
X102983083Y-154565114D01*
X102983083Y-154565114D02*
X102911654Y-154707971D01*
X102911654Y-154707971D02*
X102840226Y-154779400D01*
X102840226Y-154779400D02*
X102697368Y-154850828D01*
X102697368Y-154850828D02*
X102268797Y-154850828D01*
X102268797Y-154850828D02*
X102125940Y-154779400D01*
X102125940Y-154779400D02*
X102054511Y-154707971D01*
X103911654Y-153350828D02*
X104054511Y-153350828D01*
X104054511Y-153350828D02*
X104197368Y-153422257D01*
X104197368Y-153422257D02*
X104268797Y-153493685D01*
X104268797Y-153493685D02*
X104340225Y-153636542D01*
X104340225Y-153636542D02*
X104411654Y-153922257D01*
X104411654Y-153922257D02*
X104411654Y-154279400D01*
X104411654Y-154279400D02*
X104340225Y-154565114D01*
X104340225Y-154565114D02*
X104268797Y-154707971D01*
X104268797Y-154707971D02*
X104197368Y-154779400D01*
X104197368Y-154779400D02*
X104054511Y-154850828D01*
X104054511Y-154850828D02*
X103911654Y-154850828D01*
X103911654Y-154850828D02*
X103768797Y-154779400D01*
X103768797Y-154779400D02*
X103697368Y-154707971D01*
X103697368Y-154707971D02*
X103625939Y-154565114D01*
X103625939Y-154565114D02*
X103554511Y-154279400D01*
X103554511Y-154279400D02*
X103554511Y-153922257D01*
X103554511Y-153922257D02*
X103625939Y-153636542D01*
X103625939Y-153636542D02*
X103697368Y-153493685D01*
X103697368Y-153493685D02*
X103768797Y-153422257D01*
X103768797Y-153422257D02*
X103911654Y-153350828D01*
X105340225Y-153350828D02*
X105483082Y-153350828D01*
X105483082Y-153350828D02*
X105625939Y-153422257D01*
X105625939Y-153422257D02*
X105697368Y-153493685D01*
X105697368Y-153493685D02*
X105768796Y-153636542D01*
X105768796Y-153636542D02*
X105840225Y-153922257D01*
X105840225Y-153922257D02*
X105840225Y-154279400D01*
X105840225Y-154279400D02*
X105768796Y-154565114D01*
X105768796Y-154565114D02*
X105697368Y-154707971D01*
X105697368Y-154707971D02*
X105625939Y-154779400D01*
X105625939Y-154779400D02*
X105483082Y-154850828D01*
X105483082Y-154850828D02*
X105340225Y-154850828D01*
X105340225Y-154850828D02*
X105197368Y-154779400D01*
X105197368Y-154779400D02*
X105125939Y-154707971D01*
X105125939Y-154707971D02*
X105054510Y-154565114D01*
X105054510Y-154565114D02*
X104983082Y-154279400D01*
X104983082Y-154279400D02*
X104983082Y-153922257D01*
X104983082Y-153922257D02*
X105054510Y-153636542D01*
X105054510Y-153636542D02*
X105125939Y-153493685D01*
X105125939Y-153493685D02*
X105197368Y-153422257D01*
X105197368Y-153422257D02*
X105340225Y-153350828D01*
X106483081Y-154850828D02*
X106483081Y-153850828D01*
X106483081Y-153993685D02*
X106554510Y-153922257D01*
X106554510Y-153922257D02*
X106697367Y-153850828D01*
X106697367Y-153850828D02*
X106911653Y-153850828D01*
X106911653Y-153850828D02*
X107054510Y-153922257D01*
X107054510Y-153922257D02*
X107125939Y-154065114D01*
X107125939Y-154065114D02*
X107125939Y-154850828D01*
X107125939Y-154065114D02*
X107197367Y-153922257D01*
X107197367Y-153922257D02*
X107340224Y-153850828D01*
X107340224Y-153850828D02*
X107554510Y-153850828D01*
X107554510Y-153850828D02*
X107697367Y-153922257D01*
X107697367Y-153922257D02*
X107768796Y-154065114D01*
X107768796Y-154065114D02*
X107768796Y-154850828D01*
X108411653Y-154422257D02*
X109125939Y-154422257D01*
X108268796Y-154850828D02*
X108768796Y-153350828D01*
X108768796Y-153350828D02*
X109268796Y-154850828D01*
D11*
X112789819Y-85968458D02*
X112789819Y-85349411D01*
X112789819Y-85349411D02*
X113170771Y-85682744D01*
X113170771Y-85682744D02*
X113170771Y-85539887D01*
X113170771Y-85539887D02*
X113218390Y-85444649D01*
X113218390Y-85444649D02*
X113266009Y-85397030D01*
X113266009Y-85397030D02*
X113361247Y-85349411D01*
X113361247Y-85349411D02*
X113599342Y-85349411D01*
X113599342Y-85349411D02*
X113694580Y-85397030D01*
X113694580Y-85397030D02*
X113742200Y-85444649D01*
X113742200Y-85444649D02*
X113789819Y-85539887D01*
X113789819Y-85539887D02*
X113789819Y-85825601D01*
X113789819Y-85825601D02*
X113742200Y-85920839D01*
X113742200Y-85920839D02*
X113694580Y-85968458D01*
X112789819Y-85063696D02*
X113789819Y-84730363D01*
X113789819Y-84730363D02*
X112789819Y-84397030D01*
X112789819Y-84158934D02*
X112789819Y-83539887D01*
X112789819Y-83539887D02*
X113170771Y-83873220D01*
X113170771Y-83873220D02*
X113170771Y-83730363D01*
X113170771Y-83730363D02*
X113218390Y-83635125D01*
X113218390Y-83635125D02*
X113266009Y-83587506D01*
X113266009Y-83587506D02*
X113361247Y-83539887D01*
X113361247Y-83539887D02*
X113599342Y-83539887D01*
X113599342Y-83539887D02*
X113694580Y-83587506D01*
X113694580Y-83587506D02*
X113742200Y-83635125D01*
X113742200Y-83635125D02*
X113789819Y-83730363D01*
X113789819Y-83730363D02*
X113789819Y-84016077D01*
X113789819Y-84016077D02*
X113742200Y-84111315D01*
X113742200Y-84111315D02*
X113694580Y-84158934D01*
X104929819Y-85117030D02*
X104929819Y-85593220D01*
X104929819Y-85593220D02*
X105406009Y-85640839D01*
X105406009Y-85640839D02*
X105358390Y-85593220D01*
X105358390Y-85593220D02*
X105310771Y-85497982D01*
X105310771Y-85497982D02*
X105310771Y-85259887D01*
X105310771Y-85259887D02*
X105358390Y-85164649D01*
X105358390Y-85164649D02*
X105406009Y-85117030D01*
X105406009Y-85117030D02*
X105501247Y-85069411D01*
X105501247Y-85069411D02*
X105739342Y-85069411D01*
X105739342Y-85069411D02*
X105834580Y-85117030D01*
X105834580Y-85117030D02*
X105882200Y-85164649D01*
X105882200Y-85164649D02*
X105929819Y-85259887D01*
X105929819Y-85259887D02*
X105929819Y-85497982D01*
X105929819Y-85497982D02*
X105882200Y-85593220D01*
X105882200Y-85593220D02*
X105834580Y-85640839D01*
X104929819Y-84783696D02*
X105929819Y-84450363D01*
X105929819Y-84450363D02*
X104929819Y-84117030D01*
X69268866Y-134973220D02*
X69268866Y-134211316D01*
X68649819Y-133258935D02*
X68649819Y-133735125D01*
X68649819Y-133735125D02*
X69126009Y-133782744D01*
X69126009Y-133782744D02*
X69078390Y-133735125D01*
X69078390Y-133735125D02*
X69030771Y-133639887D01*
X69030771Y-133639887D02*
X69030771Y-133401792D01*
X69030771Y-133401792D02*
X69078390Y-133306554D01*
X69078390Y-133306554D02*
X69126009Y-133258935D01*
X69126009Y-133258935D02*
X69221247Y-133211316D01*
X69221247Y-133211316D02*
X69459342Y-133211316D01*
X69459342Y-133211316D02*
X69554580Y-133258935D01*
X69554580Y-133258935D02*
X69602200Y-133306554D01*
X69602200Y-133306554D02*
X69649819Y-133401792D01*
X69649819Y-133401792D02*
X69649819Y-133639887D01*
X69649819Y-133639887D02*
X69602200Y-133735125D01*
X69602200Y-133735125D02*
X69554580Y-133782744D01*
X68649819Y-132925601D02*
X69649819Y-132592268D01*
X69649819Y-132592268D02*
X68649819Y-132258935D01*
X63299819Y-134359411D02*
X63299819Y-134930839D01*
X63299819Y-134645125D02*
X62299819Y-134645125D01*
X62299819Y-134645125D02*
X62442676Y-134740363D01*
X62442676Y-134740363D02*
X62537914Y-134835601D01*
X62537914Y-134835601D02*
X62585533Y-134930839D01*
X62299819Y-133740363D02*
X62299819Y-133645125D01*
X62299819Y-133645125D02*
X62347438Y-133549887D01*
X62347438Y-133549887D02*
X62395057Y-133502268D01*
X62395057Y-133502268D02*
X62490295Y-133454649D01*
X62490295Y-133454649D02*
X62680771Y-133407030D01*
X62680771Y-133407030D02*
X62918866Y-133407030D01*
X62918866Y-133407030D02*
X63109342Y-133454649D01*
X63109342Y-133454649D02*
X63204580Y-133502268D01*
X63204580Y-133502268D02*
X63252200Y-133549887D01*
X63252200Y-133549887D02*
X63299819Y-133645125D01*
X63299819Y-133645125D02*
X63299819Y-133740363D01*
X63299819Y-133740363D02*
X63252200Y-133835601D01*
X63252200Y-133835601D02*
X63204580Y-133883220D01*
X63204580Y-133883220D02*
X63109342Y-133930839D01*
X63109342Y-133930839D02*
X62918866Y-133978458D01*
X62918866Y-133978458D02*
X62680771Y-133978458D01*
X62680771Y-133978458D02*
X62490295Y-133930839D01*
X62490295Y-133930839D02*
X62395057Y-133883220D01*
X62395057Y-133883220D02*
X62347438Y-133835601D01*
X62347438Y-133835601D02*
X62299819Y-133740363D01*
X62299819Y-133121315D02*
X63299819Y-132787982D01*
X63299819Y-132787982D02*
X62299819Y-132454649D01*
X113600588Y-139097438D02*
X113505350Y-139049819D01*
X113505350Y-139049819D02*
X113362493Y-139049819D01*
X113362493Y-139049819D02*
X113219636Y-139097438D01*
X113219636Y-139097438D02*
X113124398Y-139192676D01*
X113124398Y-139192676D02*
X113076779Y-139287914D01*
X113076779Y-139287914D02*
X113029160Y-139478390D01*
X113029160Y-139478390D02*
X113029160Y-139621247D01*
X113029160Y-139621247D02*
X113076779Y-139811723D01*
X113076779Y-139811723D02*
X113124398Y-139906961D01*
X113124398Y-139906961D02*
X113219636Y-140002200D01*
X113219636Y-140002200D02*
X113362493Y-140049819D01*
X113362493Y-140049819D02*
X113457731Y-140049819D01*
X113457731Y-140049819D02*
X113600588Y-140002200D01*
X113600588Y-140002200D02*
X113648207Y-139954580D01*
X113648207Y-139954580D02*
X113648207Y-139621247D01*
X113648207Y-139621247D02*
X113457731Y-139621247D01*
X114076779Y-140049819D02*
X114076779Y-139049819D01*
X114076779Y-139049819D02*
X114648207Y-140049819D01*
X114648207Y-140049819D02*
X114648207Y-139049819D01*
X115124398Y-140049819D02*
X115124398Y-139049819D01*
X115124398Y-139049819D02*
X115362493Y-139049819D01*
X115362493Y-139049819D02*
X115505350Y-139097438D01*
X115505350Y-139097438D02*
X115600588Y-139192676D01*
X115600588Y-139192676D02*
X115648207Y-139287914D01*
X115648207Y-139287914D02*
X115695826Y-139478390D01*
X115695826Y-139478390D02*
X115695826Y-139621247D01*
X115695826Y-139621247D02*
X115648207Y-139811723D01*
X115648207Y-139811723D02*
X115600588Y-139906961D01*
X115600588Y-139906961D02*
X115505350Y-140002200D01*
X115505350Y-140002200D02*
X115362493Y-140049819D01*
X115362493Y-140049819D02*
X115124398Y-140049819D01*
X100643922Y-139179819D02*
X100977255Y-140179819D01*
X100977255Y-140179819D02*
X101310588Y-139179819D01*
X101834398Y-139179819D02*
X102024874Y-139179819D01*
X102024874Y-139179819D02*
X102120112Y-139227438D01*
X102120112Y-139227438D02*
X102215350Y-139322676D01*
X102215350Y-139322676D02*
X102262969Y-139513152D01*
X102262969Y-139513152D02*
X102262969Y-139846485D01*
X102262969Y-139846485D02*
X102215350Y-140036961D01*
X102215350Y-140036961D02*
X102120112Y-140132200D01*
X102120112Y-140132200D02*
X102024874Y-140179819D01*
X102024874Y-140179819D02*
X101834398Y-140179819D01*
X101834398Y-140179819D02*
X101739160Y-140132200D01*
X101739160Y-140132200D02*
X101643922Y-140036961D01*
X101643922Y-140036961D02*
X101596303Y-139846485D01*
X101596303Y-139846485D02*
X101596303Y-139513152D01*
X101596303Y-139513152D02*
X101643922Y-139322676D01*
X101643922Y-139322676D02*
X101739160Y-139227438D01*
X101739160Y-139227438D02*
X101834398Y-139179819D01*
X103120112Y-139513152D02*
X103120112Y-140179819D01*
X102691541Y-139513152D02*
X102691541Y-140036961D01*
X102691541Y-140036961D02*
X102739160Y-140132200D01*
X102739160Y-140132200D02*
X102834398Y-140179819D01*
X102834398Y-140179819D02*
X102977255Y-140179819D01*
X102977255Y-140179819D02*
X103072493Y-140132200D01*
X103072493Y-140132200D02*
X103120112Y-140084580D01*
X103453446Y-139513152D02*
X103834398Y-139513152D01*
X103596303Y-139179819D02*
X103596303Y-140036961D01*
X103596303Y-140036961D02*
X103643922Y-140132200D01*
X103643922Y-140132200D02*
X103739160Y-140179819D01*
X103739160Y-140179819D02*
X103834398Y-140179819D01*
D10*
X72760225Y-63825828D02*
X71903082Y-63825828D01*
X72331653Y-63825828D02*
X72331653Y-62325828D01*
X72331653Y-62325828D02*
X72188796Y-62540114D01*
X72188796Y-62540114D02*
X72045939Y-62682971D01*
X72045939Y-62682971D02*
X71903082Y-62754400D01*
X73688796Y-62325828D02*
X73831653Y-62325828D01*
X73831653Y-62325828D02*
X73974510Y-62397257D01*
X73974510Y-62397257D02*
X74045939Y-62468685D01*
X74045939Y-62468685D02*
X74117367Y-62611542D01*
X74117367Y-62611542D02*
X74188796Y-62897257D01*
X74188796Y-62897257D02*
X74188796Y-63254400D01*
X74188796Y-63254400D02*
X74117367Y-63540114D01*
X74117367Y-63540114D02*
X74045939Y-63682971D01*
X74045939Y-63682971D02*
X73974510Y-63754400D01*
X73974510Y-63754400D02*
X73831653Y-63825828D01*
X73831653Y-63825828D02*
X73688796Y-63825828D01*
X73688796Y-63825828D02*
X73545939Y-63754400D01*
X73545939Y-63754400D02*
X73474510Y-63682971D01*
X73474510Y-63682971D02*
X73403081Y-63540114D01*
X73403081Y-63540114D02*
X73331653Y-63254400D01*
X73331653Y-63254400D02*
X73331653Y-62897257D01*
X73331653Y-62897257D02*
X73403081Y-62611542D01*
X73403081Y-62611542D02*
X73474510Y-62468685D01*
X73474510Y-62468685D02*
X73545939Y-62397257D01*
X73545939Y-62397257D02*
X73688796Y-62325828D01*
X74617367Y-62325828D02*
X75117367Y-63825828D01*
X75117367Y-63825828D02*
X75617367Y-62325828D01*
X90750225Y-62232257D02*
X90607368Y-62160828D01*
X90607368Y-62160828D02*
X90393082Y-62160828D01*
X90393082Y-62160828D02*
X90178796Y-62232257D01*
X90178796Y-62232257D02*
X90035939Y-62375114D01*
X90035939Y-62375114D02*
X89964510Y-62517971D01*
X89964510Y-62517971D02*
X89893082Y-62803685D01*
X89893082Y-62803685D02*
X89893082Y-63017971D01*
X89893082Y-63017971D02*
X89964510Y-63303685D01*
X89964510Y-63303685D02*
X90035939Y-63446542D01*
X90035939Y-63446542D02*
X90178796Y-63589400D01*
X90178796Y-63589400D02*
X90393082Y-63660828D01*
X90393082Y-63660828D02*
X90535939Y-63660828D01*
X90535939Y-63660828D02*
X90750225Y-63589400D01*
X90750225Y-63589400D02*
X90821653Y-63517971D01*
X90821653Y-63517971D02*
X90821653Y-63017971D01*
X90821653Y-63017971D02*
X90535939Y-63017971D01*
X91464510Y-63660828D02*
X91464510Y-62160828D01*
X91464510Y-62160828D02*
X92321653Y-63660828D01*
X92321653Y-63660828D02*
X92321653Y-62160828D01*
X93035939Y-63660828D02*
X93035939Y-62160828D01*
X93035939Y-62160828D02*
X93393082Y-62160828D01*
X93393082Y-62160828D02*
X93607368Y-62232257D01*
X93607368Y-62232257D02*
X93750225Y-62375114D01*
X93750225Y-62375114D02*
X93821654Y-62517971D01*
X93821654Y-62517971D02*
X93893082Y-62803685D01*
X93893082Y-62803685D02*
X93893082Y-63017971D01*
X93893082Y-63017971D02*
X93821654Y-63303685D01*
X93821654Y-63303685D02*
X93750225Y-63446542D01*
X93750225Y-63446542D02*
X93607368Y-63589400D01*
X93607368Y-63589400D02*
X93393082Y-63660828D01*
X93393082Y-63660828D02*
X93035939Y-63660828D01*
X107454510Y-63254400D02*
X108597368Y-63254400D01*
X110025939Y-62325828D02*
X109311653Y-62325828D01*
X109311653Y-62325828D02*
X109240225Y-63040114D01*
X109240225Y-63040114D02*
X109311653Y-62968685D01*
X109311653Y-62968685D02*
X109454511Y-62897257D01*
X109454511Y-62897257D02*
X109811653Y-62897257D01*
X109811653Y-62897257D02*
X109954511Y-62968685D01*
X109954511Y-62968685D02*
X110025939Y-63040114D01*
X110025939Y-63040114D02*
X110097368Y-63182971D01*
X110097368Y-63182971D02*
X110097368Y-63540114D01*
X110097368Y-63540114D02*
X110025939Y-63682971D01*
X110025939Y-63682971D02*
X109954511Y-63754400D01*
X109954511Y-63754400D02*
X109811653Y-63825828D01*
X109811653Y-63825828D02*
X109454511Y-63825828D01*
X109454511Y-63825828D02*
X109311653Y-63754400D01*
X109311653Y-63754400D02*
X109240225Y-63682971D01*
X110525939Y-62325828D02*
X111025939Y-63825828D01*
X111025939Y-63825828D02*
X111525939Y-62325828D01*
D11*
%TO.C,Q1*%
X88610057Y-79225238D02*
X88562438Y-79320476D01*
X88562438Y-79320476D02*
X88467200Y-79415714D01*
X88467200Y-79415714D02*
X88324342Y-79558571D01*
X88324342Y-79558571D02*
X88276723Y-79653809D01*
X88276723Y-79653809D02*
X88276723Y-79749047D01*
X88514819Y-79701428D02*
X88467200Y-79796666D01*
X88467200Y-79796666D02*
X88371961Y-79891904D01*
X88371961Y-79891904D02*
X88181485Y-79939523D01*
X88181485Y-79939523D02*
X87848152Y-79939523D01*
X87848152Y-79939523D02*
X87657676Y-79891904D01*
X87657676Y-79891904D02*
X87562438Y-79796666D01*
X87562438Y-79796666D02*
X87514819Y-79701428D01*
X87514819Y-79701428D02*
X87514819Y-79510952D01*
X87514819Y-79510952D02*
X87562438Y-79415714D01*
X87562438Y-79415714D02*
X87657676Y-79320476D01*
X87657676Y-79320476D02*
X87848152Y-79272857D01*
X87848152Y-79272857D02*
X88181485Y-79272857D01*
X88181485Y-79272857D02*
X88371961Y-79320476D01*
X88371961Y-79320476D02*
X88467200Y-79415714D01*
X88467200Y-79415714D02*
X88514819Y-79510952D01*
X88514819Y-79510952D02*
X88514819Y-79701428D01*
X88514819Y-78320476D02*
X88514819Y-78891904D01*
X88514819Y-78606190D02*
X87514819Y-78606190D01*
X87514819Y-78606190D02*
X87657676Y-78701428D01*
X87657676Y-78701428D02*
X87752914Y-78796666D01*
X87752914Y-78796666D02*
X87800533Y-78891904D01*
%TO.C,U3*%
X101328095Y-78484819D02*
X101328095Y-79294342D01*
X101328095Y-79294342D02*
X101375714Y-79389580D01*
X101375714Y-79389580D02*
X101423333Y-79437200D01*
X101423333Y-79437200D02*
X101518571Y-79484819D01*
X101518571Y-79484819D02*
X101709047Y-79484819D01*
X101709047Y-79484819D02*
X101804285Y-79437200D01*
X101804285Y-79437200D02*
X101851904Y-79389580D01*
X101851904Y-79389580D02*
X101899523Y-79294342D01*
X101899523Y-79294342D02*
X101899523Y-78484819D01*
X102280476Y-78484819D02*
X102899523Y-78484819D01*
X102899523Y-78484819D02*
X102566190Y-78865771D01*
X102566190Y-78865771D02*
X102709047Y-78865771D01*
X102709047Y-78865771D02*
X102804285Y-78913390D01*
X102804285Y-78913390D02*
X102851904Y-78961009D01*
X102851904Y-78961009D02*
X102899523Y-79056247D01*
X102899523Y-79056247D02*
X102899523Y-79294342D01*
X102899523Y-79294342D02*
X102851904Y-79389580D01*
X102851904Y-79389580D02*
X102804285Y-79437200D01*
X102804285Y-79437200D02*
X102709047Y-79484819D01*
X102709047Y-79484819D02*
X102423333Y-79484819D01*
X102423333Y-79484819D02*
X102328095Y-79437200D01*
X102328095Y-79437200D02*
X102280476Y-79389580D01*
%TO.C,U2*%
X89294819Y-80141904D02*
X90104342Y-80141904D01*
X90104342Y-80141904D02*
X90199580Y-80094285D01*
X90199580Y-80094285D02*
X90247200Y-80046666D01*
X90247200Y-80046666D02*
X90294819Y-79951428D01*
X90294819Y-79951428D02*
X90294819Y-79760952D01*
X90294819Y-79760952D02*
X90247200Y-79665714D01*
X90247200Y-79665714D02*
X90199580Y-79618095D01*
X90199580Y-79618095D02*
X90104342Y-79570476D01*
X90104342Y-79570476D02*
X89294819Y-79570476D01*
X89390057Y-79141904D02*
X89342438Y-79094285D01*
X89342438Y-79094285D02*
X89294819Y-78999047D01*
X89294819Y-78999047D02*
X89294819Y-78760952D01*
X89294819Y-78760952D02*
X89342438Y-78665714D01*
X89342438Y-78665714D02*
X89390057Y-78618095D01*
X89390057Y-78618095D02*
X89485295Y-78570476D01*
X89485295Y-78570476D02*
X89580533Y-78570476D01*
X89580533Y-78570476D02*
X89723390Y-78618095D01*
X89723390Y-78618095D02*
X90294819Y-79189523D01*
X90294819Y-79189523D02*
X90294819Y-78570476D01*
%TO.C,U1*%
X88678095Y-69394819D02*
X88678095Y-70204342D01*
X88678095Y-70204342D02*
X88725714Y-70299580D01*
X88725714Y-70299580D02*
X88773333Y-70347200D01*
X88773333Y-70347200D02*
X88868571Y-70394819D01*
X88868571Y-70394819D02*
X89059047Y-70394819D01*
X89059047Y-70394819D02*
X89154285Y-70347200D01*
X89154285Y-70347200D02*
X89201904Y-70299580D01*
X89201904Y-70299580D02*
X89249523Y-70204342D01*
X89249523Y-70204342D02*
X89249523Y-69394819D01*
X90249523Y-70394819D02*
X89678095Y-70394819D01*
X89963809Y-70394819D02*
X89963809Y-69394819D01*
X89963809Y-69394819D02*
X89868571Y-69537676D01*
X89868571Y-69537676D02*
X89773333Y-69632914D01*
X89773333Y-69632914D02*
X89678095Y-69680533D01*
%TO.C,RV3*%
X93924761Y-93094819D02*
X93591428Y-92618628D01*
X93353333Y-93094819D02*
X93353333Y-92094819D01*
X93353333Y-92094819D02*
X93734285Y-92094819D01*
X93734285Y-92094819D02*
X93829523Y-92142438D01*
X93829523Y-92142438D02*
X93877142Y-92190057D01*
X93877142Y-92190057D02*
X93924761Y-92285295D01*
X93924761Y-92285295D02*
X93924761Y-92428152D01*
X93924761Y-92428152D02*
X93877142Y-92523390D01*
X93877142Y-92523390D02*
X93829523Y-92571009D01*
X93829523Y-92571009D02*
X93734285Y-92618628D01*
X93734285Y-92618628D02*
X93353333Y-92618628D01*
X94210476Y-92094819D02*
X94543809Y-93094819D01*
X94543809Y-93094819D02*
X94877142Y-92094819D01*
X95115238Y-92094819D02*
X95734285Y-92094819D01*
X95734285Y-92094819D02*
X95400952Y-92475771D01*
X95400952Y-92475771D02*
X95543809Y-92475771D01*
X95543809Y-92475771D02*
X95639047Y-92523390D01*
X95639047Y-92523390D02*
X95686666Y-92571009D01*
X95686666Y-92571009D02*
X95734285Y-92666247D01*
X95734285Y-92666247D02*
X95734285Y-92904342D01*
X95734285Y-92904342D02*
X95686666Y-92999580D01*
X95686666Y-92999580D02*
X95639047Y-93047200D01*
X95639047Y-93047200D02*
X95543809Y-93094819D01*
X95543809Y-93094819D02*
X95258095Y-93094819D01*
X95258095Y-93094819D02*
X95162857Y-93047200D01*
X95162857Y-93047200D02*
X95115238Y-92999580D01*
%TO.C,RV2*%
X100204761Y-93184819D02*
X99871428Y-92708628D01*
X99633333Y-93184819D02*
X99633333Y-92184819D01*
X99633333Y-92184819D02*
X100014285Y-92184819D01*
X100014285Y-92184819D02*
X100109523Y-92232438D01*
X100109523Y-92232438D02*
X100157142Y-92280057D01*
X100157142Y-92280057D02*
X100204761Y-92375295D01*
X100204761Y-92375295D02*
X100204761Y-92518152D01*
X100204761Y-92518152D02*
X100157142Y-92613390D01*
X100157142Y-92613390D02*
X100109523Y-92661009D01*
X100109523Y-92661009D02*
X100014285Y-92708628D01*
X100014285Y-92708628D02*
X99633333Y-92708628D01*
X100490476Y-92184819D02*
X100823809Y-93184819D01*
X100823809Y-93184819D02*
X101157142Y-92184819D01*
X101442857Y-92280057D02*
X101490476Y-92232438D01*
X101490476Y-92232438D02*
X101585714Y-92184819D01*
X101585714Y-92184819D02*
X101823809Y-92184819D01*
X101823809Y-92184819D02*
X101919047Y-92232438D01*
X101919047Y-92232438D02*
X101966666Y-92280057D01*
X101966666Y-92280057D02*
X102014285Y-92375295D01*
X102014285Y-92375295D02*
X102014285Y-92470533D01*
X102014285Y-92470533D02*
X101966666Y-92613390D01*
X101966666Y-92613390D02*
X101395238Y-93184819D01*
X101395238Y-93184819D02*
X102014285Y-93184819D01*
%TO.C,RV1*%
X106384761Y-93174819D02*
X106051428Y-92698628D01*
X105813333Y-93174819D02*
X105813333Y-92174819D01*
X105813333Y-92174819D02*
X106194285Y-92174819D01*
X106194285Y-92174819D02*
X106289523Y-92222438D01*
X106289523Y-92222438D02*
X106337142Y-92270057D01*
X106337142Y-92270057D02*
X106384761Y-92365295D01*
X106384761Y-92365295D02*
X106384761Y-92508152D01*
X106384761Y-92508152D02*
X106337142Y-92603390D01*
X106337142Y-92603390D02*
X106289523Y-92651009D01*
X106289523Y-92651009D02*
X106194285Y-92698628D01*
X106194285Y-92698628D02*
X105813333Y-92698628D01*
X106670476Y-92174819D02*
X107003809Y-93174819D01*
X107003809Y-93174819D02*
X107337142Y-92174819D01*
X108194285Y-93174819D02*
X107622857Y-93174819D01*
X107908571Y-93174819D02*
X107908571Y-92174819D01*
X107908571Y-92174819D02*
X107813333Y-92317676D01*
X107813333Y-92317676D02*
X107718095Y-92412914D01*
X107718095Y-92412914D02*
X107622857Y-92460533D01*
%TO.C,R13*%
X92244819Y-101712857D02*
X91768628Y-102046190D01*
X92244819Y-102284285D02*
X91244819Y-102284285D01*
X91244819Y-102284285D02*
X91244819Y-101903333D01*
X91244819Y-101903333D02*
X91292438Y-101808095D01*
X91292438Y-101808095D02*
X91340057Y-101760476D01*
X91340057Y-101760476D02*
X91435295Y-101712857D01*
X91435295Y-101712857D02*
X91578152Y-101712857D01*
X91578152Y-101712857D02*
X91673390Y-101760476D01*
X91673390Y-101760476D02*
X91721009Y-101808095D01*
X91721009Y-101808095D02*
X91768628Y-101903333D01*
X91768628Y-101903333D02*
X91768628Y-102284285D01*
X92244819Y-100760476D02*
X92244819Y-101331904D01*
X92244819Y-101046190D02*
X91244819Y-101046190D01*
X91244819Y-101046190D02*
X91387676Y-101141428D01*
X91387676Y-101141428D02*
X91482914Y-101236666D01*
X91482914Y-101236666D02*
X91530533Y-101331904D01*
X91244819Y-100427142D02*
X91244819Y-99808095D01*
X91244819Y-99808095D02*
X91625771Y-100141428D01*
X91625771Y-100141428D02*
X91625771Y-99998571D01*
X91625771Y-99998571D02*
X91673390Y-99903333D01*
X91673390Y-99903333D02*
X91721009Y-99855714D01*
X91721009Y-99855714D02*
X91816247Y-99808095D01*
X91816247Y-99808095D02*
X92054342Y-99808095D01*
X92054342Y-99808095D02*
X92149580Y-99855714D01*
X92149580Y-99855714D02*
X92197200Y-99903333D01*
X92197200Y-99903333D02*
X92244819Y-99998571D01*
X92244819Y-99998571D02*
X92244819Y-100284285D01*
X92244819Y-100284285D02*
X92197200Y-100379523D01*
X92197200Y-100379523D02*
X92149580Y-100427142D01*
%TO.C,R12*%
X103577142Y-108324819D02*
X103243809Y-107848628D01*
X103005714Y-108324819D02*
X103005714Y-107324819D01*
X103005714Y-107324819D02*
X103386666Y-107324819D01*
X103386666Y-107324819D02*
X103481904Y-107372438D01*
X103481904Y-107372438D02*
X103529523Y-107420057D01*
X103529523Y-107420057D02*
X103577142Y-107515295D01*
X103577142Y-107515295D02*
X103577142Y-107658152D01*
X103577142Y-107658152D02*
X103529523Y-107753390D01*
X103529523Y-107753390D02*
X103481904Y-107801009D01*
X103481904Y-107801009D02*
X103386666Y-107848628D01*
X103386666Y-107848628D02*
X103005714Y-107848628D01*
X104529523Y-108324819D02*
X103958095Y-108324819D01*
X104243809Y-108324819D02*
X104243809Y-107324819D01*
X104243809Y-107324819D02*
X104148571Y-107467676D01*
X104148571Y-107467676D02*
X104053333Y-107562914D01*
X104053333Y-107562914D02*
X103958095Y-107610533D01*
X104910476Y-107420057D02*
X104958095Y-107372438D01*
X104958095Y-107372438D02*
X105053333Y-107324819D01*
X105053333Y-107324819D02*
X105291428Y-107324819D01*
X105291428Y-107324819D02*
X105386666Y-107372438D01*
X105386666Y-107372438D02*
X105434285Y-107420057D01*
X105434285Y-107420057D02*
X105481904Y-107515295D01*
X105481904Y-107515295D02*
X105481904Y-107610533D01*
X105481904Y-107610533D02*
X105434285Y-107753390D01*
X105434285Y-107753390D02*
X104862857Y-108324819D01*
X104862857Y-108324819D02*
X105481904Y-108324819D01*
%TO.C,R11*%
X101797142Y-72144819D02*
X101463809Y-71668628D01*
X101225714Y-72144819D02*
X101225714Y-71144819D01*
X101225714Y-71144819D02*
X101606666Y-71144819D01*
X101606666Y-71144819D02*
X101701904Y-71192438D01*
X101701904Y-71192438D02*
X101749523Y-71240057D01*
X101749523Y-71240057D02*
X101797142Y-71335295D01*
X101797142Y-71335295D02*
X101797142Y-71478152D01*
X101797142Y-71478152D02*
X101749523Y-71573390D01*
X101749523Y-71573390D02*
X101701904Y-71621009D01*
X101701904Y-71621009D02*
X101606666Y-71668628D01*
X101606666Y-71668628D02*
X101225714Y-71668628D01*
X102749523Y-72144819D02*
X102178095Y-72144819D01*
X102463809Y-72144819D02*
X102463809Y-71144819D01*
X102463809Y-71144819D02*
X102368571Y-71287676D01*
X102368571Y-71287676D02*
X102273333Y-71382914D01*
X102273333Y-71382914D02*
X102178095Y-71430533D01*
X103701904Y-72144819D02*
X103130476Y-72144819D01*
X103416190Y-72144819D02*
X103416190Y-71144819D01*
X103416190Y-71144819D02*
X103320952Y-71287676D01*
X103320952Y-71287676D02*
X103225714Y-71382914D01*
X103225714Y-71382914D02*
X103130476Y-71430533D01*
%TO.C,R10*%
X89004819Y-97482857D02*
X88528628Y-97816190D01*
X89004819Y-98054285D02*
X88004819Y-98054285D01*
X88004819Y-98054285D02*
X88004819Y-97673333D01*
X88004819Y-97673333D02*
X88052438Y-97578095D01*
X88052438Y-97578095D02*
X88100057Y-97530476D01*
X88100057Y-97530476D02*
X88195295Y-97482857D01*
X88195295Y-97482857D02*
X88338152Y-97482857D01*
X88338152Y-97482857D02*
X88433390Y-97530476D01*
X88433390Y-97530476D02*
X88481009Y-97578095D01*
X88481009Y-97578095D02*
X88528628Y-97673333D01*
X88528628Y-97673333D02*
X88528628Y-98054285D01*
X89004819Y-96530476D02*
X89004819Y-97101904D01*
X89004819Y-96816190D02*
X88004819Y-96816190D01*
X88004819Y-96816190D02*
X88147676Y-96911428D01*
X88147676Y-96911428D02*
X88242914Y-97006666D01*
X88242914Y-97006666D02*
X88290533Y-97101904D01*
X88004819Y-95911428D02*
X88004819Y-95816190D01*
X88004819Y-95816190D02*
X88052438Y-95720952D01*
X88052438Y-95720952D02*
X88100057Y-95673333D01*
X88100057Y-95673333D02*
X88195295Y-95625714D01*
X88195295Y-95625714D02*
X88385771Y-95578095D01*
X88385771Y-95578095D02*
X88623866Y-95578095D01*
X88623866Y-95578095D02*
X88814342Y-95625714D01*
X88814342Y-95625714D02*
X88909580Y-95673333D01*
X88909580Y-95673333D02*
X88957200Y-95720952D01*
X88957200Y-95720952D02*
X89004819Y-95816190D01*
X89004819Y-95816190D02*
X89004819Y-95911428D01*
X89004819Y-95911428D02*
X88957200Y-96006666D01*
X88957200Y-96006666D02*
X88909580Y-96054285D01*
X88909580Y-96054285D02*
X88814342Y-96101904D01*
X88814342Y-96101904D02*
X88623866Y-96149523D01*
X88623866Y-96149523D02*
X88385771Y-96149523D01*
X88385771Y-96149523D02*
X88195295Y-96101904D01*
X88195295Y-96101904D02*
X88100057Y-96054285D01*
X88100057Y-96054285D02*
X88052438Y-96006666D01*
X88052438Y-96006666D02*
X88004819Y-95911428D01*
%TO.C,R9*%
X82424819Y-92596666D02*
X81948628Y-92929999D01*
X82424819Y-93168094D02*
X81424819Y-93168094D01*
X81424819Y-93168094D02*
X81424819Y-92787142D01*
X81424819Y-92787142D02*
X81472438Y-92691904D01*
X81472438Y-92691904D02*
X81520057Y-92644285D01*
X81520057Y-92644285D02*
X81615295Y-92596666D01*
X81615295Y-92596666D02*
X81758152Y-92596666D01*
X81758152Y-92596666D02*
X81853390Y-92644285D01*
X81853390Y-92644285D02*
X81901009Y-92691904D01*
X81901009Y-92691904D02*
X81948628Y-92787142D01*
X81948628Y-92787142D02*
X81948628Y-93168094D01*
X82424819Y-92120475D02*
X82424819Y-91929999D01*
X82424819Y-91929999D02*
X82377200Y-91834761D01*
X82377200Y-91834761D02*
X82329580Y-91787142D01*
X82329580Y-91787142D02*
X82186723Y-91691904D01*
X82186723Y-91691904D02*
X81996247Y-91644285D01*
X81996247Y-91644285D02*
X81615295Y-91644285D01*
X81615295Y-91644285D02*
X81520057Y-91691904D01*
X81520057Y-91691904D02*
X81472438Y-91739523D01*
X81472438Y-91739523D02*
X81424819Y-91834761D01*
X81424819Y-91834761D02*
X81424819Y-92025237D01*
X81424819Y-92025237D02*
X81472438Y-92120475D01*
X81472438Y-92120475D02*
X81520057Y-92168094D01*
X81520057Y-92168094D02*
X81615295Y-92215713D01*
X81615295Y-92215713D02*
X81853390Y-92215713D01*
X81853390Y-92215713D02*
X81948628Y-92168094D01*
X81948628Y-92168094D02*
X81996247Y-92120475D01*
X81996247Y-92120475D02*
X82043866Y-92025237D01*
X82043866Y-92025237D02*
X82043866Y-91834761D01*
X82043866Y-91834761D02*
X81996247Y-91739523D01*
X81996247Y-91739523D02*
X81948628Y-91691904D01*
X81948628Y-91691904D02*
X81853390Y-91644285D01*
%TO.C,R8*%
X97893333Y-100844819D02*
X97560000Y-100368628D01*
X97321905Y-100844819D02*
X97321905Y-99844819D01*
X97321905Y-99844819D02*
X97702857Y-99844819D01*
X97702857Y-99844819D02*
X97798095Y-99892438D01*
X97798095Y-99892438D02*
X97845714Y-99940057D01*
X97845714Y-99940057D02*
X97893333Y-100035295D01*
X97893333Y-100035295D02*
X97893333Y-100178152D01*
X97893333Y-100178152D02*
X97845714Y-100273390D01*
X97845714Y-100273390D02*
X97798095Y-100321009D01*
X97798095Y-100321009D02*
X97702857Y-100368628D01*
X97702857Y-100368628D02*
X97321905Y-100368628D01*
X98464762Y-100273390D02*
X98369524Y-100225771D01*
X98369524Y-100225771D02*
X98321905Y-100178152D01*
X98321905Y-100178152D02*
X98274286Y-100082914D01*
X98274286Y-100082914D02*
X98274286Y-100035295D01*
X98274286Y-100035295D02*
X98321905Y-99940057D01*
X98321905Y-99940057D02*
X98369524Y-99892438D01*
X98369524Y-99892438D02*
X98464762Y-99844819D01*
X98464762Y-99844819D02*
X98655238Y-99844819D01*
X98655238Y-99844819D02*
X98750476Y-99892438D01*
X98750476Y-99892438D02*
X98798095Y-99940057D01*
X98798095Y-99940057D02*
X98845714Y-100035295D01*
X98845714Y-100035295D02*
X98845714Y-100082914D01*
X98845714Y-100082914D02*
X98798095Y-100178152D01*
X98798095Y-100178152D02*
X98750476Y-100225771D01*
X98750476Y-100225771D02*
X98655238Y-100273390D01*
X98655238Y-100273390D02*
X98464762Y-100273390D01*
X98464762Y-100273390D02*
X98369524Y-100321009D01*
X98369524Y-100321009D02*
X98321905Y-100368628D01*
X98321905Y-100368628D02*
X98274286Y-100463866D01*
X98274286Y-100463866D02*
X98274286Y-100654342D01*
X98274286Y-100654342D02*
X98321905Y-100749580D01*
X98321905Y-100749580D02*
X98369524Y-100797200D01*
X98369524Y-100797200D02*
X98464762Y-100844819D01*
X98464762Y-100844819D02*
X98655238Y-100844819D01*
X98655238Y-100844819D02*
X98750476Y-100797200D01*
X98750476Y-100797200D02*
X98798095Y-100749580D01*
X98798095Y-100749580D02*
X98845714Y-100654342D01*
X98845714Y-100654342D02*
X98845714Y-100463866D01*
X98845714Y-100463866D02*
X98798095Y-100368628D01*
X98798095Y-100368628D02*
X98750476Y-100321009D01*
X98750476Y-100321009D02*
X98655238Y-100273390D01*
%TO.C,R7*%
X82444819Y-90246666D02*
X81968628Y-90579999D01*
X82444819Y-90818094D02*
X81444819Y-90818094D01*
X81444819Y-90818094D02*
X81444819Y-90437142D01*
X81444819Y-90437142D02*
X81492438Y-90341904D01*
X81492438Y-90341904D02*
X81540057Y-90294285D01*
X81540057Y-90294285D02*
X81635295Y-90246666D01*
X81635295Y-90246666D02*
X81778152Y-90246666D01*
X81778152Y-90246666D02*
X81873390Y-90294285D01*
X81873390Y-90294285D02*
X81921009Y-90341904D01*
X81921009Y-90341904D02*
X81968628Y-90437142D01*
X81968628Y-90437142D02*
X81968628Y-90818094D01*
X81444819Y-89913332D02*
X81444819Y-89246666D01*
X81444819Y-89246666D02*
X82444819Y-89675237D01*
%TO.C,R6*%
X80223333Y-77214819D02*
X79890000Y-76738628D01*
X79651905Y-77214819D02*
X79651905Y-76214819D01*
X79651905Y-76214819D02*
X80032857Y-76214819D01*
X80032857Y-76214819D02*
X80128095Y-76262438D01*
X80128095Y-76262438D02*
X80175714Y-76310057D01*
X80175714Y-76310057D02*
X80223333Y-76405295D01*
X80223333Y-76405295D02*
X80223333Y-76548152D01*
X80223333Y-76548152D02*
X80175714Y-76643390D01*
X80175714Y-76643390D02*
X80128095Y-76691009D01*
X80128095Y-76691009D02*
X80032857Y-76738628D01*
X80032857Y-76738628D02*
X79651905Y-76738628D01*
X81080476Y-76214819D02*
X80890000Y-76214819D01*
X80890000Y-76214819D02*
X80794762Y-76262438D01*
X80794762Y-76262438D02*
X80747143Y-76310057D01*
X80747143Y-76310057D02*
X80651905Y-76452914D01*
X80651905Y-76452914D02*
X80604286Y-76643390D01*
X80604286Y-76643390D02*
X80604286Y-77024342D01*
X80604286Y-77024342D02*
X80651905Y-77119580D01*
X80651905Y-77119580D02*
X80699524Y-77167200D01*
X80699524Y-77167200D02*
X80794762Y-77214819D01*
X80794762Y-77214819D02*
X80985238Y-77214819D01*
X80985238Y-77214819D02*
X81080476Y-77167200D01*
X81080476Y-77167200D02*
X81128095Y-77119580D01*
X81128095Y-77119580D02*
X81175714Y-77024342D01*
X81175714Y-77024342D02*
X81175714Y-76786247D01*
X81175714Y-76786247D02*
X81128095Y-76691009D01*
X81128095Y-76691009D02*
X81080476Y-76643390D01*
X81080476Y-76643390D02*
X80985238Y-76595771D01*
X80985238Y-76595771D02*
X80794762Y-76595771D01*
X80794762Y-76595771D02*
X80699524Y-76643390D01*
X80699524Y-76643390D02*
X80651905Y-76691009D01*
X80651905Y-76691009D02*
X80604286Y-76786247D01*
%TO.C,R5*%
X81913333Y-75114819D02*
X81580000Y-74638628D01*
X81341905Y-75114819D02*
X81341905Y-74114819D01*
X81341905Y-74114819D02*
X81722857Y-74114819D01*
X81722857Y-74114819D02*
X81818095Y-74162438D01*
X81818095Y-74162438D02*
X81865714Y-74210057D01*
X81865714Y-74210057D02*
X81913333Y-74305295D01*
X81913333Y-74305295D02*
X81913333Y-74448152D01*
X81913333Y-74448152D02*
X81865714Y-74543390D01*
X81865714Y-74543390D02*
X81818095Y-74591009D01*
X81818095Y-74591009D02*
X81722857Y-74638628D01*
X81722857Y-74638628D02*
X81341905Y-74638628D01*
X82818095Y-74114819D02*
X82341905Y-74114819D01*
X82341905Y-74114819D02*
X82294286Y-74591009D01*
X82294286Y-74591009D02*
X82341905Y-74543390D01*
X82341905Y-74543390D02*
X82437143Y-74495771D01*
X82437143Y-74495771D02*
X82675238Y-74495771D01*
X82675238Y-74495771D02*
X82770476Y-74543390D01*
X82770476Y-74543390D02*
X82818095Y-74591009D01*
X82818095Y-74591009D02*
X82865714Y-74686247D01*
X82865714Y-74686247D02*
X82865714Y-74924342D01*
X82865714Y-74924342D02*
X82818095Y-75019580D01*
X82818095Y-75019580D02*
X82770476Y-75067200D01*
X82770476Y-75067200D02*
X82675238Y-75114819D01*
X82675238Y-75114819D02*
X82437143Y-75114819D01*
X82437143Y-75114819D02*
X82341905Y-75067200D01*
X82341905Y-75067200D02*
X82294286Y-75019580D01*
%TO.C,R4*%
X77034819Y-70936666D02*
X76558628Y-71269999D01*
X77034819Y-71508094D02*
X76034819Y-71508094D01*
X76034819Y-71508094D02*
X76034819Y-71127142D01*
X76034819Y-71127142D02*
X76082438Y-71031904D01*
X76082438Y-71031904D02*
X76130057Y-70984285D01*
X76130057Y-70984285D02*
X76225295Y-70936666D01*
X76225295Y-70936666D02*
X76368152Y-70936666D01*
X76368152Y-70936666D02*
X76463390Y-70984285D01*
X76463390Y-70984285D02*
X76511009Y-71031904D01*
X76511009Y-71031904D02*
X76558628Y-71127142D01*
X76558628Y-71127142D02*
X76558628Y-71508094D01*
X76368152Y-70079523D02*
X77034819Y-70079523D01*
X75987200Y-70317618D02*
X76701485Y-70555713D01*
X76701485Y-70555713D02*
X76701485Y-69936666D01*
%TO.C,R3*%
X106123333Y-102864819D02*
X105790000Y-102388628D01*
X105551905Y-102864819D02*
X105551905Y-101864819D01*
X105551905Y-101864819D02*
X105932857Y-101864819D01*
X105932857Y-101864819D02*
X106028095Y-101912438D01*
X106028095Y-101912438D02*
X106075714Y-101960057D01*
X106075714Y-101960057D02*
X106123333Y-102055295D01*
X106123333Y-102055295D02*
X106123333Y-102198152D01*
X106123333Y-102198152D02*
X106075714Y-102293390D01*
X106075714Y-102293390D02*
X106028095Y-102341009D01*
X106028095Y-102341009D02*
X105932857Y-102388628D01*
X105932857Y-102388628D02*
X105551905Y-102388628D01*
X106456667Y-101864819D02*
X107075714Y-101864819D01*
X107075714Y-101864819D02*
X106742381Y-102245771D01*
X106742381Y-102245771D02*
X106885238Y-102245771D01*
X106885238Y-102245771D02*
X106980476Y-102293390D01*
X106980476Y-102293390D02*
X107028095Y-102341009D01*
X107028095Y-102341009D02*
X107075714Y-102436247D01*
X107075714Y-102436247D02*
X107075714Y-102674342D01*
X107075714Y-102674342D02*
X107028095Y-102769580D01*
X107028095Y-102769580D02*
X106980476Y-102817200D01*
X106980476Y-102817200D02*
X106885238Y-102864819D01*
X106885238Y-102864819D02*
X106599524Y-102864819D01*
X106599524Y-102864819D02*
X106504286Y-102817200D01*
X106504286Y-102817200D02*
X106456667Y-102769580D01*
%TO.C,R2*%
X104013333Y-106834819D02*
X103680000Y-106358628D01*
X103441905Y-106834819D02*
X103441905Y-105834819D01*
X103441905Y-105834819D02*
X103822857Y-105834819D01*
X103822857Y-105834819D02*
X103918095Y-105882438D01*
X103918095Y-105882438D02*
X103965714Y-105930057D01*
X103965714Y-105930057D02*
X104013333Y-106025295D01*
X104013333Y-106025295D02*
X104013333Y-106168152D01*
X104013333Y-106168152D02*
X103965714Y-106263390D01*
X103965714Y-106263390D02*
X103918095Y-106311009D01*
X103918095Y-106311009D02*
X103822857Y-106358628D01*
X103822857Y-106358628D02*
X103441905Y-106358628D01*
X104394286Y-105930057D02*
X104441905Y-105882438D01*
X104441905Y-105882438D02*
X104537143Y-105834819D01*
X104537143Y-105834819D02*
X104775238Y-105834819D01*
X104775238Y-105834819D02*
X104870476Y-105882438D01*
X104870476Y-105882438D02*
X104918095Y-105930057D01*
X104918095Y-105930057D02*
X104965714Y-106025295D01*
X104965714Y-106025295D02*
X104965714Y-106120533D01*
X104965714Y-106120533D02*
X104918095Y-106263390D01*
X104918095Y-106263390D02*
X104346667Y-106834819D01*
X104346667Y-106834819D02*
X104965714Y-106834819D01*
%TO.C,R1*%
X87333333Y-70914819D02*
X87000000Y-70438628D01*
X86761905Y-70914819D02*
X86761905Y-69914819D01*
X86761905Y-69914819D02*
X87142857Y-69914819D01*
X87142857Y-69914819D02*
X87238095Y-69962438D01*
X87238095Y-69962438D02*
X87285714Y-70010057D01*
X87285714Y-70010057D02*
X87333333Y-70105295D01*
X87333333Y-70105295D02*
X87333333Y-70248152D01*
X87333333Y-70248152D02*
X87285714Y-70343390D01*
X87285714Y-70343390D02*
X87238095Y-70391009D01*
X87238095Y-70391009D02*
X87142857Y-70438628D01*
X87142857Y-70438628D02*
X86761905Y-70438628D01*
X88285714Y-70914819D02*
X87714286Y-70914819D01*
X88000000Y-70914819D02*
X88000000Y-69914819D01*
X88000000Y-69914819D02*
X87904762Y-70057676D01*
X87904762Y-70057676D02*
X87809524Y-70152914D01*
X87809524Y-70152914D02*
X87714286Y-70200533D01*
%TO.C,Q2*%
X73044761Y-82810057D02*
X72949523Y-82762438D01*
X72949523Y-82762438D02*
X72854285Y-82667200D01*
X72854285Y-82667200D02*
X72711428Y-82524342D01*
X72711428Y-82524342D02*
X72616190Y-82476723D01*
X72616190Y-82476723D02*
X72520952Y-82476723D01*
X72568571Y-82714819D02*
X72473333Y-82667200D01*
X72473333Y-82667200D02*
X72378095Y-82571961D01*
X72378095Y-82571961D02*
X72330476Y-82381485D01*
X72330476Y-82381485D02*
X72330476Y-82048152D01*
X72330476Y-82048152D02*
X72378095Y-81857676D01*
X72378095Y-81857676D02*
X72473333Y-81762438D01*
X72473333Y-81762438D02*
X72568571Y-81714819D01*
X72568571Y-81714819D02*
X72759047Y-81714819D01*
X72759047Y-81714819D02*
X72854285Y-81762438D01*
X72854285Y-81762438D02*
X72949523Y-81857676D01*
X72949523Y-81857676D02*
X72997142Y-82048152D01*
X72997142Y-82048152D02*
X72997142Y-82381485D01*
X72997142Y-82381485D02*
X72949523Y-82571961D01*
X72949523Y-82571961D02*
X72854285Y-82667200D01*
X72854285Y-82667200D02*
X72759047Y-82714819D01*
X72759047Y-82714819D02*
X72568571Y-82714819D01*
X73378095Y-81810057D02*
X73425714Y-81762438D01*
X73425714Y-81762438D02*
X73520952Y-81714819D01*
X73520952Y-81714819D02*
X73759047Y-81714819D01*
X73759047Y-81714819D02*
X73854285Y-81762438D01*
X73854285Y-81762438D02*
X73901904Y-81810057D01*
X73901904Y-81810057D02*
X73949523Y-81905295D01*
X73949523Y-81905295D02*
X73949523Y-82000533D01*
X73949523Y-82000533D02*
X73901904Y-82143390D01*
X73901904Y-82143390D02*
X73330476Y-82714819D01*
X73330476Y-82714819D02*
X73949523Y-82714819D01*
%TO.C,J2*%
X83596666Y-140414819D02*
X83596666Y-141129104D01*
X83596666Y-141129104D02*
X83549047Y-141271961D01*
X83549047Y-141271961D02*
X83453809Y-141367200D01*
X83453809Y-141367200D02*
X83310952Y-141414819D01*
X83310952Y-141414819D02*
X83215714Y-141414819D01*
X84025238Y-140510057D02*
X84072857Y-140462438D01*
X84072857Y-140462438D02*
X84168095Y-140414819D01*
X84168095Y-140414819D02*
X84406190Y-140414819D01*
X84406190Y-140414819D02*
X84501428Y-140462438D01*
X84501428Y-140462438D02*
X84549047Y-140510057D01*
X84549047Y-140510057D02*
X84596666Y-140605295D01*
X84596666Y-140605295D02*
X84596666Y-140700533D01*
X84596666Y-140700533D02*
X84549047Y-140843390D01*
X84549047Y-140843390D02*
X83977619Y-141414819D01*
X83977619Y-141414819D02*
X84596666Y-141414819D01*
%TO.C,J1*%
X109156666Y-78764819D02*
X109156666Y-79479104D01*
X109156666Y-79479104D02*
X109109047Y-79621961D01*
X109109047Y-79621961D02*
X109013809Y-79717200D01*
X109013809Y-79717200D02*
X108870952Y-79764819D01*
X108870952Y-79764819D02*
X108775714Y-79764819D01*
X110156666Y-79764819D02*
X109585238Y-79764819D01*
X109870952Y-79764819D02*
X109870952Y-78764819D01*
X109870952Y-78764819D02*
X109775714Y-78907676D01*
X109775714Y-78907676D02*
X109680476Y-79002914D01*
X109680476Y-79002914D02*
X109585238Y-79050533D01*
%TO.C,H5*%
X101488095Y-130704819D02*
X101488095Y-129704819D01*
X101488095Y-130181009D02*
X102059523Y-130181009D01*
X102059523Y-130704819D02*
X102059523Y-129704819D01*
X103011904Y-129704819D02*
X102535714Y-129704819D01*
X102535714Y-129704819D02*
X102488095Y-130181009D01*
X102488095Y-130181009D02*
X102535714Y-130133390D01*
X102535714Y-130133390D02*
X102630952Y-130085771D01*
X102630952Y-130085771D02*
X102869047Y-130085771D01*
X102869047Y-130085771D02*
X102964285Y-130133390D01*
X102964285Y-130133390D02*
X103011904Y-130181009D01*
X103011904Y-130181009D02*
X103059523Y-130276247D01*
X103059523Y-130276247D02*
X103059523Y-130514342D01*
X103059523Y-130514342D02*
X103011904Y-130609580D01*
X103011904Y-130609580D02*
X102964285Y-130657200D01*
X102964285Y-130657200D02*
X102869047Y-130704819D01*
X102869047Y-130704819D02*
X102630952Y-130704819D01*
X102630952Y-130704819D02*
X102535714Y-130657200D01*
X102535714Y-130657200D02*
X102488095Y-130609580D01*
%TO.C,H4*%
X113478095Y-130704819D02*
X113478095Y-129704819D01*
X113478095Y-130181009D02*
X114049523Y-130181009D01*
X114049523Y-130704819D02*
X114049523Y-129704819D01*
X114954285Y-130038152D02*
X114954285Y-130704819D01*
X114716190Y-129657200D02*
X114478095Y-130371485D01*
X114478095Y-130371485D02*
X115097142Y-130371485D01*
%TO.C,H3*%
X72608095Y-54154819D02*
X72608095Y-53154819D01*
X72608095Y-53631009D02*
X73179523Y-53631009D01*
X73179523Y-54154819D02*
X73179523Y-53154819D01*
X73560476Y-53154819D02*
X74179523Y-53154819D01*
X74179523Y-53154819D02*
X73846190Y-53535771D01*
X73846190Y-53535771D02*
X73989047Y-53535771D01*
X73989047Y-53535771D02*
X74084285Y-53583390D01*
X74084285Y-53583390D02*
X74131904Y-53631009D01*
X74131904Y-53631009D02*
X74179523Y-53726247D01*
X74179523Y-53726247D02*
X74179523Y-53964342D01*
X74179523Y-53964342D02*
X74131904Y-54059580D01*
X74131904Y-54059580D02*
X74084285Y-54107200D01*
X74084285Y-54107200D02*
X73989047Y-54154819D01*
X73989047Y-54154819D02*
X73703333Y-54154819D01*
X73703333Y-54154819D02*
X73608095Y-54107200D01*
X73608095Y-54107200D02*
X73560476Y-54059580D01*
%TO.C,H2*%
X90898095Y-54154819D02*
X90898095Y-53154819D01*
X90898095Y-53631009D02*
X91469523Y-53631009D01*
X91469523Y-54154819D02*
X91469523Y-53154819D01*
X91898095Y-53250057D02*
X91945714Y-53202438D01*
X91945714Y-53202438D02*
X92040952Y-53154819D01*
X92040952Y-53154819D02*
X92279047Y-53154819D01*
X92279047Y-53154819D02*
X92374285Y-53202438D01*
X92374285Y-53202438D02*
X92421904Y-53250057D01*
X92421904Y-53250057D02*
X92469523Y-53345295D01*
X92469523Y-53345295D02*
X92469523Y-53440533D01*
X92469523Y-53440533D02*
X92421904Y-53583390D01*
X92421904Y-53583390D02*
X91850476Y-54154819D01*
X91850476Y-54154819D02*
X92469523Y-54154819D01*
%TO.C,H1*%
X109188095Y-54154819D02*
X109188095Y-53154819D01*
X109188095Y-53631009D02*
X109759523Y-53631009D01*
X109759523Y-54154819D02*
X109759523Y-53154819D01*
X110759523Y-54154819D02*
X110188095Y-54154819D01*
X110473809Y-54154819D02*
X110473809Y-53154819D01*
X110473809Y-53154819D02*
X110378571Y-53297676D01*
X110378571Y-53297676D02*
X110283333Y-53392914D01*
X110283333Y-53392914D02*
X110188095Y-53440533D01*
%TO.C,FB2*%
X79966666Y-61501009D02*
X79633333Y-61501009D01*
X79633333Y-62024819D02*
X79633333Y-61024819D01*
X79633333Y-61024819D02*
X80109523Y-61024819D01*
X80823809Y-61501009D02*
X80966666Y-61548628D01*
X80966666Y-61548628D02*
X81014285Y-61596247D01*
X81014285Y-61596247D02*
X81061904Y-61691485D01*
X81061904Y-61691485D02*
X81061904Y-61834342D01*
X81061904Y-61834342D02*
X81014285Y-61929580D01*
X81014285Y-61929580D02*
X80966666Y-61977200D01*
X80966666Y-61977200D02*
X80871428Y-62024819D01*
X80871428Y-62024819D02*
X80490476Y-62024819D01*
X80490476Y-62024819D02*
X80490476Y-61024819D01*
X80490476Y-61024819D02*
X80823809Y-61024819D01*
X80823809Y-61024819D02*
X80919047Y-61072438D01*
X80919047Y-61072438D02*
X80966666Y-61120057D01*
X80966666Y-61120057D02*
X81014285Y-61215295D01*
X81014285Y-61215295D02*
X81014285Y-61310533D01*
X81014285Y-61310533D02*
X80966666Y-61405771D01*
X80966666Y-61405771D02*
X80919047Y-61453390D01*
X80919047Y-61453390D02*
X80823809Y-61501009D01*
X80823809Y-61501009D02*
X80490476Y-61501009D01*
X81442857Y-61120057D02*
X81490476Y-61072438D01*
X81490476Y-61072438D02*
X81585714Y-61024819D01*
X81585714Y-61024819D02*
X81823809Y-61024819D01*
X81823809Y-61024819D02*
X81919047Y-61072438D01*
X81919047Y-61072438D02*
X81966666Y-61120057D01*
X81966666Y-61120057D02*
X82014285Y-61215295D01*
X82014285Y-61215295D02*
X82014285Y-61310533D01*
X82014285Y-61310533D02*
X81966666Y-61453390D01*
X81966666Y-61453390D02*
X81395238Y-62024819D01*
X81395238Y-62024819D02*
X82014285Y-62024819D01*
%TO.C,FB1*%
X82896666Y-61471009D02*
X82563333Y-61471009D01*
X82563333Y-61994819D02*
X82563333Y-60994819D01*
X82563333Y-60994819D02*
X83039523Y-60994819D01*
X83753809Y-61471009D02*
X83896666Y-61518628D01*
X83896666Y-61518628D02*
X83944285Y-61566247D01*
X83944285Y-61566247D02*
X83991904Y-61661485D01*
X83991904Y-61661485D02*
X83991904Y-61804342D01*
X83991904Y-61804342D02*
X83944285Y-61899580D01*
X83944285Y-61899580D02*
X83896666Y-61947200D01*
X83896666Y-61947200D02*
X83801428Y-61994819D01*
X83801428Y-61994819D02*
X83420476Y-61994819D01*
X83420476Y-61994819D02*
X83420476Y-60994819D01*
X83420476Y-60994819D02*
X83753809Y-60994819D01*
X83753809Y-60994819D02*
X83849047Y-61042438D01*
X83849047Y-61042438D02*
X83896666Y-61090057D01*
X83896666Y-61090057D02*
X83944285Y-61185295D01*
X83944285Y-61185295D02*
X83944285Y-61280533D01*
X83944285Y-61280533D02*
X83896666Y-61375771D01*
X83896666Y-61375771D02*
X83849047Y-61423390D01*
X83849047Y-61423390D02*
X83753809Y-61471009D01*
X83753809Y-61471009D02*
X83420476Y-61471009D01*
X84944285Y-61994819D02*
X84372857Y-61994819D01*
X84658571Y-61994819D02*
X84658571Y-60994819D01*
X84658571Y-60994819D02*
X84563333Y-61137676D01*
X84563333Y-61137676D02*
X84468095Y-61232914D01*
X84468095Y-61232914D02*
X84372857Y-61280533D01*
%TO.C,D2*%
X77371905Y-88284819D02*
X77371905Y-87284819D01*
X77371905Y-87284819D02*
X77610000Y-87284819D01*
X77610000Y-87284819D02*
X77752857Y-87332438D01*
X77752857Y-87332438D02*
X77848095Y-87427676D01*
X77848095Y-87427676D02*
X77895714Y-87522914D01*
X77895714Y-87522914D02*
X77943333Y-87713390D01*
X77943333Y-87713390D02*
X77943333Y-87856247D01*
X77943333Y-87856247D02*
X77895714Y-88046723D01*
X77895714Y-88046723D02*
X77848095Y-88141961D01*
X77848095Y-88141961D02*
X77752857Y-88237200D01*
X77752857Y-88237200D02*
X77610000Y-88284819D01*
X77610000Y-88284819D02*
X77371905Y-88284819D01*
X78324286Y-87380057D02*
X78371905Y-87332438D01*
X78371905Y-87332438D02*
X78467143Y-87284819D01*
X78467143Y-87284819D02*
X78705238Y-87284819D01*
X78705238Y-87284819D02*
X78800476Y-87332438D01*
X78800476Y-87332438D02*
X78848095Y-87380057D01*
X78848095Y-87380057D02*
X78895714Y-87475295D01*
X78895714Y-87475295D02*
X78895714Y-87570533D01*
X78895714Y-87570533D02*
X78848095Y-87713390D01*
X78848095Y-87713390D02*
X78276667Y-88284819D01*
X78276667Y-88284819D02*
X78895714Y-88284819D01*
%TO.C,D1*%
X77881905Y-68494819D02*
X77881905Y-67494819D01*
X77881905Y-67494819D02*
X78120000Y-67494819D01*
X78120000Y-67494819D02*
X78262857Y-67542438D01*
X78262857Y-67542438D02*
X78358095Y-67637676D01*
X78358095Y-67637676D02*
X78405714Y-67732914D01*
X78405714Y-67732914D02*
X78453333Y-67923390D01*
X78453333Y-67923390D02*
X78453333Y-68066247D01*
X78453333Y-68066247D02*
X78405714Y-68256723D01*
X78405714Y-68256723D02*
X78358095Y-68351961D01*
X78358095Y-68351961D02*
X78262857Y-68447200D01*
X78262857Y-68447200D02*
X78120000Y-68494819D01*
X78120000Y-68494819D02*
X77881905Y-68494819D01*
X79405714Y-68494819D02*
X78834286Y-68494819D01*
X79120000Y-68494819D02*
X79120000Y-67494819D01*
X79120000Y-67494819D02*
X79024762Y-67637676D01*
X79024762Y-67637676D02*
X78929524Y-67732914D01*
X78929524Y-67732914D02*
X78834286Y-67780533D01*
%TO.C,C9*%
X93943333Y-77979580D02*
X93895714Y-78027200D01*
X93895714Y-78027200D02*
X93752857Y-78074819D01*
X93752857Y-78074819D02*
X93657619Y-78074819D01*
X93657619Y-78074819D02*
X93514762Y-78027200D01*
X93514762Y-78027200D02*
X93419524Y-77931961D01*
X93419524Y-77931961D02*
X93371905Y-77836723D01*
X93371905Y-77836723D02*
X93324286Y-77646247D01*
X93324286Y-77646247D02*
X93324286Y-77503390D01*
X93324286Y-77503390D02*
X93371905Y-77312914D01*
X93371905Y-77312914D02*
X93419524Y-77217676D01*
X93419524Y-77217676D02*
X93514762Y-77122438D01*
X93514762Y-77122438D02*
X93657619Y-77074819D01*
X93657619Y-77074819D02*
X93752857Y-77074819D01*
X93752857Y-77074819D02*
X93895714Y-77122438D01*
X93895714Y-77122438D02*
X93943333Y-77170057D01*
X94419524Y-78074819D02*
X94610000Y-78074819D01*
X94610000Y-78074819D02*
X94705238Y-78027200D01*
X94705238Y-78027200D02*
X94752857Y-77979580D01*
X94752857Y-77979580D02*
X94848095Y-77836723D01*
X94848095Y-77836723D02*
X94895714Y-77646247D01*
X94895714Y-77646247D02*
X94895714Y-77265295D01*
X94895714Y-77265295D02*
X94848095Y-77170057D01*
X94848095Y-77170057D02*
X94800476Y-77122438D01*
X94800476Y-77122438D02*
X94705238Y-77074819D01*
X94705238Y-77074819D02*
X94514762Y-77074819D01*
X94514762Y-77074819D02*
X94419524Y-77122438D01*
X94419524Y-77122438D02*
X94371905Y-77170057D01*
X94371905Y-77170057D02*
X94324286Y-77265295D01*
X94324286Y-77265295D02*
X94324286Y-77503390D01*
X94324286Y-77503390D02*
X94371905Y-77598628D01*
X94371905Y-77598628D02*
X94419524Y-77646247D01*
X94419524Y-77646247D02*
X94514762Y-77693866D01*
X94514762Y-77693866D02*
X94705238Y-77693866D01*
X94705238Y-77693866D02*
X94800476Y-77646247D01*
X94800476Y-77646247D02*
X94848095Y-77598628D01*
X94848095Y-77598628D02*
X94895714Y-77503390D01*
%TO.C,C8*%
X93799580Y-85516666D02*
X93847200Y-85564285D01*
X93847200Y-85564285D02*
X93894819Y-85707142D01*
X93894819Y-85707142D02*
X93894819Y-85802380D01*
X93894819Y-85802380D02*
X93847200Y-85945237D01*
X93847200Y-85945237D02*
X93751961Y-86040475D01*
X93751961Y-86040475D02*
X93656723Y-86088094D01*
X93656723Y-86088094D02*
X93466247Y-86135713D01*
X93466247Y-86135713D02*
X93323390Y-86135713D01*
X93323390Y-86135713D02*
X93132914Y-86088094D01*
X93132914Y-86088094D02*
X93037676Y-86040475D01*
X93037676Y-86040475D02*
X92942438Y-85945237D01*
X92942438Y-85945237D02*
X92894819Y-85802380D01*
X92894819Y-85802380D02*
X92894819Y-85707142D01*
X92894819Y-85707142D02*
X92942438Y-85564285D01*
X92942438Y-85564285D02*
X92990057Y-85516666D01*
X93323390Y-84945237D02*
X93275771Y-85040475D01*
X93275771Y-85040475D02*
X93228152Y-85088094D01*
X93228152Y-85088094D02*
X93132914Y-85135713D01*
X93132914Y-85135713D02*
X93085295Y-85135713D01*
X93085295Y-85135713D02*
X92990057Y-85088094D01*
X92990057Y-85088094D02*
X92942438Y-85040475D01*
X92942438Y-85040475D02*
X92894819Y-84945237D01*
X92894819Y-84945237D02*
X92894819Y-84754761D01*
X92894819Y-84754761D02*
X92942438Y-84659523D01*
X92942438Y-84659523D02*
X92990057Y-84611904D01*
X92990057Y-84611904D02*
X93085295Y-84564285D01*
X93085295Y-84564285D02*
X93132914Y-84564285D01*
X93132914Y-84564285D02*
X93228152Y-84611904D01*
X93228152Y-84611904D02*
X93275771Y-84659523D01*
X93275771Y-84659523D02*
X93323390Y-84754761D01*
X93323390Y-84754761D02*
X93323390Y-84945237D01*
X93323390Y-84945237D02*
X93371009Y-85040475D01*
X93371009Y-85040475D02*
X93418628Y-85088094D01*
X93418628Y-85088094D02*
X93513866Y-85135713D01*
X93513866Y-85135713D02*
X93704342Y-85135713D01*
X93704342Y-85135713D02*
X93799580Y-85088094D01*
X93799580Y-85088094D02*
X93847200Y-85040475D01*
X93847200Y-85040475D02*
X93894819Y-84945237D01*
X93894819Y-84945237D02*
X93894819Y-84754761D01*
X93894819Y-84754761D02*
X93847200Y-84659523D01*
X93847200Y-84659523D02*
X93799580Y-84611904D01*
X93799580Y-84611904D02*
X93704342Y-84564285D01*
X93704342Y-84564285D02*
X93513866Y-84564285D01*
X93513866Y-84564285D02*
X93418628Y-84611904D01*
X93418628Y-84611904D02*
X93371009Y-84659523D01*
X93371009Y-84659523D02*
X93323390Y-84754761D01*
%TO.C,C7*%
X106469580Y-76536666D02*
X106517200Y-76584285D01*
X106517200Y-76584285D02*
X106564819Y-76727142D01*
X106564819Y-76727142D02*
X106564819Y-76822380D01*
X106564819Y-76822380D02*
X106517200Y-76965237D01*
X106517200Y-76965237D02*
X106421961Y-77060475D01*
X106421961Y-77060475D02*
X106326723Y-77108094D01*
X106326723Y-77108094D02*
X106136247Y-77155713D01*
X106136247Y-77155713D02*
X105993390Y-77155713D01*
X105993390Y-77155713D02*
X105802914Y-77108094D01*
X105802914Y-77108094D02*
X105707676Y-77060475D01*
X105707676Y-77060475D02*
X105612438Y-76965237D01*
X105612438Y-76965237D02*
X105564819Y-76822380D01*
X105564819Y-76822380D02*
X105564819Y-76727142D01*
X105564819Y-76727142D02*
X105612438Y-76584285D01*
X105612438Y-76584285D02*
X105660057Y-76536666D01*
X105564819Y-76203332D02*
X105564819Y-75536666D01*
X105564819Y-75536666D02*
X106564819Y-75965237D01*
%TO.C,C6*%
X98663333Y-80009580D02*
X98615714Y-80057200D01*
X98615714Y-80057200D02*
X98472857Y-80104819D01*
X98472857Y-80104819D02*
X98377619Y-80104819D01*
X98377619Y-80104819D02*
X98234762Y-80057200D01*
X98234762Y-80057200D02*
X98139524Y-79961961D01*
X98139524Y-79961961D02*
X98091905Y-79866723D01*
X98091905Y-79866723D02*
X98044286Y-79676247D01*
X98044286Y-79676247D02*
X98044286Y-79533390D01*
X98044286Y-79533390D02*
X98091905Y-79342914D01*
X98091905Y-79342914D02*
X98139524Y-79247676D01*
X98139524Y-79247676D02*
X98234762Y-79152438D01*
X98234762Y-79152438D02*
X98377619Y-79104819D01*
X98377619Y-79104819D02*
X98472857Y-79104819D01*
X98472857Y-79104819D02*
X98615714Y-79152438D01*
X98615714Y-79152438D02*
X98663333Y-79200057D01*
X99520476Y-79104819D02*
X99330000Y-79104819D01*
X99330000Y-79104819D02*
X99234762Y-79152438D01*
X99234762Y-79152438D02*
X99187143Y-79200057D01*
X99187143Y-79200057D02*
X99091905Y-79342914D01*
X99091905Y-79342914D02*
X99044286Y-79533390D01*
X99044286Y-79533390D02*
X99044286Y-79914342D01*
X99044286Y-79914342D02*
X99091905Y-80009580D01*
X99091905Y-80009580D02*
X99139524Y-80057200D01*
X99139524Y-80057200D02*
X99234762Y-80104819D01*
X99234762Y-80104819D02*
X99425238Y-80104819D01*
X99425238Y-80104819D02*
X99520476Y-80057200D01*
X99520476Y-80057200D02*
X99568095Y-80009580D01*
X99568095Y-80009580D02*
X99615714Y-79914342D01*
X99615714Y-79914342D02*
X99615714Y-79676247D01*
X99615714Y-79676247D02*
X99568095Y-79581009D01*
X99568095Y-79581009D02*
X99520476Y-79533390D01*
X99520476Y-79533390D02*
X99425238Y-79485771D01*
X99425238Y-79485771D02*
X99234762Y-79485771D01*
X99234762Y-79485771D02*
X99139524Y-79533390D01*
X99139524Y-79533390D02*
X99091905Y-79581009D01*
X99091905Y-79581009D02*
X99044286Y-79676247D01*
%TO.C,C5*%
X95659580Y-99546666D02*
X95707200Y-99594285D01*
X95707200Y-99594285D02*
X95754819Y-99737142D01*
X95754819Y-99737142D02*
X95754819Y-99832380D01*
X95754819Y-99832380D02*
X95707200Y-99975237D01*
X95707200Y-99975237D02*
X95611961Y-100070475D01*
X95611961Y-100070475D02*
X95516723Y-100118094D01*
X95516723Y-100118094D02*
X95326247Y-100165713D01*
X95326247Y-100165713D02*
X95183390Y-100165713D01*
X95183390Y-100165713D02*
X94992914Y-100118094D01*
X94992914Y-100118094D02*
X94897676Y-100070475D01*
X94897676Y-100070475D02*
X94802438Y-99975237D01*
X94802438Y-99975237D02*
X94754819Y-99832380D01*
X94754819Y-99832380D02*
X94754819Y-99737142D01*
X94754819Y-99737142D02*
X94802438Y-99594285D01*
X94802438Y-99594285D02*
X94850057Y-99546666D01*
X94754819Y-98641904D02*
X94754819Y-99118094D01*
X94754819Y-99118094D02*
X95231009Y-99165713D01*
X95231009Y-99165713D02*
X95183390Y-99118094D01*
X95183390Y-99118094D02*
X95135771Y-99022856D01*
X95135771Y-99022856D02*
X95135771Y-98784761D01*
X95135771Y-98784761D02*
X95183390Y-98689523D01*
X95183390Y-98689523D02*
X95231009Y-98641904D01*
X95231009Y-98641904D02*
X95326247Y-98594285D01*
X95326247Y-98594285D02*
X95564342Y-98594285D01*
X95564342Y-98594285D02*
X95659580Y-98641904D01*
X95659580Y-98641904D02*
X95707200Y-98689523D01*
X95707200Y-98689523D02*
X95754819Y-98784761D01*
X95754819Y-98784761D02*
X95754819Y-99022856D01*
X95754819Y-99022856D02*
X95707200Y-99118094D01*
X95707200Y-99118094D02*
X95659580Y-99165713D01*
%TO.C,C4*%
X101583333Y-102699580D02*
X101535714Y-102747200D01*
X101535714Y-102747200D02*
X101392857Y-102794819D01*
X101392857Y-102794819D02*
X101297619Y-102794819D01*
X101297619Y-102794819D02*
X101154762Y-102747200D01*
X101154762Y-102747200D02*
X101059524Y-102651961D01*
X101059524Y-102651961D02*
X101011905Y-102556723D01*
X101011905Y-102556723D02*
X100964286Y-102366247D01*
X100964286Y-102366247D02*
X100964286Y-102223390D01*
X100964286Y-102223390D02*
X101011905Y-102032914D01*
X101011905Y-102032914D02*
X101059524Y-101937676D01*
X101059524Y-101937676D02*
X101154762Y-101842438D01*
X101154762Y-101842438D02*
X101297619Y-101794819D01*
X101297619Y-101794819D02*
X101392857Y-101794819D01*
X101392857Y-101794819D02*
X101535714Y-101842438D01*
X101535714Y-101842438D02*
X101583333Y-101890057D01*
X102440476Y-102128152D02*
X102440476Y-102794819D01*
X102202381Y-101747200D02*
X101964286Y-102461485D01*
X101964286Y-102461485D02*
X102583333Y-102461485D01*
%TO.C,C3*%
X110689580Y-99686666D02*
X110737200Y-99734285D01*
X110737200Y-99734285D02*
X110784819Y-99877142D01*
X110784819Y-99877142D02*
X110784819Y-99972380D01*
X110784819Y-99972380D02*
X110737200Y-100115237D01*
X110737200Y-100115237D02*
X110641961Y-100210475D01*
X110641961Y-100210475D02*
X110546723Y-100258094D01*
X110546723Y-100258094D02*
X110356247Y-100305713D01*
X110356247Y-100305713D02*
X110213390Y-100305713D01*
X110213390Y-100305713D02*
X110022914Y-100258094D01*
X110022914Y-100258094D02*
X109927676Y-100210475D01*
X109927676Y-100210475D02*
X109832438Y-100115237D01*
X109832438Y-100115237D02*
X109784819Y-99972380D01*
X109784819Y-99972380D02*
X109784819Y-99877142D01*
X109784819Y-99877142D02*
X109832438Y-99734285D01*
X109832438Y-99734285D02*
X109880057Y-99686666D01*
X109784819Y-99353332D02*
X109784819Y-98734285D01*
X109784819Y-98734285D02*
X110165771Y-99067618D01*
X110165771Y-99067618D02*
X110165771Y-98924761D01*
X110165771Y-98924761D02*
X110213390Y-98829523D01*
X110213390Y-98829523D02*
X110261009Y-98781904D01*
X110261009Y-98781904D02*
X110356247Y-98734285D01*
X110356247Y-98734285D02*
X110594342Y-98734285D01*
X110594342Y-98734285D02*
X110689580Y-98781904D01*
X110689580Y-98781904D02*
X110737200Y-98829523D01*
X110737200Y-98829523D02*
X110784819Y-98924761D01*
X110784819Y-98924761D02*
X110784819Y-99210475D01*
X110784819Y-99210475D02*
X110737200Y-99305713D01*
X110737200Y-99305713D02*
X110689580Y-99353332D01*
%TO.C,C2*%
X91029580Y-76346666D02*
X91077200Y-76394285D01*
X91077200Y-76394285D02*
X91124819Y-76537142D01*
X91124819Y-76537142D02*
X91124819Y-76632380D01*
X91124819Y-76632380D02*
X91077200Y-76775237D01*
X91077200Y-76775237D02*
X90981961Y-76870475D01*
X90981961Y-76870475D02*
X90886723Y-76918094D01*
X90886723Y-76918094D02*
X90696247Y-76965713D01*
X90696247Y-76965713D02*
X90553390Y-76965713D01*
X90553390Y-76965713D02*
X90362914Y-76918094D01*
X90362914Y-76918094D02*
X90267676Y-76870475D01*
X90267676Y-76870475D02*
X90172438Y-76775237D01*
X90172438Y-76775237D02*
X90124819Y-76632380D01*
X90124819Y-76632380D02*
X90124819Y-76537142D01*
X90124819Y-76537142D02*
X90172438Y-76394285D01*
X90172438Y-76394285D02*
X90220057Y-76346666D01*
X90220057Y-75965713D02*
X90172438Y-75918094D01*
X90172438Y-75918094D02*
X90124819Y-75822856D01*
X90124819Y-75822856D02*
X90124819Y-75584761D01*
X90124819Y-75584761D02*
X90172438Y-75489523D01*
X90172438Y-75489523D02*
X90220057Y-75441904D01*
X90220057Y-75441904D02*
X90315295Y-75394285D01*
X90315295Y-75394285D02*
X90410533Y-75394285D01*
X90410533Y-75394285D02*
X90553390Y-75441904D01*
X90553390Y-75441904D02*
X91124819Y-76013332D01*
X91124819Y-76013332D02*
X91124819Y-75394285D01*
%TO.C,C1*%
X92933333Y-68839580D02*
X92885714Y-68887200D01*
X92885714Y-68887200D02*
X92742857Y-68934819D01*
X92742857Y-68934819D02*
X92647619Y-68934819D01*
X92647619Y-68934819D02*
X92504762Y-68887200D01*
X92504762Y-68887200D02*
X92409524Y-68791961D01*
X92409524Y-68791961D02*
X92361905Y-68696723D01*
X92361905Y-68696723D02*
X92314286Y-68506247D01*
X92314286Y-68506247D02*
X92314286Y-68363390D01*
X92314286Y-68363390D02*
X92361905Y-68172914D01*
X92361905Y-68172914D02*
X92409524Y-68077676D01*
X92409524Y-68077676D02*
X92504762Y-67982438D01*
X92504762Y-67982438D02*
X92647619Y-67934819D01*
X92647619Y-67934819D02*
X92742857Y-67934819D01*
X92742857Y-67934819D02*
X92885714Y-67982438D01*
X92885714Y-67982438D02*
X92933333Y-68030057D01*
X93885714Y-68934819D02*
X93314286Y-68934819D01*
X93600000Y-68934819D02*
X93600000Y-67934819D01*
X93600000Y-67934819D02*
X93504762Y-68077676D01*
X93504762Y-68077676D02*
X93409524Y-68172914D01*
X93409524Y-68172914D02*
X93314286Y-68220533D01*
%TO.C,G\u002A\u002A\u002A*%
G36*
X71710787Y-119969331D02*
G01*
X66367798Y-119969331D01*
X66367798Y-118105110D01*
X71710787Y-118105110D01*
X71710787Y-119969331D01*
G37*
G36*
X74274089Y-119969331D02*
G01*
X72493093Y-119969331D01*
X72493093Y-118105110D01*
X74274089Y-118105110D01*
X74274089Y-119969331D01*
G37*
G36*
X78023336Y-120888500D02*
G01*
X78260524Y-120893118D01*
X78264754Y-122861369D01*
X78268983Y-124829619D01*
X77786147Y-124829619D01*
X77786147Y-120883882D01*
X78023336Y-120888500D01*
G37*
G36*
X76937261Y-119969331D02*
G01*
X75023106Y-119969331D01*
X75023106Y-117472607D01*
X69247082Y-117472607D01*
X69251379Y-116511369D01*
X69255675Y-115550130D01*
X72139391Y-115545922D01*
X75023106Y-115541714D01*
X75023106Y-113694232D01*
X76937261Y-113694232D01*
X76937261Y-119969331D01*
G37*
G36*
X87656527Y-121717037D02*
G01*
X88522058Y-121717037D01*
X88522058Y-122083223D01*
X87655341Y-122083223D01*
X87660095Y-123127686D01*
X87661061Y-123347263D01*
X87661987Y-123536135D01*
X87663135Y-123696881D01*
X87664768Y-123832086D01*
X87667147Y-123944329D01*
X87670534Y-124036194D01*
X87675193Y-124110263D01*
X87681384Y-124169116D01*
X87689370Y-124215337D01*
X87699414Y-124251506D01*
X87711776Y-124280207D01*
X87726721Y-124304020D01*
X87744509Y-124325528D01*
X87765402Y-124347313D01*
X87786047Y-124368230D01*
X87863982Y-124425477D01*
X87963048Y-124462545D01*
X88077610Y-124479043D01*
X88202030Y-124474583D01*
X88330672Y-124448777D01*
X88432129Y-124412805D01*
X88501292Y-124383158D01*
X88511675Y-124458908D01*
X88517059Y-124515797D01*
X88520812Y-124589100D01*
X88522058Y-124655348D01*
X88522058Y-124776038D01*
X88384738Y-124813318D01*
X88271850Y-124836897D01*
X88144599Y-124851944D01*
X88014158Y-124857985D01*
X87891697Y-124854548D01*
X87788389Y-124841161D01*
X87778320Y-124838980D01*
X87655549Y-124803656D01*
X87555021Y-124756822D01*
X87466283Y-124693241D01*
X87439288Y-124669082D01*
X87355695Y-124578548D01*
X87291730Y-124478616D01*
X87240449Y-124358176D01*
X87234934Y-124342162D01*
X87227928Y-124320421D01*
X87221905Y-124298076D01*
X87216777Y-124272501D01*
X87212452Y-124241070D01*
X87208839Y-124201156D01*
X87205849Y-124150134D01*
X87203390Y-124085377D01*
X87201372Y-124004259D01*
X87199703Y-123904153D01*
X87198294Y-123782433D01*
X87197054Y-123636474D01*
X87195892Y-123463647D01*
X87194717Y-123261329D01*
X87194166Y-123160975D01*
X87188298Y-122083223D01*
X86557969Y-122083223D01*
X86557969Y-121717037D01*
X87190472Y-121717037D01*
X87190472Y-120834861D01*
X87656527Y-120834861D01*
X87656527Y-121717037D01*
G37*
G36*
X111325465Y-121717037D02*
G01*
X112190996Y-121717037D01*
X112190996Y-122083223D01*
X111324280Y-122083223D01*
X111329034Y-123127686D01*
X111330000Y-123347263D01*
X111330926Y-123536135D01*
X111332074Y-123696881D01*
X111333706Y-123832086D01*
X111336085Y-123944329D01*
X111339473Y-124036194D01*
X111344131Y-124110263D01*
X111350322Y-124169116D01*
X111358309Y-124215337D01*
X111368352Y-124251506D01*
X111380715Y-124280207D01*
X111395659Y-124304020D01*
X111413447Y-124325528D01*
X111434340Y-124347313D01*
X111454985Y-124368230D01*
X111532920Y-124425477D01*
X111631987Y-124462545D01*
X111746548Y-124479043D01*
X111870968Y-124474583D01*
X111999610Y-124448777D01*
X112101067Y-124412805D01*
X112170231Y-124383158D01*
X112180614Y-124458908D01*
X112185997Y-124515797D01*
X112189750Y-124589100D01*
X112190996Y-124655348D01*
X112190996Y-124776038D01*
X112053676Y-124813318D01*
X111940788Y-124836897D01*
X111813537Y-124851944D01*
X111683096Y-124857985D01*
X111560636Y-124854548D01*
X111457327Y-124841161D01*
X111447258Y-124838980D01*
X111324488Y-124803656D01*
X111223959Y-124756822D01*
X111135222Y-124693241D01*
X111108227Y-124669082D01*
X111024633Y-124578548D01*
X110960668Y-124478616D01*
X110909388Y-124358176D01*
X110903873Y-124342162D01*
X110896866Y-124320421D01*
X110890844Y-124298076D01*
X110885715Y-124272501D01*
X110881390Y-124241070D01*
X110877778Y-124201156D01*
X110874787Y-124150134D01*
X110872328Y-124085377D01*
X110870310Y-124004259D01*
X110868642Y-123904153D01*
X110867233Y-123782433D01*
X110865992Y-123636474D01*
X110864830Y-123463647D01*
X110863656Y-123261329D01*
X110863104Y-123160975D01*
X110857236Y-122083223D01*
X110226907Y-122083223D01*
X110226907Y-121717037D01*
X110859410Y-121717037D01*
X110859410Y-120834861D01*
X111325465Y-120834861D01*
X111325465Y-121717037D01*
G37*
G36*
X91040721Y-121636793D02*
G01*
X91120622Y-121641278D01*
X91187754Y-121648730D01*
X91233818Y-121658590D01*
X91245800Y-121663878D01*
X91252479Y-121682100D01*
X91252680Y-121725716D01*
X91246289Y-121797275D01*
X91236009Y-121878873D01*
X91224762Y-121957434D01*
X91214277Y-122023320D01*
X91205688Y-122069881D01*
X91200126Y-122090468D01*
X91199914Y-122090732D01*
X91180302Y-122092712D01*
X91137917Y-122089321D01*
X91092658Y-122082957D01*
X90904975Y-122066600D01*
X90730555Y-122080507D01*
X90570691Y-122123895D01*
X90426674Y-122195982D01*
X90299796Y-122295987D01*
X90191349Y-122423128D01*
X90102625Y-122576621D01*
X90047418Y-122715726D01*
X90031204Y-122768279D01*
X90017386Y-122822014D01*
X90005778Y-122879975D01*
X89996196Y-122945203D01*
X89988454Y-123020743D01*
X89982367Y-123109637D01*
X89977751Y-123214930D01*
X89974419Y-123339663D01*
X89972188Y-123486880D01*
X89970871Y-123659625D01*
X89970283Y-123860940D01*
X89970204Y-123984894D01*
X89970157Y-124829619D01*
X89520747Y-124829619D01*
X89520747Y-123500665D01*
X89520609Y-123286725D01*
X89520208Y-123077650D01*
X89519567Y-122876537D01*
X89518707Y-122686480D01*
X89517650Y-122510575D01*
X89516418Y-122351916D01*
X89515031Y-122213600D01*
X89513513Y-122098722D01*
X89511884Y-122010377D01*
X89510166Y-121951660D01*
X89509844Y-121944374D01*
X89498941Y-121717037D01*
X89708600Y-121717037D01*
X89788641Y-121717994D01*
X89855889Y-121720606D01*
X89903746Y-121724487D01*
X89925616Y-121729249D01*
X89926142Y-121729793D01*
X89929634Y-121750075D01*
X89934039Y-121797525D01*
X89938898Y-121866052D01*
X89943757Y-121949561D01*
X89946088Y-121995968D01*
X89958151Y-122249387D01*
X90038916Y-122126361D01*
X90154408Y-121980046D01*
X90292134Y-121856789D01*
X90448439Y-121758718D01*
X90619671Y-121687961D01*
X90802178Y-121646645D01*
X90875802Y-121638958D01*
X90956348Y-121635833D01*
X91040721Y-121636793D01*
G37*
G36*
X81351571Y-121644751D02*
G01*
X81467341Y-121653134D01*
X81565781Y-121667635D01*
X81589489Y-121672942D01*
X81765668Y-121732445D01*
X81922435Y-121818860D01*
X82059408Y-121931786D01*
X82176206Y-122070821D01*
X82272446Y-122235564D01*
X82347749Y-122425613D01*
X82367172Y-122491021D01*
X82374449Y-122518261D01*
X82380712Y-122544973D01*
X82386051Y-122573815D01*
X82390557Y-122607443D01*
X82394322Y-122648512D01*
X82397435Y-122699679D01*
X82399988Y-122763600D01*
X82402073Y-122842931D01*
X82403779Y-122940328D01*
X82405198Y-123058447D01*
X82406421Y-123199945D01*
X82407539Y-123367477D01*
X82408642Y-123563700D01*
X82409493Y-123726899D01*
X82415155Y-124829619D01*
X81966453Y-124829619D01*
X81959471Y-123801801D01*
X81957924Y-123586892D01*
X81956367Y-123402550D01*
X81954714Y-123246054D01*
X81952882Y-123114682D01*
X81950785Y-123005712D01*
X81948338Y-122916422D01*
X81945456Y-122844089D01*
X81942054Y-122785993D01*
X81938048Y-122739411D01*
X81933353Y-122701621D01*
X81927883Y-122669901D01*
X81923544Y-122649836D01*
X81871277Y-122480384D01*
X81799726Y-122337203D01*
X81715643Y-122227654D01*
X81606094Y-122131644D01*
X81484273Y-122064537D01*
X81352806Y-122024492D01*
X81172327Y-122001651D01*
X80999614Y-122010139D01*
X80837119Y-122048788D01*
X80687292Y-122116431D01*
X80552581Y-122211900D01*
X80435438Y-122334028D01*
X80338313Y-122481649D01*
X80320418Y-122516329D01*
X80290005Y-122579926D01*
X80263854Y-122640332D01*
X80241648Y-122700569D01*
X80223066Y-122763657D01*
X80207791Y-122832619D01*
X80195504Y-122910475D01*
X80185885Y-123000246D01*
X80178616Y-123104954D01*
X80173378Y-123227619D01*
X80169852Y-123371264D01*
X80167719Y-123538910D01*
X80166661Y-123733577D01*
X80166358Y-123958287D01*
X80166357Y-123976135D01*
X80166357Y-124829619D01*
X79716946Y-124829619D01*
X79716946Y-123500665D01*
X79716808Y-123286725D01*
X79716408Y-123077650D01*
X79715766Y-122876537D01*
X79714906Y-122686480D01*
X79713849Y-122510575D01*
X79712617Y-122351916D01*
X79711230Y-122213600D01*
X79709712Y-122098722D01*
X79708083Y-122010377D01*
X79706365Y-121951660D01*
X79706044Y-121944374D01*
X79695141Y-121717037D01*
X79904799Y-121717037D01*
X79984840Y-121717994D01*
X80052088Y-121720606D01*
X80099945Y-121724487D01*
X80121816Y-121729249D01*
X80122341Y-121729793D01*
X80125828Y-121750067D01*
X80130229Y-121797525D01*
X80135091Y-121866089D01*
X80139958Y-121949684D01*
X80142342Y-121997117D01*
X80154459Y-122251685D01*
X80215658Y-122154971D01*
X80306656Y-122037795D01*
X80424441Y-121927752D01*
X80562625Y-121829247D01*
X80714817Y-121746686D01*
X80874627Y-121684474D01*
X80915374Y-121672521D01*
X81000371Y-121656371D01*
X81108077Y-121646363D01*
X81228480Y-121642492D01*
X81351571Y-121644751D01*
G37*
G36*
X108266250Y-121644751D02*
G01*
X108382020Y-121653134D01*
X108480460Y-121667635D01*
X108504168Y-121672942D01*
X108680347Y-121732445D01*
X108837114Y-121818860D01*
X108974087Y-121931786D01*
X109090885Y-122070821D01*
X109187125Y-122235564D01*
X109262427Y-122425613D01*
X109281851Y-122491021D01*
X109289128Y-122518261D01*
X109295391Y-122544973D01*
X109300730Y-122573815D01*
X109305236Y-122607443D01*
X109309000Y-122648512D01*
X109312114Y-122699679D01*
X109314667Y-122763600D01*
X109316751Y-122842931D01*
X109318458Y-122940328D01*
X109319877Y-123058447D01*
X109321100Y-123199945D01*
X109322218Y-123367477D01*
X109323321Y-123563700D01*
X109324171Y-123726899D01*
X109329834Y-124829619D01*
X108881132Y-124829619D01*
X108874150Y-123801801D01*
X108872603Y-123586892D01*
X108871046Y-123402550D01*
X108869393Y-123246054D01*
X108867561Y-123114682D01*
X108865464Y-123005712D01*
X108863016Y-122916422D01*
X108860135Y-122844089D01*
X108856733Y-122785993D01*
X108852727Y-122739411D01*
X108848032Y-122701621D01*
X108842562Y-122669901D01*
X108838223Y-122649836D01*
X108785955Y-122480384D01*
X108714405Y-122337203D01*
X108630322Y-122227654D01*
X108520773Y-122131644D01*
X108398952Y-122064537D01*
X108267485Y-122024492D01*
X108087006Y-122001651D01*
X107914293Y-122010139D01*
X107751798Y-122048788D01*
X107601970Y-122116431D01*
X107467260Y-122211900D01*
X107350117Y-122334028D01*
X107252992Y-122481649D01*
X107235097Y-122516329D01*
X107204684Y-122579926D01*
X107178533Y-122640332D01*
X107156327Y-122700569D01*
X107137745Y-122763657D01*
X107122470Y-122832619D01*
X107110183Y-122910475D01*
X107100564Y-123000246D01*
X107093295Y-123104954D01*
X107088057Y-123227619D01*
X107084531Y-123371264D01*
X107082398Y-123538910D01*
X107081340Y-123733577D01*
X107081037Y-123958287D01*
X107081036Y-123976135D01*
X107081036Y-124829619D01*
X106631625Y-124829619D01*
X106631625Y-123500665D01*
X106631487Y-123286725D01*
X106631086Y-123077650D01*
X106630445Y-122876537D01*
X106629585Y-122686480D01*
X106628528Y-122510575D01*
X106627296Y-122351916D01*
X106625909Y-122213600D01*
X106624391Y-122098722D01*
X106622762Y-122010377D01*
X106621044Y-121951660D01*
X106620722Y-121944374D01*
X106609820Y-121717037D01*
X106819478Y-121717037D01*
X106899519Y-121717994D01*
X106966767Y-121720606D01*
X107014624Y-121724487D01*
X107036495Y-121729249D01*
X107037020Y-121729793D01*
X107040507Y-121750067D01*
X107044908Y-121797525D01*
X107049770Y-121866089D01*
X107054637Y-121949684D01*
X107057021Y-121997117D01*
X107069138Y-122251685D01*
X107130337Y-122154971D01*
X107221335Y-122037795D01*
X107339120Y-121927752D01*
X107477304Y-121829247D01*
X107629496Y-121746686D01*
X107789306Y-121684474D01*
X107830053Y-121672521D01*
X107915050Y-121656371D01*
X108022755Y-121646363D01*
X108143158Y-121642492D01*
X108266250Y-121644751D01*
G37*
G36*
X92649974Y-122721868D02*
G01*
X92650086Y-122949878D01*
X92650574Y-123147370D01*
X92651667Y-123317115D01*
X92653591Y-123461885D01*
X92656575Y-123584451D01*
X92660846Y-123687584D01*
X92666633Y-123774057D01*
X92674164Y-123846640D01*
X92683666Y-123908104D01*
X92695367Y-123961222D01*
X92709495Y-124008764D01*
X92726278Y-124053501D01*
X92745944Y-124098206D01*
X92766709Y-124141545D01*
X92848248Y-124274478D01*
X92949821Y-124380962D01*
X93071578Y-124461084D01*
X93213668Y-124514928D01*
X93376240Y-124542580D01*
X93476130Y-124546657D01*
X93639871Y-124533618D01*
X93788271Y-124493305D01*
X93925555Y-124423926D01*
X94055948Y-124323687D01*
X94099792Y-124281928D01*
X94190324Y-124180629D01*
X94263515Y-124072490D01*
X94324137Y-123949086D01*
X94376961Y-123801986D01*
X94383410Y-123780995D01*
X94391391Y-123753856D01*
X94398180Y-123727519D01*
X94403893Y-123699116D01*
X94408643Y-123665780D01*
X94412547Y-123624645D01*
X94415719Y-123572843D01*
X94418274Y-123507507D01*
X94420326Y-123425770D01*
X94421991Y-123324766D01*
X94423384Y-123201628D01*
X94424619Y-123053487D01*
X94425812Y-122877478D01*
X94426931Y-122694920D01*
X94432712Y-121733682D01*
X94876795Y-121733682D01*
X94886179Y-123219232D01*
X94887690Y-123440144D01*
X94889367Y-123652507D01*
X94891178Y-123853829D01*
X94893090Y-124041618D01*
X94895070Y-124213381D01*
X94897086Y-124366624D01*
X94899105Y-124498856D01*
X94901094Y-124607583D01*
X94903022Y-124690313D01*
X94904854Y-124744554D01*
X94906437Y-124767201D01*
X94917312Y-124829619D01*
X94485429Y-124829619D01*
X94474845Y-124752394D01*
X94469108Y-124694185D01*
X94464795Y-124620154D01*
X94463026Y-124556817D01*
X94460680Y-124483730D01*
X94455807Y-124411863D01*
X94450371Y-124363564D01*
X94438949Y-124288662D01*
X94414758Y-124346919D01*
X94393487Y-124381787D01*
X94353950Y-124432575D01*
X94301967Y-124492224D01*
X94248481Y-124548531D01*
X94177418Y-124617777D01*
X94117279Y-124669183D01*
X94057610Y-124710425D01*
X93987956Y-124749181D01*
X93948270Y-124768977D01*
X93869350Y-124805219D01*
X93788727Y-124838534D01*
X93718740Y-124863968D01*
X93690275Y-124872534D01*
X93602779Y-124889211D01*
X93493725Y-124900376D01*
X93374437Y-124905720D01*
X93256239Y-124904933D01*
X93150453Y-124897706D01*
X93091062Y-124888891D01*
X92901811Y-124838457D01*
X92737289Y-124766393D01*
X92595855Y-124671385D01*
X92475869Y-124552122D01*
X92375690Y-124407291D01*
X92302988Y-124258555D01*
X92282525Y-124208806D01*
X92264837Y-124163383D01*
X92249706Y-124119515D01*
X92236913Y-124074433D01*
X92226238Y-124025367D01*
X92217462Y-123969548D01*
X92210366Y-123904205D01*
X92204731Y-123826570D01*
X92200337Y-123733873D01*
X92196965Y-123623343D01*
X92194396Y-123492211D01*
X92192410Y-123337708D01*
X92190789Y-123157064D01*
X92189314Y-122947510D01*
X92188436Y-122811434D01*
X92181556Y-121733682D01*
X92649974Y-121733682D01*
X92649974Y-122721868D01*
G37*
G36*
X104051942Y-121647853D02*
G01*
X104195322Y-121661725D01*
X104324269Y-121687509D01*
X104447681Y-121726995D01*
X104574456Y-121781975D01*
X104577283Y-121783340D01*
X104760445Y-121889562D01*
X104920758Y-122019430D01*
X105057572Y-122171781D01*
X105170233Y-122345450D01*
X105258091Y-122539274D01*
X105320492Y-122752088D01*
X105356785Y-122982728D01*
X105366619Y-123192284D01*
X105366619Y-123398164D01*
X102786671Y-123398164D01*
X102786671Y-123457296D01*
X102794883Y-123545075D01*
X102817517Y-123650162D01*
X102851570Y-123761501D01*
X102894040Y-123868035D01*
X102903952Y-123889186D01*
X103002515Y-124056490D01*
X103124397Y-124201402D01*
X103266789Y-124322155D01*
X103426881Y-124416986D01*
X103601862Y-124484128D01*
X103788924Y-124521815D01*
X103923382Y-124529723D01*
X104121008Y-124515119D01*
X104306087Y-124470152D01*
X104479380Y-124394454D01*
X104641646Y-124287656D01*
X104793645Y-124149389D01*
X104859805Y-124075733D01*
X104927238Y-123996107D01*
X105088672Y-124122591D01*
X105150490Y-124172039D01*
X105201369Y-124214668D01*
X105236246Y-124246095D01*
X105250057Y-124261938D01*
X105250105Y-124262300D01*
X105238409Y-124284483D01*
X105206761Y-124323314D01*
X105160326Y-124373586D01*
X105104265Y-124430096D01*
X105043741Y-124487640D01*
X104983917Y-124541011D01*
X104930165Y-124584846D01*
X104748045Y-124703249D01*
X104547572Y-124796223D01*
X104333058Y-124862712D01*
X104108820Y-124901667D01*
X103879171Y-124912033D01*
X103660524Y-124894529D01*
X103551693Y-124872883D01*
X103428300Y-124838577D01*
X103304335Y-124796068D01*
X103193787Y-124749815D01*
X103169769Y-124738130D01*
X102984076Y-124626519D01*
X102819001Y-124491045D01*
X102675450Y-124334670D01*
X102554331Y-124160356D01*
X102456549Y-123971067D01*
X102383010Y-123769764D01*
X102334620Y-123559409D01*
X102312287Y-123342967D01*
X102316916Y-123123398D01*
X102333514Y-123011172D01*
X102786960Y-123011172D01*
X102793274Y-123015525D01*
X102813684Y-123019268D01*
X102850200Y-123022440D01*
X102904831Y-123025080D01*
X102979586Y-123027226D01*
X103076476Y-123028919D01*
X103197509Y-123030198D01*
X103344695Y-123031102D01*
X103520043Y-123031670D01*
X103725562Y-123031941D01*
X103852513Y-123031978D01*
X104918355Y-123031978D01*
X104908010Y-122944593D01*
X104871065Y-122749752D01*
X104809426Y-122573761D01*
X104724533Y-122418270D01*
X104617828Y-122284928D01*
X104490751Y-122175387D01*
X104344744Y-122091295D01*
X104181247Y-122034302D01*
X104098060Y-122017231D01*
X103900088Y-121999329D01*
X103714458Y-122012236D01*
X103540064Y-122056308D01*
X103375802Y-122131902D01*
X103220567Y-122239372D01*
X103117173Y-122333266D01*
X103045549Y-122407832D01*
X102992365Y-122471286D01*
X102950250Y-122533544D01*
X102911837Y-122604521D01*
X102904505Y-122619489D01*
X102869042Y-122701539D01*
X102836537Y-122792487D01*
X102810017Y-122882254D01*
X102792505Y-122960763D01*
X102786960Y-123011172D01*
X102333514Y-123011172D01*
X102349413Y-122903667D01*
X102410685Y-122686734D01*
X102486742Y-122505370D01*
X102598657Y-122310870D01*
X102733681Y-122136905D01*
X102889153Y-121986025D01*
X103062412Y-121860777D01*
X103250797Y-121763711D01*
X103269022Y-121756193D01*
X103384846Y-121712646D01*
X103489580Y-121681567D01*
X103593471Y-121661093D01*
X103706767Y-121649358D01*
X103839715Y-121644500D01*
X103885230Y-121644104D01*
X104051942Y-121647853D01*
G37*
G36*
X84887149Y-121645408D02*
G01*
X84964386Y-121647784D01*
X85025671Y-121652981D01*
X85079665Y-121661970D01*
X85135030Y-121675723D01*
X85181177Y-121689295D01*
X85378734Y-121760467D01*
X85546126Y-121844492D01*
X85684077Y-121941810D01*
X85793312Y-122052864D01*
X85807679Y-122071281D01*
X85841882Y-122118004D01*
X85866263Y-122154025D01*
X85875531Y-122171513D01*
X85863315Y-122184630D01*
X85830684Y-122212319D01*
X85783664Y-122249987D01*
X85728280Y-122293041D01*
X85670559Y-122336889D01*
X85616526Y-122376938D01*
X85572207Y-122408594D01*
X85543627Y-122427265D01*
X85536210Y-122430145D01*
X85432795Y-122295940D01*
X85327755Y-122191202D01*
X85216158Y-122112276D01*
X85093068Y-122055504D01*
X84989718Y-122025141D01*
X84846389Y-122003328D01*
X84700690Y-122002975D01*
X84559335Y-122022761D01*
X84429040Y-122061363D01*
X84316519Y-122117459D01*
X84246461Y-122171510D01*
X84182603Y-122250608D01*
X84136286Y-122345447D01*
X84113075Y-122443541D01*
X84111435Y-122474376D01*
X84118577Y-122568382D01*
X84141701Y-122650764D01*
X84183099Y-122723229D01*
X84245064Y-122787487D01*
X84329890Y-122845244D01*
X84439868Y-122898210D01*
X84577293Y-122948091D01*
X84744456Y-122996596D01*
X84847560Y-123022737D01*
X84996736Y-123060134D01*
X85119541Y-123093622D01*
X85222336Y-123125359D01*
X85311483Y-123157500D01*
X85393344Y-123192201D01*
X85474280Y-123231618D01*
X85493782Y-123241761D01*
X85639824Y-123333859D01*
X85756274Y-123441142D01*
X85843204Y-123563684D01*
X85881169Y-123644430D01*
X85916458Y-123772318D01*
X85931198Y-123916530D01*
X85925450Y-124067249D01*
X85899275Y-124214656D01*
X85877152Y-124288050D01*
X85814756Y-124418828D01*
X85724198Y-124542297D01*
X85610547Y-124653138D01*
X85478872Y-124746031D01*
X85401631Y-124787060D01*
X85281424Y-124832523D01*
X85138132Y-124868295D01*
X84980802Y-124893390D01*
X84818482Y-124906820D01*
X84660219Y-124907601D01*
X84515058Y-124894744D01*
X84475281Y-124888055D01*
X84369943Y-124863272D01*
X84252728Y-124827962D01*
X84134505Y-124786013D01*
X84026142Y-124741315D01*
X83938506Y-124697756D01*
X83930306Y-124693030D01*
X83884234Y-124661531D01*
X83827209Y-124615995D01*
X83764415Y-124561381D01*
X83701036Y-124502652D01*
X83642255Y-124444767D01*
X83593256Y-124392687D01*
X83559224Y-124351373D01*
X83545341Y-124325786D01*
X83545256Y-124324546D01*
X83558003Y-124305660D01*
X83592815Y-124272142D01*
X83644549Y-124228542D01*
X83708062Y-124179409D01*
X83715865Y-124173627D01*
X83886475Y-124047779D01*
X83919603Y-124093319D01*
X84030859Y-124221366D01*
X84164324Y-124333694D01*
X84311551Y-124423991D01*
X84430447Y-124475047D01*
X84563467Y-124509041D01*
X84710009Y-124525606D01*
X84860570Y-124525042D01*
X85005651Y-124507648D01*
X85135750Y-124473721D01*
X85191226Y-124451118D01*
X85301276Y-124382570D01*
X85388119Y-124293710D01*
X85449547Y-124188985D01*
X85483353Y-124072842D01*
X85487329Y-123949728D01*
X85475500Y-123878551D01*
X85456452Y-123819826D01*
X85426248Y-123768995D01*
X85377188Y-123713503D01*
X85369498Y-123705765D01*
X85329485Y-123668962D01*
X85285070Y-123635278D01*
X85233097Y-123603496D01*
X85170412Y-123572399D01*
X85093860Y-123540771D01*
X85000287Y-123507394D01*
X84886538Y-123471052D01*
X84749458Y-123430528D01*
X84585892Y-123384605D01*
X84419109Y-123339183D01*
X84226131Y-123275631D01*
X84062657Y-123196879D01*
X83928435Y-123102651D01*
X83823210Y-122992671D01*
X83746731Y-122866663D01*
X83698745Y-122724352D01*
X83678998Y-122565460D01*
X83678414Y-122530939D01*
X83693639Y-122362876D01*
X83738604Y-122208684D01*
X83812243Y-122069613D01*
X83913491Y-121946912D01*
X84041284Y-121841833D01*
X84194556Y-121755625D01*
X84372243Y-121689538D01*
X84402464Y-121681024D01*
X84465769Y-121665736D01*
X84528377Y-121655302D01*
X84599016Y-121648897D01*
X84686412Y-121645699D01*
X84785295Y-121644881D01*
X84887149Y-121645408D01*
G37*
G36*
X114215327Y-121645408D02*
G01*
X114292565Y-121647784D01*
X114353849Y-121652981D01*
X114407843Y-121661970D01*
X114463208Y-121675723D01*
X114509355Y-121689295D01*
X114706912Y-121760467D01*
X114874304Y-121844492D01*
X115012256Y-121941810D01*
X115121491Y-122052864D01*
X115135858Y-122071281D01*
X115170060Y-122118004D01*
X115194441Y-122154025D01*
X115203709Y-122171513D01*
X115191493Y-122184630D01*
X115158862Y-122212319D01*
X115111842Y-122249987D01*
X115056459Y-122293041D01*
X114998737Y-122336889D01*
X114944704Y-122376938D01*
X114900385Y-122408594D01*
X114871805Y-122427265D01*
X114864388Y-122430145D01*
X114760973Y-122295940D01*
X114655933Y-122191202D01*
X114544336Y-122112276D01*
X114421246Y-122055504D01*
X114317896Y-122025141D01*
X114174567Y-122003328D01*
X114028868Y-122002975D01*
X113887514Y-122022761D01*
X113757219Y-122061363D01*
X113644698Y-122117459D01*
X113574639Y-122171510D01*
X113510781Y-122250608D01*
X113464464Y-122345447D01*
X113441253Y-122443541D01*
X113439613Y-122474376D01*
X113446756Y-122568382D01*
X113469879Y-122650764D01*
X113511277Y-122723229D01*
X113573243Y-122787487D01*
X113658068Y-122845244D01*
X113768046Y-122898210D01*
X113905471Y-122948091D01*
X114072634Y-122996596D01*
X114175738Y-123022737D01*
X114324914Y-123060134D01*
X114447719Y-123093622D01*
X114550514Y-123125359D01*
X114639662Y-123157500D01*
X114721522Y-123192201D01*
X114802458Y-123231618D01*
X114821960Y-123241761D01*
X114968002Y-123333859D01*
X115084453Y-123441142D01*
X115171382Y-123563684D01*
X115209347Y-123644430D01*
X115244636Y-123772318D01*
X115259376Y-123916530D01*
X115253628Y-124067249D01*
X115227453Y-124214656D01*
X115205330Y-124288050D01*
X115142934Y-124418828D01*
X115052376Y-124542297D01*
X114938725Y-124653138D01*
X114807050Y-124746031D01*
X114729809Y-124787060D01*
X114609602Y-124832523D01*
X114466310Y-124868295D01*
X114308981Y-124893390D01*
X114146661Y-124906820D01*
X113988397Y-124907601D01*
X113843236Y-124894744D01*
X113803459Y-124888055D01*
X113698121Y-124863272D01*
X113580907Y-124827962D01*
X113462684Y-124786013D01*
X113354320Y-124741315D01*
X113266685Y-124697756D01*
X113258484Y-124693030D01*
X113212412Y-124661531D01*
X113155387Y-124615995D01*
X113092593Y-124561381D01*
X113029214Y-124502652D01*
X112970433Y-124444767D01*
X112921435Y-124392687D01*
X112887402Y-124351373D01*
X112873519Y-124325786D01*
X112873434Y-124324546D01*
X112886181Y-124305660D01*
X112920993Y-124272142D01*
X112972727Y-124228542D01*
X113036240Y-124179409D01*
X113044043Y-124173627D01*
X113214653Y-124047779D01*
X113247781Y-124093319D01*
X113359037Y-124221366D01*
X113492502Y-124333694D01*
X113639729Y-124423991D01*
X113758625Y-124475047D01*
X113891645Y-124509041D01*
X114038187Y-124525606D01*
X114188749Y-124525042D01*
X114333829Y-124507648D01*
X114463928Y-124473721D01*
X114519404Y-124451118D01*
X114629454Y-124382570D01*
X114716297Y-124293710D01*
X114777726Y-124188985D01*
X114811532Y-124072842D01*
X114815507Y-123949728D01*
X114803679Y-123878551D01*
X114784630Y-123819826D01*
X114754427Y-123768995D01*
X114705367Y-123713503D01*
X114697677Y-123705765D01*
X114657663Y-123668962D01*
X114613248Y-123635278D01*
X114561275Y-123603496D01*
X114498590Y-123572399D01*
X114422038Y-123540771D01*
X114328465Y-123507394D01*
X114214716Y-123471052D01*
X114077636Y-123430528D01*
X113914070Y-123384605D01*
X113747287Y-123339183D01*
X113554309Y-123275631D01*
X113390836Y-123196879D01*
X113256613Y-123102651D01*
X113151389Y-122992671D01*
X113074910Y-122866663D01*
X113026923Y-122724352D01*
X113007176Y-122565460D01*
X113006593Y-122530939D01*
X113021817Y-122362876D01*
X113066782Y-122208684D01*
X113140421Y-122069613D01*
X113241670Y-121946912D01*
X113369462Y-121841833D01*
X113522735Y-121755625D01*
X113700421Y-121689538D01*
X113730642Y-121681024D01*
X113793948Y-121665736D01*
X113856556Y-121655302D01*
X113927194Y-121648897D01*
X114014590Y-121645699D01*
X114113473Y-121644881D01*
X114215327Y-121645408D01*
G37*
G36*
X100113858Y-121648406D02*
G01*
X100287270Y-121684883D01*
X100449864Y-121742605D01*
X100597040Y-121821042D01*
X100724198Y-121919662D01*
X100782294Y-121980390D01*
X100883575Y-122122308D01*
X100966356Y-122287959D01*
X101028502Y-122472087D01*
X101067881Y-122669436D01*
X101070615Y-122690759D01*
X101074707Y-122742559D01*
X101078345Y-122825659D01*
X101081496Y-122938072D01*
X101084129Y-123077811D01*
X101086212Y-123242890D01*
X101087714Y-123431321D01*
X101088603Y-123641118D01*
X101088852Y-123835091D01*
X101088899Y-124829619D01*
X100642185Y-124829619D01*
X100634701Y-123826768D01*
X100633004Y-123607721D01*
X100631278Y-123419058D01*
X100629308Y-123257876D01*
X100626877Y-123121270D01*
X100623768Y-123006336D01*
X100619765Y-122910170D01*
X100614652Y-122829868D01*
X100608211Y-122762525D01*
X100600227Y-122705237D01*
X100590483Y-122655100D01*
X100578763Y-122609209D01*
X100564850Y-122564661D01*
X100548527Y-122518551D01*
X100534366Y-122480645D01*
X100466869Y-122334389D01*
X100384860Y-122217107D01*
X100286392Y-122126945D01*
X100169517Y-122062047D01*
X100056695Y-122025937D01*
X99880285Y-121999410D01*
X99713389Y-122004222D01*
X99557879Y-122039310D01*
X99415633Y-122103614D01*
X99288524Y-122196070D01*
X99178427Y-122315616D01*
X99087218Y-122461189D01*
X99023619Y-122611275D01*
X99006881Y-122662366D01*
X98992570Y-122713024D01*
X98980500Y-122766238D01*
X98970482Y-122824997D01*
X98962331Y-122892290D01*
X98955859Y-122971106D01*
X98950879Y-123064436D01*
X98947203Y-123175268D01*
X98944644Y-123306591D01*
X98943016Y-123461394D01*
X98942131Y-123642667D01*
X98941802Y-123853400D01*
X98941784Y-123918315D01*
X98941717Y-124829619D01*
X98494495Y-124829619D01*
X98487569Y-123760189D01*
X98486006Y-123530873D01*
X98484371Y-123332175D01*
X98482469Y-123161421D01*
X98480107Y-123015940D01*
X98477093Y-122893060D01*
X98473232Y-122790107D01*
X98468332Y-122704410D01*
X98462200Y-122633297D01*
X98454642Y-122574095D01*
X98445466Y-122524133D01*
X98434477Y-122480736D01*
X98421483Y-122441235D01*
X98406291Y-122402955D01*
X98388706Y-122363225D01*
X98386163Y-122357659D01*
X98316615Y-122243717D01*
X98224003Y-122150135D01*
X98112385Y-122077968D01*
X97985818Y-122028274D01*
X97848362Y-122002109D01*
X97704073Y-122000530D01*
X97557011Y-122024594D01*
X97411232Y-122075356D01*
X97372663Y-122093755D01*
X97278160Y-122154724D01*
X97182372Y-122239746D01*
X97092783Y-122340758D01*
X97016873Y-122449700D01*
X96980779Y-122515988D01*
X96950535Y-122580592D01*
X96924538Y-122641788D01*
X96902470Y-122702618D01*
X96884013Y-122766123D01*
X96868848Y-122835344D01*
X96856657Y-122913319D01*
X96847121Y-123003092D01*
X96839921Y-123107701D01*
X96834740Y-123230187D01*
X96831258Y-123373592D01*
X96829158Y-123540956D01*
X96828120Y-123735319D01*
X96827825Y-123959722D01*
X96827825Y-124829619D01*
X96378414Y-124829619D01*
X96378414Y-123500665D01*
X96378276Y-123286725D01*
X96377875Y-123077650D01*
X96377234Y-122876537D01*
X96376374Y-122686480D01*
X96375317Y-122510575D01*
X96374085Y-122351916D01*
X96372698Y-122213600D01*
X96371180Y-122098722D01*
X96369551Y-122010377D01*
X96367833Y-121951660D01*
X96367511Y-121944374D01*
X96356609Y-121717037D01*
X96566267Y-121717037D01*
X96646308Y-121717994D01*
X96713556Y-121720606D01*
X96761413Y-121724487D01*
X96783284Y-121729249D01*
X96783809Y-121729793D01*
X96787296Y-121750067D01*
X96791697Y-121797525D01*
X96796559Y-121866089D01*
X96801426Y-121949684D01*
X96803810Y-121997117D01*
X96815927Y-122251685D01*
X96881371Y-122148182D01*
X96992617Y-122002497D01*
X97126298Y-121879100D01*
X97278909Y-121779412D01*
X97446945Y-121704858D01*
X97626899Y-121656859D01*
X97815268Y-121636839D01*
X98008545Y-121646221D01*
X98087206Y-121658669D01*
X98228838Y-121695836D01*
X98353269Y-121752157D01*
X98469312Y-121832414D01*
X98560307Y-121915342D01*
X98638578Y-121999467D01*
X98696328Y-122076551D01*
X98741352Y-122157064D01*
X98743400Y-122161349D01*
X98770899Y-122217293D01*
X98793388Y-122259389D01*
X98806946Y-122280407D01*
X98808558Y-122281529D01*
X98820235Y-122268400D01*
X98843170Y-122233420D01*
X98872587Y-122183915D01*
X98875138Y-122179440D01*
X98935141Y-122091353D01*
X99015302Y-121998063D01*
X99106032Y-121909311D01*
X99197741Y-121834835D01*
X99245533Y-121803244D01*
X99404033Y-121725545D01*
X99574716Y-121671742D01*
X99752981Y-121641305D01*
X99934229Y-121633703D01*
X100113858Y-121648406D01*
G37*
G36*
X82363473Y-112778767D02*
G01*
X79683657Y-112778767D01*
X79683657Y-118354783D01*
X80449319Y-118354783D01*
X80449333Y-116636205D01*
X80449507Y-116354435D01*
X80450014Y-116089165D01*
X80450838Y-115842117D01*
X80451966Y-115615009D01*
X80453380Y-115409562D01*
X80455065Y-115227496D01*
X80457007Y-115070532D01*
X80459189Y-114940389D01*
X80461597Y-114838788D01*
X80464215Y-114767449D01*
X80466336Y-114734534D01*
X80500424Y-114494392D01*
X80555883Y-114279646D01*
X80632913Y-114090001D01*
X80731715Y-113925161D01*
X80852488Y-113784831D01*
X80995434Y-113668717D01*
X81160752Y-113576522D01*
X81286057Y-113527340D01*
X81318589Y-113516232D01*
X81348220Y-113505969D01*
X81376305Y-113496516D01*
X81404202Y-113487841D01*
X81433268Y-113479911D01*
X81464858Y-113472693D01*
X81500330Y-113466153D01*
X81541040Y-113460258D01*
X81588345Y-113454975D01*
X81643601Y-113450272D01*
X81708166Y-113446114D01*
X81783396Y-113442470D01*
X81870647Y-113439305D01*
X81971276Y-113436586D01*
X82086640Y-113434281D01*
X82218095Y-113432357D01*
X82366999Y-113430780D01*
X82534707Y-113429517D01*
X82722577Y-113428534D01*
X82931965Y-113427800D01*
X83164227Y-113427281D01*
X83420721Y-113426943D01*
X83702803Y-113426753D01*
X84011830Y-113426680D01*
X84349158Y-113426688D01*
X84716144Y-113426745D01*
X85114145Y-113426819D01*
X85401827Y-113426861D01*
X85818161Y-113426930D01*
X86202526Y-113427042D01*
X86556244Y-113427205D01*
X86880635Y-113427429D01*
X87177020Y-113427723D01*
X87446721Y-113428096D01*
X87691057Y-113428556D01*
X87911351Y-113429113D01*
X88108923Y-113429776D01*
X88285093Y-113430555D01*
X88441184Y-113431457D01*
X88578516Y-113432492D01*
X88698410Y-113433669D01*
X88802187Y-113434998D01*
X88891168Y-113436487D01*
X88966673Y-113438145D01*
X89030025Y-113439982D01*
X89082543Y-113442006D01*
X89125549Y-113444226D01*
X89160364Y-113446652D01*
X89188308Y-113449292D01*
X89210703Y-113452157D01*
X89216190Y-113453005D01*
X89438682Y-113501887D01*
X89636898Y-113573200D01*
X89811116Y-113667258D01*
X89961615Y-113784374D01*
X90088675Y-113924862D01*
X90192574Y-114089036D01*
X90273592Y-114277208D01*
X90332008Y-114489692D01*
X90368102Y-114726802D01*
X90370257Y-114749277D01*
X90372524Y-114791238D01*
X90374534Y-114863031D01*
X90376293Y-114962087D01*
X90377806Y-115085833D01*
X90379079Y-115231702D01*
X90380117Y-115397122D01*
X90380927Y-115579524D01*
X90381512Y-115776336D01*
X90381880Y-115984989D01*
X90382036Y-116202913D01*
X90381985Y-116427538D01*
X90381734Y-116656293D01*
X90381286Y-116886608D01*
X90380649Y-117115913D01*
X90379828Y-117341638D01*
X90378827Y-117561212D01*
X90377654Y-117772066D01*
X90376313Y-117971629D01*
X90374811Y-118157331D01*
X90373152Y-118326602D01*
X90371342Y-118476872D01*
X90369387Y-118605570D01*
X90367293Y-118710126D01*
X90365065Y-118787970D01*
X90362708Y-118836532D01*
X90361336Y-118849966D01*
X90349492Y-118920707D01*
X90702530Y-118920707D01*
X90703015Y-116960779D01*
X90703212Y-116703421D01*
X90703663Y-116452273D01*
X90704351Y-116209698D01*
X90705257Y-115978060D01*
X90706364Y-115759725D01*
X90707654Y-115557056D01*
X90709111Y-115372418D01*
X90710716Y-115208175D01*
X90712451Y-115066691D01*
X90714300Y-114950332D01*
X90716244Y-114861461D01*
X90718266Y-114802442D01*
X90719204Y-114786150D01*
X90738631Y-114601130D01*
X90769335Y-114438549D01*
X90813718Y-114288764D01*
X90874179Y-114142130D01*
X90885332Y-114118675D01*
X90975089Y-113960602D01*
X91081491Y-113825726D01*
X91207395Y-113711871D01*
X91355655Y-113616863D01*
X91529128Y-113538528D01*
X91730667Y-113474689D01*
X91730917Y-113474623D01*
X91875990Y-113436237D01*
X95471271Y-113436237D01*
X95636847Y-113481886D01*
X95839217Y-113550440D01*
X96015762Y-113638130D01*
X96167845Y-113746428D01*
X96296829Y-113876811D01*
X96404078Y-114030752D01*
X96490955Y-114209725D01*
X96558824Y-114415205D01*
X96580260Y-114502070D01*
X96586251Y-114528887D01*
X96591576Y-114554686D01*
X96596280Y-114581519D01*
X96600410Y-114611437D01*
X96604013Y-114646492D01*
X96607134Y-114688735D01*
X96609822Y-114740218D01*
X96612121Y-114802993D01*
X96614079Y-114879110D01*
X96615742Y-114970622D01*
X96617157Y-115079580D01*
X96618369Y-115208035D01*
X96619427Y-115358039D01*
X96620375Y-115531644D01*
X96621261Y-115730901D01*
X96622130Y-115957861D01*
X96623031Y-116214576D01*
X96623727Y-116419822D01*
X96629644Y-118171690D01*
X100841788Y-118171690D01*
X100890442Y-118123036D01*
X100939096Y-118074381D01*
X100938566Y-117785978D01*
X100937924Y-117674695D01*
X100935752Y-117591720D01*
X100930981Y-117532074D01*
X100922540Y-117490779D01*
X100909362Y-117462856D01*
X100890377Y-117443326D01*
X100864515Y-117427211D01*
X100861127Y-117425391D01*
X100844107Y-117421520D01*
X100807544Y-117418134D01*
X100749970Y-117415211D01*
X100669918Y-117412730D01*
X100565919Y-117410670D01*
X100436505Y-117409008D01*
X100280209Y-117407724D01*
X100095563Y-117406794D01*
X99881098Y-117406199D01*
X99635347Y-117405915D01*
X99537864Y-117405885D01*
X99270607Y-117405710D01*
X99034280Y-117405188D01*
X98826527Y-117404233D01*
X98644988Y-117402756D01*
X98487307Y-117400671D01*
X98351125Y-117397890D01*
X98234085Y-117394326D01*
X98133828Y-117389892D01*
X98047998Y-117384500D01*
X97974235Y-117378063D01*
X97910182Y-117370494D01*
X97853482Y-117361705D01*
X97801776Y-117351609D01*
X97752706Y-117340118D01*
X97751068Y-117339705D01*
X97582939Y-117285977D01*
X97438948Y-117214668D01*
X97316800Y-117123362D01*
X97214196Y-117009642D01*
X97128841Y-116871093D01*
X97058438Y-116705298D01*
X97015107Y-116565464D01*
X96969866Y-116399016D01*
X96969677Y-115483551D01*
X96969489Y-114568085D01*
X97015046Y-114402510D01*
X97067514Y-114237470D01*
X97128746Y-114097346D01*
X97203225Y-113974038D01*
X97295434Y-113859450D01*
X97343706Y-113808773D01*
X97451142Y-113711244D01*
X97563060Y-113632345D01*
X97687366Y-113567717D01*
X97831965Y-113512999D01*
X97936839Y-113481709D01*
X98101153Y-113436523D01*
X100706068Y-113428058D01*
X101016176Y-113427102D01*
X101328390Y-113426238D01*
X101639975Y-113425470D01*
X101948200Y-113424801D01*
X102250330Y-113424233D01*
X102543631Y-113423769D01*
X102825371Y-113423414D01*
X103092815Y-113423169D01*
X103343230Y-113423037D01*
X103573883Y-113423023D01*
X103782039Y-113423127D01*
X103964966Y-113423355D01*
X104119929Y-113423708D01*
X104238578Y-113424162D01*
X105166172Y-113428732D01*
X105170688Y-115637924D01*
X105175203Y-117847116D01*
X105216815Y-117922017D01*
X105269713Y-117991399D01*
X105332695Y-118034370D01*
X105350729Y-118043170D01*
X105368853Y-118050471D01*
X105390189Y-118056412D01*
X105417860Y-118061135D01*
X105454989Y-118064778D01*
X105504697Y-118067482D01*
X105570108Y-118069386D01*
X105654344Y-118070632D01*
X105760528Y-118071358D01*
X105891781Y-118071705D01*
X106051228Y-118071813D01*
X106168014Y-118071821D01*
X106376950Y-118071412D01*
X106555769Y-118070193D01*
X106703913Y-118068177D01*
X106820825Y-118065376D01*
X106905950Y-118061801D01*
X106958731Y-118057466D01*
X106975922Y-118054067D01*
X107052622Y-118007538D01*
X107113686Y-117933302D01*
X107132800Y-117897050D01*
X107137208Y-117886419D01*
X107141174Y-117873470D01*
X107144722Y-117856484D01*
X107147876Y-117833741D01*
X107150659Y-117803520D01*
X107153095Y-117764103D01*
X107155207Y-117713770D01*
X107157020Y-117650800D01*
X107158555Y-117573474D01*
X107159838Y-117480073D01*
X107160892Y-117368875D01*
X107161739Y-117238163D01*
X107162405Y-117086215D01*
X107162912Y-116911312D01*
X107163284Y-116711734D01*
X107163545Y-116485762D01*
X107163717Y-116231676D01*
X107163826Y-115947755D01*
X107163894Y-115632281D01*
X107163894Y-115629193D01*
X107164260Y-113427915D01*
X109078414Y-113427915D01*
X109078414Y-118171690D01*
X113301338Y-118171690D01*
X113344287Y-118131886D01*
X113367249Y-118106476D01*
X113384046Y-118075623D01*
X113395419Y-118034289D01*
X113402112Y-117977440D01*
X113404865Y-117900038D01*
X113404422Y-117797049D01*
X113403185Y-117732182D01*
X113397746Y-117486289D01*
X113351044Y-117446159D01*
X113304343Y-117406028D01*
X112002814Y-117406014D01*
X111773127Y-117405787D01*
X111554413Y-117405130D01*
X111349249Y-117404074D01*
X111160211Y-117402647D01*
X110989876Y-117400880D01*
X110840821Y-117398801D01*
X110715624Y-117396440D01*
X110616859Y-117393827D01*
X110547105Y-117390991D01*
X110518192Y-117389010D01*
X110308001Y-117360689D01*
X110125680Y-117316453D01*
X109969089Y-117254797D01*
X109836088Y-117174220D01*
X109724538Y-117073216D01*
X109632300Y-116950282D01*
X109557235Y-116803915D01*
X109512236Y-116681978D01*
X109492095Y-116617178D01*
X109475087Y-116556309D01*
X109460949Y-116495908D01*
X109449421Y-116432512D01*
X109440238Y-116362658D01*
X109433140Y-116282883D01*
X109427864Y-116189724D01*
X109424148Y-116079717D01*
X109421730Y-115949400D01*
X109420348Y-115795310D01*
X109419740Y-115613983D01*
X109419633Y-115458583D01*
X109419810Y-115257582D01*
X109420547Y-115086369D01*
X109422156Y-114941448D01*
X109424946Y-114819318D01*
X109429228Y-114716482D01*
X109435312Y-114629439D01*
X109443510Y-114554690D01*
X109454131Y-114488738D01*
X109467485Y-114428083D01*
X109483884Y-114369225D01*
X109503638Y-114308667D01*
X109527057Y-114242908D01*
X109527644Y-114241299D01*
X109604357Y-114067418D01*
X109700168Y-113916468D01*
X109817179Y-113786648D01*
X109957487Y-113676155D01*
X110123193Y-113583187D01*
X110316396Y-113505942D01*
X110422614Y-113473037D01*
X110551481Y-113436363D01*
X113451842Y-113431777D01*
X116352202Y-113427191D01*
X116352202Y-115258846D01*
X113888183Y-115258846D01*
X113548710Y-115258811D01*
X113240959Y-115258748D01*
X112963358Y-115258721D01*
X112714339Y-115258794D01*
X112492332Y-115259029D01*
X112295768Y-115259489D01*
X112123078Y-115260239D01*
X111972693Y-115261342D01*
X111843043Y-115262861D01*
X111732560Y-115264859D01*
X111639672Y-115267400D01*
X111562813Y-115270547D01*
X111500411Y-115274364D01*
X111450899Y-115278913D01*
X111412706Y-115284259D01*
X111384263Y-115290465D01*
X111364002Y-115297594D01*
X111350352Y-115305709D01*
X111341745Y-115314874D01*
X111336611Y-115325152D01*
X111333381Y-115336607D01*
X111330486Y-115349301D01*
X111326711Y-115362297D01*
X111320103Y-115397684D01*
X111314596Y-115458472D01*
X111310691Y-115536778D01*
X111308886Y-115624716D01*
X111308821Y-115644695D01*
X111310794Y-115764078D01*
X111317352Y-115854662D01*
X111329453Y-115920740D01*
X111348055Y-115966605D01*
X111374115Y-115996550D01*
X111389541Y-116006523D01*
X111410228Y-116010241D01*
X111458028Y-116013508D01*
X111533671Y-116016335D01*
X111637886Y-116018731D01*
X111771403Y-116020706D01*
X111934953Y-116022270D01*
X112129263Y-116023432D01*
X112355066Y-116024202D01*
X112613089Y-116024591D01*
X112743342Y-116024644D01*
X113016026Y-116024764D01*
X113257754Y-116025191D01*
X113470861Y-116026109D01*
X113657680Y-116027708D01*
X113820546Y-116030173D01*
X113961792Y-116033691D01*
X114083753Y-116038449D01*
X114188762Y-116044634D01*
X114279154Y-116052434D01*
X114357262Y-116062035D01*
X114425420Y-116073623D01*
X114485963Y-116087386D01*
X114541224Y-116103511D01*
X114593538Y-116122185D01*
X114645238Y-116143594D01*
X114698658Y-116167925D01*
X114732338Y-116183924D01*
X114890280Y-116275963D01*
X115025168Y-116390121D01*
X115137809Y-116527485D01*
X115229007Y-116689140D01*
X115299567Y-116876172D01*
X115329791Y-116989907D01*
X115336874Y-117024523D01*
X115342842Y-117064214D01*
X115347828Y-117112268D01*
X115351968Y-117171972D01*
X115355393Y-117246613D01*
X115358239Y-117339479D01*
X115360640Y-117453856D01*
X115362728Y-117593031D01*
X115364638Y-117760293D01*
X115365723Y-117872083D01*
X115367305Y-118101408D01*
X115367256Y-118300734D01*
X115365204Y-118473329D01*
X115360775Y-118622460D01*
X115353596Y-118751394D01*
X115343294Y-118863399D01*
X115329495Y-118961742D01*
X115311826Y-119049690D01*
X115289913Y-119130511D01*
X115263384Y-119207472D01*
X115231865Y-119283839D01*
X115195513Y-119361794D01*
X115101557Y-119524964D01*
X114989973Y-119662477D01*
X114858231Y-119776363D01*
X114703797Y-119868654D01*
X114524140Y-119941381D01*
X114442020Y-119966176D01*
X114279922Y-120010943D01*
X109486212Y-120015994D01*
X108943908Y-120016511D01*
X108434578Y-120016885D01*
X107957905Y-120017115D01*
X107513576Y-120017199D01*
X107101274Y-120017138D01*
X106720685Y-120016929D01*
X106371491Y-120016573D01*
X106053379Y-120016069D01*
X105766032Y-120015416D01*
X105509135Y-120014613D01*
X105282373Y-120013659D01*
X105085430Y-120012553D01*
X104917990Y-120011296D01*
X104779738Y-120009885D01*
X104670360Y-120008320D01*
X104589538Y-120006600D01*
X104536958Y-120004725D01*
X104517703Y-120003415D01*
X104280862Y-119966893D01*
X104067887Y-119907575D01*
X103878946Y-119825578D01*
X103714203Y-119721017D01*
X103573825Y-119594009D01*
X103457978Y-119444671D01*
X103366828Y-119273119D01*
X103326905Y-119168210D01*
X103313087Y-119126589D01*
X103300767Y-119088008D01*
X103289859Y-119050404D01*
X103280275Y-119011716D01*
X103271930Y-118969880D01*
X103264736Y-118922834D01*
X103258607Y-118868516D01*
X103253457Y-118804864D01*
X103249199Y-118729815D01*
X103245746Y-118641306D01*
X103243012Y-118537276D01*
X103240910Y-118415662D01*
X103239353Y-118274402D01*
X103238256Y-118111433D01*
X103237530Y-117924693D01*
X103237091Y-117712119D01*
X103236850Y-117471650D01*
X103236722Y-117201222D01*
X103236662Y-117019036D01*
X103236081Y-115258846D01*
X98955801Y-115258846D01*
X98858493Y-115356154D01*
X98859022Y-115644557D01*
X98859664Y-115755840D01*
X98861837Y-115838815D01*
X98866608Y-115898461D01*
X98875049Y-115939756D01*
X98888227Y-115967680D01*
X98907212Y-115987209D01*
X98933074Y-116003325D01*
X98936462Y-116005144D01*
X98953387Y-116008980D01*
X98989811Y-116012343D01*
X99047190Y-116015253D01*
X99126979Y-116017732D01*
X99230635Y-116019801D01*
X99359613Y-116021481D01*
X99515369Y-116022793D01*
X99699359Y-116023759D01*
X99913038Y-116024400D01*
X100157862Y-116024736D01*
X100284692Y-116024796D01*
X100509514Y-116025059D01*
X100724076Y-116025729D01*
X100925774Y-116026774D01*
X101112002Y-116028166D01*
X101280157Y-116029875D01*
X101427633Y-116031870D01*
X101551826Y-116034121D01*
X101650130Y-116036600D01*
X101719941Y-116039275D01*
X101754692Y-116041657D01*
X101974594Y-116077093D01*
X102170159Y-116135047D01*
X102342016Y-116216019D01*
X102490795Y-116320508D01*
X102617127Y-116449014D01*
X102721641Y-116602038D01*
X102804969Y-116780078D01*
X102847814Y-116908571D01*
X102892887Y-117064809D01*
X102899193Y-117888728D01*
X102900547Y-118121652D01*
X102900783Y-118321881D01*
X102899895Y-118489989D01*
X102897875Y-118626551D01*
X102894715Y-118732142D01*
X102890407Y-118807338D01*
X102886674Y-118842418D01*
X102840979Y-119072503D01*
X102774244Y-119276860D01*
X102686217Y-119455760D01*
X102576648Y-119609477D01*
X102445283Y-119738282D01*
X102291872Y-119842449D01*
X102116164Y-119922248D01*
X101917906Y-119977953D01*
X101822024Y-119995118D01*
X101799366Y-119997936D01*
X101769412Y-120000531D01*
X101730844Y-120002913D01*
X101682342Y-120005090D01*
X101622591Y-120007070D01*
X101550271Y-120008863D01*
X101464066Y-120010477D01*
X101362656Y-120011921D01*
X101244725Y-120013204D01*
X101108954Y-120014333D01*
X100954026Y-120015319D01*
X100778622Y-120016169D01*
X100581426Y-120016893D01*
X100361119Y-120017499D01*
X100116383Y-120017995D01*
X99845900Y-120018391D01*
X99548353Y-120018696D01*
X99222423Y-120018917D01*
X98866794Y-120019063D01*
X98480146Y-120019144D01*
X98180216Y-120019167D01*
X94697287Y-120019265D01*
X94697287Y-115596978D01*
X94659176Y-115524909D01*
X94604505Y-115453217D01*
X94555146Y-115418261D01*
X94538690Y-115410199D01*
X94520746Y-115403470D01*
X94498256Y-115397934D01*
X94468166Y-115393447D01*
X94427419Y-115389868D01*
X94372959Y-115387054D01*
X94301731Y-115384865D01*
X94210678Y-115383159D01*
X94096744Y-115381792D01*
X93956874Y-115380624D01*
X93788011Y-115379512D01*
X93710466Y-115379045D01*
X93497032Y-115378142D01*
X93315931Y-115378183D01*
X93166218Y-115379182D01*
X93046949Y-115381156D01*
X92957179Y-115384120D01*
X92895965Y-115388090D01*
X92862585Y-115393020D01*
X92779447Y-115431688D01*
X92715709Y-115495703D01*
X92674990Y-115581101D01*
X92668829Y-115605331D01*
X92665813Y-115630813D01*
X92663086Y-115678384D01*
X92660643Y-115748994D01*
X92658473Y-115843591D01*
X92656570Y-115963126D01*
X92654925Y-116108548D01*
X92653531Y-116280807D01*
X92652379Y-116480851D01*
X92651461Y-116709631D01*
X92650770Y-116968097D01*
X92650298Y-117257196D01*
X92650037Y-117577880D01*
X92649974Y-117856257D01*
X92649974Y-120019265D01*
X89167045Y-120019167D01*
X88757419Y-120019156D01*
X88379696Y-120019130D01*
X88032487Y-120019061D01*
X87714405Y-120018923D01*
X87424062Y-120018688D01*
X87160070Y-120018329D01*
X86921042Y-120017820D01*
X86705590Y-120017132D01*
X86512326Y-120016240D01*
X86339863Y-120015116D01*
X86186813Y-120013732D01*
X86051789Y-120012063D01*
X85933402Y-120010080D01*
X85830265Y-120007757D01*
X85740991Y-120005067D01*
X85664192Y-120001982D01*
X85598479Y-119998476D01*
X85542467Y-119994521D01*
X85494766Y-119990091D01*
X85453989Y-119985158D01*
X85418749Y-119979695D01*
X85387657Y-119973675D01*
X85359327Y-119967072D01*
X85332370Y-119959858D01*
X85305400Y-119952005D01*
X85277027Y-119943488D01*
X85276317Y-119943275D01*
X85094264Y-119872218D01*
X84930216Y-119774606D01*
X84786613Y-119652662D01*
X84665893Y-119508608D01*
X84570494Y-119344667D01*
X84538860Y-119271175D01*
X84512522Y-119201679D01*
X84490457Y-119137693D01*
X84472251Y-119075417D01*
X84457488Y-119011051D01*
X84445752Y-118940796D01*
X84436629Y-118860852D01*
X84429704Y-118767418D01*
X84424561Y-118656697D01*
X84420785Y-118524886D01*
X84417962Y-118368188D01*
X84417800Y-118355070D01*
X86590797Y-118355070D01*
X87494009Y-118350765D01*
X88397222Y-118346460D01*
X88397222Y-117281192D01*
X86599581Y-117281192D01*
X86590797Y-118355070D01*
X84417800Y-118355070D01*
X84415674Y-118182802D01*
X84415221Y-118139644D01*
X84413561Y-117910993D01*
X84413888Y-117712204D01*
X84416600Y-117539884D01*
X84422099Y-117390644D01*
X84430785Y-117261093D01*
X84443057Y-117147839D01*
X84459315Y-117047492D01*
X84479961Y-116956662D01*
X84505394Y-116871956D01*
X84536013Y-116789985D01*
X84572220Y-116707357D01*
X84588216Y-116673656D01*
X84629477Y-116593176D01*
X84669592Y-116528639D01*
X84716721Y-116468813D01*
X84779020Y-116402468D01*
X84801678Y-116379822D01*
X84926355Y-116271236D01*
X85060496Y-116185293D01*
X85211883Y-116117693D01*
X85359541Y-116071547D01*
X85385585Y-116064767D01*
X85410761Y-116058847D01*
X85437432Y-116053719D01*
X85467965Y-116049315D01*
X85504725Y-116045567D01*
X85550076Y-116042405D01*
X85606384Y-116039763D01*
X85676014Y-116037572D01*
X85761331Y-116035764D01*
X85864700Y-116034271D01*
X85988486Y-116033025D01*
X86135054Y-116031957D01*
X86306770Y-116030999D01*
X86505999Y-116030084D01*
X86735104Y-116029143D01*
X86846649Y-116028700D01*
X87096065Y-116027748D01*
X87314518Y-116027047D01*
X87504338Y-116026678D01*
X87667850Y-116026723D01*
X87807384Y-116027265D01*
X87925266Y-116028385D01*
X88023825Y-116030165D01*
X88105386Y-116032687D01*
X88172279Y-116036033D01*
X88226830Y-116040284D01*
X88271368Y-116045523D01*
X88308219Y-116051831D01*
X88339711Y-116059290D01*
X88368172Y-116067982D01*
X88395929Y-116077989D01*
X88410780Y-116083709D01*
X88421470Y-116086157D01*
X88429162Y-116081038D01*
X88434229Y-116064046D01*
X88437042Y-116030873D01*
X88437974Y-115977213D01*
X88437397Y-115898759D01*
X88435748Y-115794835D01*
X88433572Y-115686489D01*
X88430964Y-115606155D01*
X88427314Y-115548558D01*
X88422015Y-115508422D01*
X88414457Y-115480469D01*
X88404032Y-115459424D01*
X88395663Y-115447262D01*
X88354664Y-115408474D01*
X88304622Y-115380639D01*
X88304116Y-115380460D01*
X88280409Y-115377933D01*
X88225542Y-115375552D01*
X88141644Y-115373317D01*
X88030843Y-115371231D01*
X87895269Y-115369294D01*
X87737052Y-115367509D01*
X87558319Y-115365876D01*
X87361200Y-115364397D01*
X87147825Y-115363074D01*
X86920322Y-115361908D01*
X86680820Y-115360900D01*
X86431448Y-115360052D01*
X86174336Y-115359365D01*
X85911612Y-115358841D01*
X85645406Y-115358482D01*
X85377846Y-115358288D01*
X85111062Y-115358261D01*
X84847182Y-115358403D01*
X84588337Y-115358715D01*
X84336654Y-115359199D01*
X84094263Y-115359856D01*
X83863293Y-115360687D01*
X83645872Y-115361693D01*
X83444131Y-115362878D01*
X83260198Y-115364241D01*
X83096203Y-115365784D01*
X82954273Y-115367509D01*
X82836539Y-115369417D01*
X82745129Y-115371510D01*
X82682172Y-115373789D01*
X82649798Y-115376256D01*
X82647930Y-115376594D01*
X82558108Y-115407314D01*
X82492257Y-115457806D01*
X82444972Y-115532177D01*
X82440557Y-115542955D01*
X82436584Y-115555988D01*
X82433029Y-115572994D01*
X82429868Y-115595691D01*
X82427078Y-115625795D01*
X82424635Y-115665025D01*
X82422516Y-115715098D01*
X82420697Y-115777731D01*
X82419155Y-115854643D01*
X82417866Y-115947551D01*
X82416807Y-116058173D01*
X82415954Y-116188226D01*
X82415283Y-116339427D01*
X82414772Y-116513495D01*
X82414396Y-116712147D01*
X82414132Y-116937100D01*
X82413957Y-117190073D01*
X82413846Y-117472782D01*
X82413777Y-117786945D01*
X82413773Y-117809665D01*
X82413408Y-120019265D01*
X77752857Y-120019265D01*
X77752857Y-112778767D01*
X75023106Y-112778767D01*
X75023106Y-110847968D01*
X82363473Y-110847968D01*
X82363473Y-112778767D01*
G37*
D12*
%TO.C,Q1*%
X86920000Y-80490000D02*
X85610000Y-80490000D01*
X86920000Y-77770000D02*
X86920000Y-80490000D01*
X86920000Y-77770000D02*
X86690000Y-77770000D01*
X83510000Y-80490000D02*
X82200000Y-80490000D01*
X86690000Y-76630000D02*
X86690000Y-77770000D01*
X82200000Y-77770000D02*
X82430000Y-77770000D01*
X82200000Y-80490000D02*
X82200000Y-77770000D01*
%TO.C,U3*%
X101142500Y-74780000D02*
X101792500Y-74780000D01*
X101142500Y-77900000D02*
X101792500Y-77900000D01*
X101142500Y-74780000D02*
X99467500Y-74780000D01*
X101142500Y-77900000D02*
X100492500Y-77900000D01*
%TO.C,U2*%
X92460000Y-83870000D02*
X90960000Y-83870000D01*
X92460000Y-80650000D02*
X89535000Y-80650000D01*
X92460000Y-83870000D02*
X93960000Y-83870000D01*
X92460000Y-80650000D02*
X93960000Y-80650000D01*
%TO.C,U1*%
X92100000Y-74730000D02*
X90600000Y-74730000D01*
X92100000Y-71510000D02*
X89175000Y-71510000D01*
X92100000Y-74730000D02*
X93600000Y-74730000D01*
X92100000Y-71510000D02*
X93600000Y-71510000D01*
%TO.C,RV3*%
X92420000Y-94940000D02*
X92420000Y-95340000D01*
X93520000Y-96740000D02*
X96420000Y-96740000D01*
X96420000Y-96740000D02*
X96420000Y-96140000D01*
X91920000Y-93340000D02*
X91920000Y-94040000D01*
X96420000Y-93540000D02*
X96420000Y-94140000D01*
X92620000Y-93340000D02*
X91920000Y-93340000D01*
X93520000Y-93540000D02*
X96420000Y-93540000D01*
%TO.C,RV2*%
X98700000Y-95030000D02*
X98700000Y-95430000D01*
X99800000Y-96830000D02*
X102700000Y-96830000D01*
X102700000Y-96830000D02*
X102700000Y-96230000D01*
X98200000Y-93430000D02*
X98200000Y-94130000D01*
X102700000Y-93630000D02*
X102700000Y-94230000D01*
X98900000Y-93430000D02*
X98200000Y-93430000D01*
X99800000Y-93630000D02*
X102700000Y-93630000D01*
%TO.C,RV1*%
X104880000Y-95020000D02*
X104880000Y-95420000D01*
X105980000Y-96820000D02*
X108880000Y-96820000D01*
X108880000Y-96820000D02*
X108880000Y-96220000D01*
X104380000Y-93420000D02*
X104380000Y-94120000D01*
X108880000Y-93620000D02*
X108880000Y-94220000D01*
X105080000Y-93420000D02*
X104380000Y-93420000D01*
X105980000Y-93620000D02*
X108880000Y-93620000D01*
%TO.C,R13*%
X90875000Y-100842936D02*
X90875000Y-101297064D01*
X89405000Y-100842936D02*
X89405000Y-101297064D01*
%TO.C,R12*%
X104815000Y-103402936D02*
X104815000Y-103857064D01*
X103345000Y-103402936D02*
X103345000Y-103857064D01*
%TO.C,R11*%
X102212936Y-72605000D02*
X102667064Y-72605000D01*
X102212936Y-74075000D02*
X102667064Y-74075000D01*
%TO.C,R10*%
X90915000Y-96612936D02*
X90915000Y-97067064D01*
X89445000Y-96612936D02*
X89445000Y-97067064D01*
%TO.C,R9*%
X84452936Y-91635000D02*
X84907064Y-91635000D01*
X84452936Y-93105000D02*
X84907064Y-93105000D01*
%TO.C,R8*%
X98287064Y-99475000D02*
X97832936Y-99475000D01*
X98287064Y-98005000D02*
X97832936Y-98005000D01*
%TO.C,R7*%
X84452936Y-89295000D02*
X84907064Y-89295000D01*
X84452936Y-90765000D02*
X84907064Y-90765000D01*
%TO.C,R6*%
X81095000Y-79222936D02*
X81095000Y-79677064D01*
X79625000Y-79222936D02*
X79625000Y-79677064D01*
%TO.C,R5*%
X85460000Y-72142936D02*
X85460000Y-73597064D01*
X83640000Y-72142936D02*
X83640000Y-73597064D01*
%TO.C,R4*%
X77495000Y-70997064D02*
X77495000Y-70542936D01*
X78965000Y-70997064D02*
X78965000Y-70542936D01*
%TO.C,R3*%
X107065000Y-99292936D02*
X107065000Y-99747064D01*
X105595000Y-99292936D02*
X105595000Y-99747064D01*
%TO.C,R2*%
X103365000Y-99757064D02*
X103365000Y-99302936D01*
X104835000Y-99757064D02*
X104835000Y-99302936D01*
%TO.C,R1*%
X88255000Y-72962936D02*
X88255000Y-73417064D01*
X86785000Y-72962936D02*
X86785000Y-73417064D01*
%TO.C,Q2*%
X77240000Y-81170000D02*
X71230000Y-81170000D01*
X74990000Y-74350000D02*
X71230000Y-74350000D01*
X71230000Y-74350000D02*
X71230000Y-75610000D01*
X71230000Y-81170000D02*
X71230000Y-79910000D01*
%TO.C,J2*%
X83930000Y-157460000D02*
X82930000Y-156460000D01*
X76430000Y-142660000D02*
X91430000Y-142660000D01*
X91430000Y-142660000D02*
X91430000Y-157660000D01*
X83930000Y-157460000D02*
X84930000Y-156460000D01*
X91430000Y-157660000D02*
X76430000Y-157660000D01*
X76430000Y-157660000D02*
X76430000Y-142660000D01*
%TO.C,J1*%
X106900000Y-87475000D02*
X106900000Y-82275000D01*
X108990000Y-82275000D02*
X110010000Y-82275000D01*
X112100000Y-87475000D02*
X112100000Y-82275000D01*
X106900000Y-87475000D02*
X107470000Y-87475000D01*
X108990000Y-87475000D02*
X110010000Y-87475000D01*
X111530000Y-82275000D02*
X112100000Y-82275000D01*
X107470000Y-82275000D02*
X107470000Y-80915000D01*
X111530000Y-87475000D02*
X112100000Y-87475000D01*
X106900000Y-82275000D02*
X107470000Y-82275000D01*
%TO.C,FB2*%
X81905000Y-63971248D02*
X81905000Y-64493752D01*
X80435000Y-63971248D02*
X80435000Y-64493752D01*
%TO.C,FB1*%
X84305000Y-63998748D02*
X84305000Y-64521252D01*
X82835000Y-63998748D02*
X82835000Y-64521252D01*
%TO.C,D4*%
X66565000Y-132907500D02*
X66565000Y-135367500D01*
X68035000Y-135367500D02*
X68035000Y-132907500D01*
X66565000Y-135367500D02*
X68035000Y-135367500D01*
%TO.C,D3*%
X63995000Y-132907500D02*
X63995000Y-135367500D01*
X65465000Y-135367500D02*
X65465000Y-132907500D01*
X63995000Y-135367500D02*
X65465000Y-135367500D01*
%TO.C,D2*%
X77140000Y-82622500D02*
X77140000Y-86482500D01*
X79140000Y-82622500D02*
X77140000Y-82622500D01*
X79140000Y-82622500D02*
X79140000Y-86482500D01*
%TO.C,D1*%
X79810000Y-67292500D02*
X79810000Y-72352500D01*
X82530000Y-67292500D02*
X79810000Y-67292500D01*
X82530000Y-67292500D02*
X82530000Y-72352500D01*
%TO.C,C9*%
X94371252Y-79985000D02*
X93848748Y-79985000D01*
X94371252Y-78515000D02*
X93848748Y-78515000D01*
%TO.C,C8*%
X90288748Y-84585000D02*
X90811252Y-84585000D01*
X90288748Y-86055000D02*
X90811252Y-86055000D01*
%TO.C,C7*%
X105165000Y-76108748D02*
X105165000Y-76631252D01*
X103695000Y-76108748D02*
X103695000Y-76631252D01*
%TO.C,C6*%
X99108748Y-80605000D02*
X99631252Y-80605000D01*
X99108748Y-82075000D02*
X99631252Y-82075000D01*
%TO.C,C5*%
X94355000Y-99118748D02*
X94355000Y-99641252D01*
X92885000Y-99118748D02*
X92885000Y-99641252D01*
%TO.C,C4*%
X102495000Y-99218748D02*
X102495000Y-99741252D01*
X101025000Y-99218748D02*
X101025000Y-99741252D01*
%TO.C,C3*%
X109385000Y-99258748D02*
X109385000Y-99781252D01*
X107915000Y-99258748D02*
X107915000Y-99781252D01*
%TO.C,C2*%
X93631252Y-76845000D02*
X93108748Y-76845000D01*
X93631252Y-75375000D02*
X93108748Y-75375000D01*
%TO.C,C1*%
X93391252Y-70965000D02*
X92868748Y-70965000D01*
X93391252Y-69495000D02*
X92868748Y-69495000D01*
%TD*%
M02*
